<?xml version="1.0" standalone="no"?>
<!DOCTYPE svg PUBLIC "-//W3C//DTD SVG 20010904//EN"
 "http://www.w3.org/TR/2001/REC-SVG-20010904/DTD/svg10.dtd">
<svg version="1.0" xmlns="http://www.w3.org/2000/svg"
 width="512.000000pt" height="512.000000pt" viewBox="0 0 512.000000 512.000000"
 preserveAspectRatio="xMidYMid meet">
<metadata>
Created by potrace 1.11, written by Peter Selinger 2001-2013
</metadata>
<g transform="translate(0.000000,512.000000) scale(0.100000,-0.100000)"
fill="#000000" stroke="none">
<path d="M3388 4995 c-2 -1 -46 -5 -98 -9 -52 -3 -106 -8 -120 -10 -14 -3 -52
-7 -85 -11 -32 -4 -62 -8 -65 -10 -3 -1 -28 -5 -57 -9 -181 -21 -555 -126
-788 -221 -99 -40 -359 -166 -445 -216 -146 -86 -380 -248 -483 -337 -17 -15
-51 -45 -76 -66 -52 -45 -247 -240 -303 -302 -20 -23 -71 -86 -113 -140 -41
-55 -80 -105 -86 -112 -26 -32 -151 -236 -202 -330 -88 -162 -216 -479 -242
-597 -2 -11 -9 -36 -15 -55 -43 -144 -87 -473 -85 -648 3 -295 125 -551 387
-813 225 -224 535 -418 943 -589 231 -96 601 -203 920 -266 44 -9 89 -17 100
-20 10 -2 37 -6 60 -9 22 -4 54 -9 70 -11 46 -9 51 -9 210 -29 17 -2 62 -7
100 -10 39 -4 86 -8 105 -11 92 -11 285 -18 485 -19 182 0 231 3 285 18 406
112 758 547 989 1222 79 232 156 563 186 795 3 25 8 56 10 70 3 14 8 57 11 95
3 39 8 84 10 100 19 168 26 701 12 875 -25 287 -116 611 -243 858 -48 95 -147
259 -164 272 -4 3 -20 24 -37 47 -42 58 -147 168 -219 229 -124 105 -259 182
-418 236 -91 32 -94 32 -314 34 -122 1 -223 1 -225 -1z"/>
</g>
</svg>
