<?xml version="1.0" standalone="no"?>
<!DOCTYPE svg PUBLIC "-//W3C//DTD SVG 1.1//EN" "http://www.w3.org/Graphics/SVG/1.1/DTD/svg11.dtd">
<svg xmlns="http://www.w3.org/2000/svg">
<defs >
<font id="MPLUSRounded1c" horiz-adv-x="910" ><font-face
    font-family="Rounded Mplus 1c ExtraBold"
    units-per-em="1000"
    panose-1="2 11 8 2 2 2 3 2 2 7"
    ascent="1075"
    descent="-320"
    alphabetic="0" />
<glyph unicode=" " glyph-name="space" horiz-adv-x="291" />
<glyph unicode="!" glyph-name="exclam" horiz-adv-x="410" d="M185 230Q161 230 145 246T126 287L106 673Q105 696 121 713T160 730H250Q273 730 289 713T304 673L285 287Q284 263 267 247T225 230H185ZM235 150Q258 150 275 133T292 93V57Q292 34 275 17T235
0H175Q152 0 135 17T118 57V93Q118 116 135 133T175 150H235Z" />
<glyph unicode="&quot;" glyph-name="quotedbl" horiz-adv-x="513" d="M76 526L61 714Q59 737 74 753T113 770H169Q192 770 208 754T221 714L206 526Q204 502 186 486T144 470H138Q114 470 96 486T76 526ZM306 526L291 714Q289 737 304 753T343 770H399Q422 770
438 754T451 714L436 526Q434 502 416 486T374 470H368Q344 470 326 486T306 526Z" />
<glyph unicode="#" glyph-name="numbersign" horiz-adv-x="701" d="M324 450L298 300Q296 292 305 292H368Q376 292 378 300L404 450Q406 458 397 458H334Q326 458 324 450ZM98 163Q75 163 58 180T41 220V235Q41 258 58 275T98 292H134Q142 292 144 300L171 450Q173
458 164 458H150Q127 458 110 475T93 515V530Q93 553 110 570T150 587H187Q195 587 197 595L211 674Q216 698 234 714T277 730H317Q339 730 353 713T364 674L350 595Q348 587 357 587H420Q428 587 430 595L444 674Q449 698 467 714T511 730H551Q573 730 587 713T597
674L583 595Q582 592 585 590T591 587H603Q626 587 643 570T660 530V515Q660 492 643 475T603 458H568Q560 458 558 450L531 300Q529 292 538 292H551Q574 292 591 275T608 235V220Q608 197 591 180T551 163H516Q508 163 506 155L488 56Q483 32 465 16T422 0H381Q359
0 345 17T335 56L352 155Q354 163 345 163H282Q274 163 272 155L255 56Q250 32 232 16T188 0H148Q126 0 112 17T101 56L119 155Q121 163 112 163H98Z" />
<glyph unicode="$" glyph-name="dollar" horiz-adv-x="602" d="M301 589Q206 585 206 523Q206 468 295 445Q296 445 298 445T302 443Q310 441 310 450V580Q310 589 301 589ZM305 142Q395 150 395 215Q395 243 375 262T305 297Q296 299 296 291V150Q296 142 305
142ZM182 340Q46 405 46 523Q46 610 111 662T301 715Q310 715 310 724V758Q310 781 326 798T366 815H368Q391 815 408 798T425 758V716Q425 708 433 706Q463 702 477 699Q501 694 516 674T531 628V604Q531 584 515 572T478 565Q448 573 433 576Q425 578 425 570V422Q425
415 424 412Q422 403 428 400Q497 368 526 325T556 218Q556 124 493 72T304 16Q296 16 296 7V-28Q296 -51 280 -68T240 -85H238Q215 -85 198 -68T181 -28V14Q181 23 174 24Q148 28 122 36Q98 43 83 64T68 112V141Q68 160 84 170T119 173Q146 162 173 155Q181 153
181 162V308Q181 317 185 329Q189 337 182 340Z" />
<glyph unicode="%" glyph-name="percent" horiz-adv-x="906" d="M643 730Q662 730 672 713T674 679L355 51Q329 0 273 0H263Q244 0 234 17T232 51L551 679Q577 730 633 730H643ZM740 289T683 289T626 192Q626 94 683 94T740 192Q740 289 683 289ZM774 -10T683
-10T542 43T491 192T541 340T683 393T824 341T875 192T825 43ZM280 636T223 636T166 538Q166 441 223 441T280 538Q280 636 223 636ZM314 337T223 337T82 389T31 538T81 687T223 740T364 687T415 538T365 390Z" />
<glyph unicode="&amp;" glyph-name="ampersand" horiz-adv-x="748" d="M288 282Q219 232 219 192Q219 119 324 119Q384 119 437 144Q444 148 438 154L301 282Q295 288 288 282ZM375 622T336 622T275 605T252 560Q252 537 263 517T315 456Q321 450 328 455Q383
489 400 509T417 553Q417 586 396 604ZM316 -10Q46 -10 46 177Q46 226 79 272T193 373Q199 377 193 383Q133 440 111 480T89 567Q89 643 154 691T333 740Q454 740 516 694T578 565Q578 512 542 464T422 363Q415 359 421 353L512 265Q516 263 518 268V334Q518 357
534 374T574 391H615Q638 391 655 374T672 334V119Q672 110 678 104L745 39Q756 28 751 14T729 0H660Q603 0 561 39Q556 44 547 41Q425 -10 316 -10Z" />
<glyph unicode="&apos;" glyph-name="quotesingle" horiz-adv-x="311" d="M82 526L66 714Q64 737 79 753T118 770H192Q215 770 231 754T244 714L228 526Q226 502 209 486T167 470H143Q119 470 102 486T82 526Z" />
<glyph unicode="(" glyph-name="parenleft" horiz-adv-x="412" d="M324 -185Q264 -185 228 -145Q148 -57 105 56T61 292T104 528T228 730Q264 770 324 770H351Q367 770 374 756T370 728Q216 540 216 292Q216 45 370 -143Q381 -156 374 -170T351 -185H324Z" />
<glyph unicode=")" glyph-name="parenright" horiz-adv-x="412" d="M61 -185Q45 -185 39 -171T42 -143Q196 45 196 292Q196 540 42 728Q32 741 38 755T61 770H88Q149 770 184 730Q264 642 307 528T351 292T308 57T184 -145Q149 -185 88 -185H61Z" />
<glyph unicode="*" glyph-name="asterisk" horiz-adv-x="512" d="M463 606L468 590Q475 568 464 548T431 521L361 501Q358 500 357 497T358 492L403 435Q417 417 414 394T392 357L379 347Q360 333 337 337T301 361L261 421Q259 423 256 423T251 421L211 361Q198
342 175 338T133 347L120 357Q101 370 98 393T109 435L154 492Q156 494 155 497T151 501L81 521Q58 527 47 547T44 590L49 606Q56 628 77 638T120 640L188 615Q191 614 193 616T196 621L193 693Q192 716 208 733T248 750H264Q287 750 303 733T319 693L316 621Q316
618 318 616T324 615L392 640Q413 648 434 638T463 606Z" />
<glyph unicode="+" glyph-name="plus" horiz-adv-x="736" d="M128 226Q105 226 88 243T71 283V297Q71 320 88 337T128 354H291Q300 354 300 363V523Q300 546 316 563T356 580H380Q403 580 419 563T436 523V363Q436 354 445 354H608Q631 354 648 337T665 297V283Q665
260 648 243T608 226H445Q436 226 436 217V57Q436 34 420 17T380 0H356Q333 0 317 17T300 57V217Q300 226 291 226H128Z" />
<glyph unicode="," glyph-name="comma" horiz-adv-x="341" d="M97 -110Q75 -110 62 -94T52 -55L92 135Q97 159 116 174T161 190H241Q261 190 272 173T277 137L201 -57Q192 -81 171 -95T124 -110H97Z" />
<glyph unicode="-" glyph-name="hyphen" horiz-adv-x="488" d="M127 226Q104 226 88 243T71 283V297Q71 320 87 337T127 354H361Q384 354 400 337T417 297V283Q417 260 401 243T361 226H127Z" />
<glyph unicode="." glyph-name="period" horiz-adv-x="362" d="M143 0Q120 0 103 17T86 57V133Q86 156 103 173T143 190H219Q242 190 259 173T276 133V57Q276 34 259 17T219 0H143Z" />
<glyph unicode="/" glyph-name="slash" horiz-adv-x="524" d="M62 -40Q42 -40 32 -23T29 12L331 678Q342 701 364 715T411 730H446Q467 730 477 713T479 678L177 12Q167 -11 145 -25T97 -40H62Z" />
<glyph unicode="0" glyph-name="zero" horiz-adv-x="650" d="M385 611T325 611T237 556T208 365T236 174T325 119T413 174T442 365T414 556ZM472 -10T325 -10T107 78T35 365T106 652T325 740T543 652T615 365T544 78Z" />
<glyph unicode="1" glyph-name="one" horiz-adv-x="650" d="M142 437Q128 426 113 434T97 460V533Q97 590 143 623L244 697Q289 730 347 730H410Q433 730 450 713T467 673V57Q467 34 450 17T410 0H347Q324 0 307 17T290 57V543H289H288L142 437Z" />
<glyph unicode="2" glyph-name="two" horiz-adv-x="650" d="M135 0Q112 0 95 17T78 57V80Q78 136 123 171Q291 303 345 372T400 507Q400 599 298 599Q236 599 146 565Q127 558 110 569T93 600V642Q93 668 108 688T148 716Q239 740 323 740Q444 740 509 683T575
523Q575 435 520 356T303 140Q302 139 302 138T303 137H522Q545 137 561 120T578 80V57Q578 34 562 17T522 0H135Z" />
<glyph unicode="3" glyph-name="three" horiz-adv-x="650" d="M132 593Q109 593 92 610T75 650V673Q75 696 92 713T132 730H505Q528 730 545 713T562 673V650Q562 593 518 557L367 432V431Q367 430 368 430H380Q467 430 519 376T572 230Q572 114 501 52T297 -10Q217
-10 135 9Q111 15 96 35T80 82V116Q80 136 96 147T133 153Q219 125 283 125Q341 125 373 152T405 227Q405 276 368 296T230 317Q207 317 190 333T173 373V375Q173 431 216 468L358 591V592Q358 593 357 593H132Z" />
<glyph unicode="4" glyph-name="four" horiz-adv-x="650" d="M162 275V274Q162 273 163 273H328Q337 273 337 281V523Q337 524 336 524Q334 524 334 523L162 275ZM68 140Q45 140 29 157T12 197V216Q12 272 45 319L304 684Q337 730 393 730H443Q466 730 482 713T499
673V281Q499 273 508 273H548Q571 273 588 256T605 216V197Q605 174 588 157T548 140H508Q499 140 499 131V57Q499 34 483 17T443 0H393Q370 0 354 17T337 57V131Q337 140 328 140H68Z" />
<glyph unicode="5" glyph-name="five" horiz-adv-x="650" d="M143 4Q119 9 104 29T88 75V106Q88 127 105 139T142 146Q223 125 271 125Q418 125 418 248Q418 348 318 348Q295 348 278 341Q272 339 254 332T226 321T202 314T174 310H143Q120 310 104 327T89 367L103
673Q105 697 122 713T163 730H494Q517 730 534 713T551 673V650Q551 627 534 610T494 593H268Q259 593 259 585L253 458Q253 457 254 457H256Q304 477 351 477Q463 477 523 418T584 248Q584 -10 278 -10Q211 -10 143 4Z" />
<glyph unicode="6" glyph-name="six" horiz-adv-x="650" d="M327 376Q273 376 241 342T209 247Q209 184 241 149T327 113Q383 113 414 147T445 247Q445 309 414 342T327 376ZM327 -10Q192 -10 119 72T45 320Q45 530 130 635T372 740Q427 740 474 732Q498 728 513
708T529 663V645Q529 624 513 612T475 605Q422 617 378 617Q308 617 265 574T211 448Q211 447 212 447H213Q269 490 362 490Q480 490 544 428T608 250Q608 128 533 59T327 -10Z" />
<glyph unicode="7" glyph-name="seven" horiz-adv-x="650" d="M127 593Q104 593 87 610T70 650V673Q70 696 87 713T127 730H527Q550 730 566 713T583 673V650Q583 595 555 545Q427 324 335 54Q327 30 306 15T260 0H192Q171 0 159 17T155 54Q266 343 420 587Q422
589 422 591T420 593H127Z" />
<glyph unicode="8" glyph-name="eight" horiz-adv-x="650" d="M300 319Q245 296 223 270T200 208Q200 165 235 137T325 109T414 137T449 208Q449 246 423 270T316 320Q309 323 300 319ZM325 621Q276 621 248 598T219 537Q219 506 242 483T324 441Q332 438 340
441Q433 477 433 537Q433 574 404 597T325 621ZM462 -10T325 -10T112 47T35 200Q35 309 173 373Q174 373 174 375Q174 376 173 376Q57 442 57 553Q57 635 128 687T325 740T522 688T593 553Q593 458 470 395Q469 395 469 394Q469 392 470 392Q615 332 615 200Q615
104 539 47Z" />
<glyph unicode="9" glyph-name="nine" horiz-adv-x="650" d="M323 617Q268 617 237 584T205 493Q205 424 236 389T323 354Q378 354 409 390T441 493Q441 549 408 583T323 617ZM288 240Q169 240 106 304T42 490Q42 605 117 672T323 740Q458 740 531 659T605 420Q605
-10 278 -10Q223 -10 166 -1Q142 3 127 22T111 67V85Q111 106 128 118T166 126Q223 113 272 113Q348 113 391 156T439 282Q439 283 438 283H437Q381 240 288 240Z" />
<glyph unicode=":" glyph-name="colon" horiz-adv-x="442" d="M183 377Q160 377 143 393T126 433V510Q126 533 143 550T183 567H259Q282 567 299 550T316 510V433Q316 410 299 394T259 377H183ZM183 0Q160 0 143 17T126 57V133Q126 156 143 173T183 190H259Q282
190 299 173T316 133V57Q316 34 299 17T259 0H183Z" />
<glyph unicode=";" glyph-name="semicolon" horiz-adv-x="435" d="M117 -110Q95 -110 82 -94T72 -55L112 135Q117 159 136 174T181 190H261Q281 190 292 173T297 137L221 -57Q212 -81 191 -95T144 -110H117ZM257 567Q280 567 297 550T314 510V433Q314 410 297
394T257 377H181Q158 377 141 393T124 433V510Q124 533 141 550T181 567H257Z" />
<glyph unicode="&lt;" glyph-name="less" horiz-adv-x="689" d="M110 179Q86 188 71 209T56 255V325Q56 350 71 371T110 401L550 564Q569 571 586 560T603 527V502Q603 477 588 456T549 427L152 291Q151 291 151 290T152 289L549 153Q573 145 588 124T603 78V53Q603
32 586 21T550 16L110 179Z" />
<glyph unicode="=" glyph-name="equal" horiz-adv-x="756" d="M138 352Q115 352 98 368T81 408V423Q81 446 98 463T138 480H618Q641 480 658 463T675 423V408Q675 385 658 369T618 352H138ZM138 100Q115 100 98 117T81 157V172Q81 195 98 211T138 228H618Q641
228 658 212T675 172V157Q675 134 658 117T618 100H138Z" />
<glyph unicode="&gt;" glyph-name="greater" horiz-adv-x="689" d="M139 16Q120 9 103 20T86 53V78Q86 103 101 124T140 153L537 289Q538 289 538 290T537 291L140 427Q116 435 101 456T86 502V527Q86 548 103 559T139 564L579 401Q603 392 618 371T633 325V255Q633
230 618 209T579 179L139 16Z" />
<glyph unicode="?" glyph-name="question" horiz-adv-x="645" d="M130 582Q110 577 93 589T76 623V653Q76 678 91 697T131 721Q234 740 328 740Q451 740 520 691T589 563Q589 526 580 497T549 444T512 408T465 374Q439 355 427 347T398 321T372 286Q344 232 301
232H258Q234 232 218 249T208 288Q217 322 240 353T281 400T333 441Q360 461 373 473T399 503T411 540Q411 606 303 606Q224 606 130 582ZM249 150H309Q332 150 349 133T366 93V57Q366 34 349 17T309 0H249Q226 0 210 17T193 57V93Q193 116 209 133T249 150Z" />
<glyph unicode="@" glyph-name="at" horiz-adv-x="812" d="M462 256V264Q462 311 443 337T392 363Q321 363 321 260Q321 211 341 184T392 157Q424 157 443 182T462 256ZM537 456Q560 456 577 439T594 399V166Q594 158 602 158H662Q671 158 674 166Q688 211 688
260Q688 386 610 464T406 542Q282 542 203 463T124 260T203 57T406 -22Q480 -22 536 6Q553 15 572 11T603 -8Q615 -24 612 -43T591 -71Q512 -115 406 -115Q247 -115 139 -10T31 260Q31 424 137 529T406 635Q570 635 675 531T781 260Q781 182 755 115Q745 91 723
78T674 64H519Q499 64 485 78T470 111L469 117Q469 118 468 118T467 117Q420 57 351 57Q283 57 240 111T196 260Q196 358 238 410T351 463Q419 463 466 404Q466 403 468 403Q469 403 469 404V410Q469 429 482 442T515 456H537Z" />
<glyph unicode="A" glyph-name="A" horiz-adv-x="664" d="M329 582L256 295Q255 292 257 290T263 287H397Q400 287 402 289T404 295L331 582Q331 583 330 583T329 582ZM62 0Q41 0 29 17T23 54L225 676Q233 700 253 715T299 730H365Q391 730 412 715T440 676L641
54Q648 34 636 17T602 0H535Q510 0 490 15T464 55L440 150Q439 158 430 158H230Q222 158 220 150L196 55Q190 31 170 16T125 0H62Z" />
<glyph unicode="B" glyph-name="B" horiz-adv-x="631" d="M243 310V134Q243 125 252 123Q273 119 303 119Q374 119 407 145T440 227Q440 319 290 319H251Q243 319 243 310ZM243 596V449Q243 441 251 441H276Q422 441 422 528Q422 611 300 611Q271 611 251 607Q243
605 243 596ZM132 -2Q108 0 92 19T76 62V668Q76 693 92 711T133 732Q211 740 286 740Q576 740 576 553Q576 490 536 446T427 390Q426 390 426 388Q426 387 428 387Q507 376 553 327T600 210Q600 99 527 45T296 -10Q217 -10 132 -2Z" />
<glyph unicode="C" glyph-name="C" horiz-adv-x="646" d="M383 -10Q219 -10 125 87T31 365Q31 543 122 641T376 740Q454 740 512 729Q536 725 551 705T566 660V628Q566 607 549 595T512 588Q455 603 396 603Q306 603 256 542T205 365Q205 251 259 188T403 125Q463
125 520 140Q540 145 557 133T575 100V70Q575 45 560 25T520 1Q461 -10 383 -10Z" />
<glyph unicode="D" glyph-name="D" horiz-adv-x="690" d="M242 592V138Q242 129 251 127Q271 123 299 123Q400 123 448 182T497 375Q497 495 448 551T299 607Q271 607 251 603Q242 601 242 592ZM132 -2Q108 0 92 18T76 62V668Q76 693 92 711T132 732Q210 740 286
740Q465 740 562 645T659 375Q659 185 562 88T286 -10Q210 -10 132 -2Z" />
<glyph unicode="E" glyph-name="E" horiz-adv-x="608" d="M132 0Q109 0 93 17T76 57V673Q76 696 92 713T132 730H486Q509 730 525 713T542 673V650Q542 627 526 610T486 593H254Q246 593 246 585V453Q246 444 254 444H466Q489 444 505 427T522 387V372Q522 349
506 332T466 315H254Q246 315 246 307V145Q246 137 254 137H486Q509 137 525 120T542 80V57Q542 34 526 17T486 0H132Z" />
<glyph unicode="F" glyph-name="F" horiz-adv-x="594" d="M133 0Q110 0 93 17T76 57V673Q76 696 93 713T133 730H476Q499 730 516 713T533 673V650Q533 627 516 610T476 593H255Q246 593 246 585V436Q246 427 255 427H456Q479 427 496 411T513 371V355Q513 332
496 316T456 299H255Q246 299 246 290V57Q246 34 230 17T190 0H133Z" />
<glyph unicode="G" glyph-name="G" horiz-adv-x="715" d="M401 -10Q233 -10 132 89T31 365Q31 542 130 641T408 740Q482 740 551 728Q575 724 590 705T606 660V633Q606 612 589 599T551 591Q489 605 428 605Q204 605 204 365Q204 245 257 185T411 125Q442 125
474 133Q483 135 483 144V307Q483 315 474 315H381Q358 315 341 332T324 372V387Q324 410 341 427T381 444H588Q611 444 627 427T644 387V88Q644 62 629 42T590 14Q500 -10 401 -10Z" />
<glyph unicode="H" glyph-name="H" horiz-adv-x="716" d="M133 0Q110 0 93 17T76 57V673Q76 696 93 713T133 730H190Q213 730 229 713T246 673V453Q246 444 255 444H461Q470 444 470 453V673Q470 696 486 713T526 730H583Q606 730 623 713T640 673V57Q640 34 623
17T583 0H526Q503 0 487 17T470 57V307Q470 315 461 315H255Q246 315 246 307V57Q246 34 230 17T190 0H133Z" />
<glyph unicode="I" glyph-name="I" horiz-adv-x="368" d="M147 0Q124 0 108 17T91 57V673Q91 696 107 713T147 730H221Q244 730 260 713T277 673V57Q277 34 261 17T221 0H147Z" />
<glyph unicode="J" glyph-name="J" horiz-adv-x="574" d="M84 7Q60 13 46 33T31 80V115Q31 135 47 146T83 150Q152 127 214 127Q275 127 304 164T333 290V673Q333 696 349 713T389 730H451Q474 730 491 713T508 673V267Q508 119 444 55T238 -10Q157 -10 84 7Z" />
<glyph unicode="K" glyph-name="K" horiz-adv-x="656" d="M133 0Q110 0 93 17T76 57V673Q76 696 93 713T133 730H190Q213 730 229 713T246 673V418Q246 417 247 417Q249 417 249 418L419 682Q449 730 506 730H590Q608 730 616 714T614 683L411 387Q406 380 411
373L625 47Q635 32 627 16T600 0H516Q459 0 430 48L249 342Q249 343 247 343Q246 343 246 342V57Q246 34 230 17T190 0H133Z" />
<glyph unicode="L" glyph-name="L" horiz-adv-x="611" d="M133 0Q110 0 93 17T76 57V673Q76 696 93 713T133 730H195Q218 730 234 713T251 673V149Q251 141 260 141H503Q526 141 543 124T560 84V57Q560 34 543 17T503 0H133Z" />
<glyph unicode="M" glyph-name="M" horiz-adv-x="852" d="M133 0Q110 0 93 17T76 57V673Q76 696 93 713T133 730H190Q216 730 237 716T268 678L423 301Q423 300 424 300T425 301L580 678Q590 702 611 716T658 730H719Q742 730 759 713T776 673V57Q776 34 759 17T719
0H671Q648 0 632 17T615 57V446Q615 447 614 447Q612 447 612 446L516 219Q506 195 485 181T437 167H411Q385 167 364 181T332 219L236 446Q236 447 234 447Q233 447 233 446V57Q233 34 217 17T177 0H133Z" />
<glyph unicode="N" glyph-name="N" horiz-adv-x="716" d="M133 0Q110 0 93 17T76 57V673Q76 696 93 713T133 730H182Q239 730 265 680L475 283Q475 282 476 282T477 283V673Q477 696 494 713T534 730H583Q606 730 623 713T640 673V57Q640 34 623 17T583 0H534Q477
0 451 50L241 447Q241 448 240 448T239 447V57Q239 34 222 17T182 0H133Z" />
<glyph unicode="O" glyph-name="O" horiz-adv-x="746" d="M541 600T373 600T205 365T373 130T541 365ZM531 -10T373 -10T123 89T31 365T123 640T373 740T623 641T715 365T623 90Z" />
<glyph unicode="P" glyph-name="P" horiz-adv-x="642" d="M243 596V378Q243 371 252 369Q286 365 306 365Q378 365 417 398T457 492Q457 611 306 611Q281 611 251 606Q243 604 243 596ZM133 0Q110 0 93 17T76 57V668Q76 692 92 711T132 732Q217 740 296 740Q616
740 616 502Q616 373 542 307T323 240Q285 240 252 243Q243 243 243 235V57Q243 34 226 17T186 0H133Z" />
<glyph unicode="Q" glyph-name="Q" horiz-adv-x="754" d="M372 600Q205 600 205 365T372 130Q540 130 540 365T372 600ZM372 -10Q214 -10 123 89T31 365T122 640T372 740T622 641T714 365Q714 262 677 183T573 55Q572 55 572 53Q572 52 574 52Q684 2 762 -103Q773
-118 764 -134T736 -150H666Q611 -150 580 -102Q541 -44 502 -27T372 -10Z" />
<glyph unicode="R" glyph-name="R" horiz-adv-x="652" d="M243 596V404Q243 395 251 395H299Q369 395 406 424T443 507Q443 611 306 611Q275 611 252 607Q243 605 243 596ZM133 0Q110 0 93 17T76 57V668Q76 693 92 711T133 731Q222 740 316 740Q466 740 539 684T613
523Q613 456 574 403T472 326Q471 326 471 325Q471 323 473 323Q522 295 556 205L613 53Q620 34 608 17T576 0H515Q489 0 468 15T439 54L389 198Q375 240 355 255T293 270H251Q243 270 243 261V57Q243 34 226 17T186 0H133Z" />
<glyph unicode="S" glyph-name="S" horiz-adv-x="598" d="M289 292Q163 332 107 391T51 537Q51 631 116 685T304 740Q396 740 471 719Q495 712 509 691T524 643V614Q524 594 507 583T471 579Q386 609 314 609Q222 609 222 537Q222 476 302 450Q440 408 493 352T547
205Q547 -10 276 -10Q190 -10 120 17Q96 26 83 48T69 98V130Q69 148 85 157T117 159Q190 123 266 123Q319 123 346 143T374 202Q374 235 355 256T289 292Z" />
<glyph unicode="T" glyph-name="T" horiz-adv-x="662" d="M108 589Q85 589 68 606T51 646V673Q51 696 68 713T108 730H554Q577 730 594 713T611 673V646Q611 623 594 606T554 589H426Q418 589 418 581V57Q418 34 401 17T361 0H301Q278 0 261 17T244 57V581Q244
589 236 589H108Z" />
<glyph unicode="U" glyph-name="U" horiz-adv-x="692" d="M626 -10T346 -10T66 265V673Q66 696 83 713T123 730H181Q204 730 221 713T238 673V253Q238 185 264 156T348 127T432 156T458 253V673Q458 696 475 713T515 730H569Q592 730 609 713T626 673V265Q626
-10 346 -10Z" />
<glyph unicode="V" glyph-name="V" horiz-adv-x="664" d="M225 54L23 676Q16 696 28 713T62 730H129Q154 730 174 715T200 675L331 164Q331 163 332 163T333 164L468 675Q474 699 494 714T539 730H602Q623 730 635 713T641 676L439 54Q432 30 412 15T365 0H299Q274
0 254 15T225 54Z" />
<glyph unicode="W" glyph-name="W" horiz-adv-x="892" d="M160 56L37 674Q32 696 46 713T83 730H141Q165 730 184 714T206 674L274 174Q274 173 275 173T276 174L338 674Q341 698 359 714T401 730H495Q519 730 537 714T558 674L620 174Q620 173 621 173T622 174L690
674Q693 698 712 714T755 730H809Q831 730 845 713T855 674L732 56Q727 32 708 16T664 0H579Q555 0 537 16T515 56L447 556Q447 557 446 557T445 556L377 56Q374 32 356 16T313 0H228Q203 0 184 16T160 56Z" />
<glyph unicode="X" glyph-name="X" horiz-adv-x="648" d="M81 0Q61 0 51 17T50 51L207 362Q210 370 207 378L55 679Q46 696 56 713T86 730H159Q185 730 206 716T238 678L325 469Q325 468 326 468T327 469L414 678Q424 702 445 716T493 730H562Q581 730 591 713T593
679L441 378Q438 370 441 362L598 51Q607 34 597 17T567 0H490Q464 0 443 14T412 53L323 271Q323 272 322 272T321 271L232 53Q222 29 201 15T154 0H81Z" />
<glyph unicode="Y" glyph-name="Y" horiz-adv-x="648" d="M233 288L25 680Q16 697 26 713T56 730H137Q163 730 184 716T215 678L325 418Q325 417 326 417T327 418L437 678Q447 702 468 716T515 730H592Q611 730 621 714T623 680L415 288Q411 281 411 271V57Q411
34 395 17T355 0H293Q270 0 253 17T236 57V271Q236 283 233 288Z" />
<glyph unicode="Z" glyph-name="Z" horiz-adv-x="638" d="M122 0Q99 0 83 17T66 57V80Q66 138 97 184L372 590V591L373 592Q373 593 372 593H122Q99 593 83 610T66 650V673Q66 696 82 713T122 730H516Q539 730 555 713T572 673V650Q572 592 541 546L266 140V139L265
138Q265 137 266 137H516Q539 137 555 120T572 80V57Q572 34 556 17T516 0H122Z" />
<glyph unicode="[" glyph-name="bracketleft" horiz-adv-x="518" d="M162 -185Q139 -185 123 -168T106 -128V713Q106 736 122 753T162 770H386Q409 770 425 753T442 713T426 674T386 657H261Q252 657 252 648V-63Q252 -72 261 -72H386Q409 -72 425 -88T442 -128T426
-168T386 -185H162Z" />
<glyph unicode="\" glyph-name="backslash" horiz-adv-x="524" d="M346 12L44 678Q36 696 46 713T77 730H112Q138 730 160 716T192 678L494 12Q503 -6 493 -23T461 -40H426Q401 -40 379 -26T346 12Z" />
<glyph unicode="]" glyph-name="bracketright" horiz-adv-x="518" d="M257 -72Q266 -72 266 -63V648Q266 657 257 657H133Q110 657 93 673T76 713T92 753T132 770H356Q379 770 395 753T412 713V-128Q412 -151 396 -168T356 -185H132Q109 -185 93 -168T76 -128T92
-89T132 -72H257Z" />
<glyph unicode="^" glyph-name="asciicircum" horiz-adv-x="653" d="M66 280Q47 280 37 296T34 331L200 679Q212 702 233 716T281 730H371Q398 730 419 716T452 679L618 331Q627 313 617 297T586 280H542Q517 280 495 294T462 332L327 639L326 640L325 639L190
332Q180 309 158 295T110 280H66Z" />
<glyph unicode="_" glyph-name="underscore" horiz-adv-x="602" d="M54 -185Q31 -185 15 -168T-2 -128T14 -89T54 -72H548Q571 -72 587 -88T604 -128T588 -168T548 -185H54Z" />
<glyph unicode="`" glyph-name="grave" horiz-adv-x="318" d="M139 555L11 762Q1 778 10 794T38 810H132Q157 810 178 796T209 757L285 560Q292 541 280 524T248 507H225Q198 507 175 520T139 555Z" />
<glyph unicode="a" glyph-name="a" horiz-adv-x="579" d="M311 238Q189 238 189 163Q189 136 205 121T248 105Q296 105 326 135T356 217V229Q356 238 347 238H311ZM199 -10Q130 -10 86 34T41 150Q41 332 311 332H347Q356 332 356 340V345Q356 383 337 400T271
417Q210 417 125 398Q104 394 88 407T71 441V443Q71 468 86 488T126 513Q214 530 278 530Q409 530 463 483T518 327V57Q518 34 501 17T461 0H424Q400 0 383 16T365 57V68Q365 69 364 69Q362 69 362 68Q299 -10 199 -10Z" />
<glyph unicode="b" glyph-name="b" horiz-adv-x="623" d="M229 322V198Q229 164 259 137T329 110Q375 110 402 147T429 260Q429 410 329 410Q289 410 259 383T229 322ZM127 0Q104 0 88 17T71 57V693Q71 716 87 733T127 750H176Q199 750 215 733T232 693V469Q232
468 233 468T235 469Q302 530 384 530Q477 530 532 460T587 260Q587 133 530 62T384 -10Q289 -10 226 64L224 66Q223 66 223 65V57Q222 33 206 17T165 0H127Z" />
<glyph unicode="c" glyph-name="c" horiz-adv-x="522" d="M298 -10Q169 -10 100 58T31 260Q31 391 97 460T288 530Q329 530 397 521Q422 517 437 499T453 455V445Q453 424 436 411T398 402Q357 409 313 409Q256 409 229 374T201 260Q201 180 230 146T323 111Q370
111 407 119Q428 124 444 111T461 77V67Q461 42 445 23T405 -1Q350 -10 298 -10Z" />
<glyph unicode="d" glyph-name="d" horiz-adv-x="623" d="M294 410Q194 410 194 260Q194 184 221 147T294 110Q334 110 364 137T394 198V322Q394 356 364 383T294 410ZM239 -10Q150 -10 93 61T36 260Q36 390 91 460T239 530Q321 530 388 469Q389 468 390 468T391
469V693Q391 716 407 733T447 750H496Q519 750 535 733T552 693V57Q552 34 536 17T496 0H458Q434 0 418 16T400 57V65Q400 66 399 66L397 64Q334 -10 239 -10Z" />
<glyph unicode="e" glyph-name="e" horiz-adv-x="564" d="M289 421Q244 421 221 398T192 317Q192 309 199 309H368Q377 309 377 318Q373 421 289 421ZM314 -10Q178 -10 105 59T31 260Q31 391 96 460T286 530Q524 530 528 270Q528 246 510 230T467 213H200Q190
213 192 204Q200 149 234 126T338 102Q383 102 435 115Q456 120 472 107T489 73V71Q489 46 474 26T434 1Q376 -10 314 -10Z" />
<glyph unicode="f" glyph-name="f" horiz-adv-x="544" d="M103 387Q80 387 63 403T46 443T63 483T103 500H148Q156 500 156 509V527Q156 638 206 689T365 740Q400 740 427 736Q451 733 467 713T483 668V665Q483 644 466 632T428 622Q420 623 405 623Q356 623 340
604T323 528V509Q323 500 332 500H416Q439 500 456 483T473 443T456 404T416 387H332Q323 387 323 378V57Q323 34 306 17T266 0H213Q190 0 173 17T156 57V378Q156 387 148 387H103Z" />
<glyph unicode="g" glyph-name="g" horiz-adv-x="609" d="M289 410Q194 410 194 270Q194 200 219 165T289 130Q328 130 356 156T384 218V315Q384 355 356 382T289 410ZM236 10Q149 10 93 79T36 270Q36 394 90 462T236 530Q324 530 387 456L389 454Q390 454 390
455V463Q391 487 408 503T449 520H486Q509 520 526 503T543 463V45Q543 -90 469 -160T253 -230Q193 -230 145 -222Q121 -218 105 -198T89 -153V-133Q89 -113 106 -101T143 -94Q197 -107 246 -107Q318 -107 351 -73T384 43V71Q384 72 383 72T381 71Q324 10 236 10Z"
/>
<glyph unicode="h" glyph-name="h" horiz-adv-x="619" d="M128 0Q105 0 88 17T71 57V693Q71 716 88 733T128 750H176Q199 750 216 733T233 693V466Q233 465 234 465T236 466Q306 530 386 530Q478 530 518 478T558 290V57Q558 34 541 17T501 0H457Q434 0 417 17T400
57V270Q400 350 385 376T326 402Q292 402 263 373T233 310V57Q233 34 216 17T176 0H128Z" />
<glyph unicode="i" glyph-name="i" horiz-adv-x="352" d="M148 0Q125 0 108 17T91 57V463Q91 486 108 503T148 520H204Q227 520 244 503T261 463V57Q261 34 244 17T204 0H148ZM148 620Q125 620 108 637T91 677V693Q91 716 108 733T148 750H204Q227 750 244 733T261
693V677Q261 654 244 637T204 620H148Z" />
<glyph unicode="j" glyph-name="j" horiz-adv-x="402" d="M37 -219Q14 -220 -2 -203T-19 -163V-151Q-19 -127 -3 -111T38 -93Q103 -89 122 -69T141 10V463Q141 486 157 503T197 520H254Q277 520 294 503T311 463V10Q311 -116 256 -164T37 -219ZM254 750Q277 750
294 733T311 693V677Q311 654 294 637T254 620H197Q174 620 158 637T141 677V693Q141 716 157 733T197 750H254Z" />
<glyph unicode="k" glyph-name="k" horiz-adv-x="588" d="M127 0Q104 0 88 17T71 57V693Q71 716 87 733T127 750H176Q199 750 215 733T232 693V324Q232 323 233 323L235 324L360 476Q396 520 452 520H524Q540 520 547 505T544 477L373 276Q368 270 373 263L546
44Q556 30 549 15T524 0H452Q396 0 361 45L235 209Q234 210 233 210T232 209V57Q232 34 216 17T176 0H127Z" />
<glyph unicode="l" glyph-name="l" horiz-adv-x="352" d="M148 0Q125 0 108 17T91 57V693Q91 716 108 733T148 750H204Q227 750 244 733T261 693V57Q261 34 244 17T204 0H148Z" />
<glyph unicode="m" glyph-name="m" horiz-adv-x="851" d="M123 0Q100 0 83 17T66 57V463Q66 486 83 503T123 520H160Q184 520 200 504T219 463L220 454Q220 453 221 453Q223 453 223 454Q282 530 358 530Q404 530 431 514T481 455Q481 453 483 453L485 455Q554
530 629 530Q714 530 752 485T790 330V57Q790 34 773 17T733 0H689Q666 0 649 17T632 57V320Q632 374 620 391T575 409Q552 409 531 390T509 353V57Q509 34 492 17T452 0H408Q385 0 368 17T351 57V320Q351 374 340 391T295 409Q272 409 250 390T228 353V57Q228
34 211 17T171 0H123Z" />
<glyph unicode="n" glyph-name="n" horiz-adv-x="613" d="M122 0Q99 0 83 17T66 57V463Q66 486 82 503T122 520H163Q187 520 203 504T221 463L222 455Q222 454 223 454L225 456Q290 530 381 530T512 479T552 303V57Q552 34 536 17T496 0H452Q429 0 412 17T395
57V298Q395 358 379 380T321 403Q286 403 257 375T227 313V57Q227 34 211 17T171 0H122Z" />
<glyph unicode="o" glyph-name="o" horiz-adv-x="586" d="M343 417T293 417T219 380T194 260T218 140T293 103T367 140T392 260T368 380ZM417 -10T293 -10T100 61T31 260T100 459T293 530T486 459T555 260T486 61Z" />
<glyph unicode="p" glyph-name="p" horiz-adv-x="619" d="M224 322V198Q224 165 254 138T324 110Q370 110 397 147T424 260Q424 410 324 410Q285 410 255 383T224 322ZM123 -220Q100 -220 83 -203T66 -163V463Q66 486 83 503T123 520H163Q187 520 204 504T222
463V455Q222 454 223 454L225 456Q289 530 379 530Q472 530 527 460T583 260Q583 134 526 62T379 -10Q296 -10 231 51Q230 52 229 52T228 51V-163Q228 -186 211 -203T171 -220H123Z" />
<glyph unicode="q" glyph-name="q" horiz-adv-x="619" d="M295 410Q195 410 195 260Q195 185 222 148T295 110Q334 110 364 137T395 198V322Q395 355 365 382T295 410ZM240 -10Q151 -10 94 62T36 260Q36 390 91 460T240 530Q330 530 394 456L396 454Q397 454 397
455V463Q398 487 415 503T456 520H496Q519 520 536 503T553 463V-163Q553 -186 536 -203T496 -220H448Q425 -220 408 -203T391 -163V51Q391 52 390 52T388 51Q323 -10 240 -10Z" />
<glyph unicode="r" glyph-name="r" horiz-adv-x="505" d="M122 0Q99 0 83 17T66 57V463Q66 486 82 503T122 520H171Q194 520 210 503T227 463V421Q227 420 228 420Q230 420 230 421Q292 504 403 518Q426 521 442 504T459 463V455Q459 432 443 415T402 396Q321
387 277 341T232 220V57Q232 34 216 17T176 0H122Z" />
<glyph unicode="s" glyph-name="s" horiz-adv-x="532" d="M252 200Q144 220 98 262T51 373Q51 447 106 488T274 530Q340 530 409 519Q433 515 448 496T464 452V447Q464 426 448 413T410 404Q345 417 290 417Q249 417 233 407T216 377Q216 339 276 327Q390 308
435 267T481 148Q481 73 425 32T262 -10Q184 -10 114 5Q90 10 75 30T59 77V85Q59 106 76 117T114 124Q179 107 242 107Q316 107 316 150Q316 170 303 181T252 200Z" />
<glyph unicode="t" glyph-name="t" horiz-adv-x="537" d="M98 387Q75 387 58 403T41 443T58 483T98 500H138Q146 500 146 509V633Q146 656 163 673T203 690H251Q274 690 291 673T308 633V509Q308 500 317 500H415Q438 500 454 483T471 443T455 404T415 387H317Q308
387 308 378V207Q308 144 319 127T371 110Q392 110 404 112Q426 115 443 102T460 68V60Q460 35 444 16T403 -6Q372 -10 331 -10Q229 -10 188 33T146 190V378Q146 387 138 387H98Z" />
<glyph unicode="u" glyph-name="u" horiz-adv-x="609" d="M228 -10Q140 -10 101 39T61 207V463Q61 486 78 503T118 520H162Q185 520 202 503T219 463V218Q219 160 234 139T288 117Q323 117 352 145T381 207V463Q381 486 398 503T438 520H486Q509 520 526 503T543
463V57Q543 34 526 17T486 0H445Q421 0 405 16T387 57V65Q387 66 386 66L384 64Q319 -10 228 -10Z" />
<glyph unicode="v" glyph-name="v" horiz-adv-x="560" d="M156 54L28 466Q22 486 34 503T68 520H128Q153 520 172 505T197 465L281 94Q281 93 282 93T283 94L367 465Q372 489 391 504T436 520H492Q513 520 525 503T532 466L404 54Q396 30 376 15T330 0H230Q204
0 184 15T156 54Z" />
<glyph unicode="w" glyph-name="w" horiz-adv-x="806" d="M130 55L37 465Q33 486 46 503T81 520H131Q156 520 174 504T196 464L246 131Q246 130 247 130T248 131L303 464Q307 488 325 504T368 520H442Q467 520 485 504T508 464L562 131Q562 130 563 130T564 131L614
464Q618 488 636 504T679 520H725Q747 520 760 503T769 465L676 55Q671 31 651 16T606 0H528Q503 0 485 16T461 56L404 379Q404 380 403 380T402 379L345 56Q341 32 322 16T278 0H200Q175 0 155 15T130 55Z" />
<glyph unicode="x" glyph-name="x" horiz-adv-x="547" d="M74 0Q55 0 46 16T46 49L166 258Q170 265 166 272L51 471Q41 488 50 504T79 520H139Q164 520 186 506T219 468L275 347Q275 346 276 346T277 347L333 468Q343 491 365 505T413 520H469Q487 520 496 504T497
471L382 272Q377 265 382 258L502 49Q511 32 502 16T474 0H414Q388 0 366 14T333 51L273 181Q273 182 272 182T271 181L211 51Q200 28 178 14T130 0H74Z" />
<glyph unicode="y" glyph-name="y" horiz-adv-x="561" d="M198 8L29 467Q21 486 33 503T66 520H129Q153 520 173 505T199 465L275 154Q275 153 276 153T277 154L368 466Q374 490 394 505T441 520H496Q516 520 528 503T533 467L297 -167Q288 -191 267 -205T221
-220H166Q145 -220 134 -204T131 -168L198 -8Q199 -4 199 0T198 8Z" />
<glyph unicode="z" glyph-name="z" horiz-adv-x="572" d="M102 157L304 404V406Q304 407 303 407H123Q100 407 83 423T66 463T83 503T123 520H449Q472 520 489 503T506 463Q506 407 470 363L268 116V114Q268 113 269 113H449Q472 113 489 97T506 57T489 17T449
0H123Q100 0 83 17T66 57Q66 113 102 157Z" />
<glyph unicode="{" glyph-name="braceleft" horiz-adv-x="546" d="M108 231Q84 233 68 249T51 288V297Q51 320 67 336T108 354Q146 358 163 384T180 467V605Q180 694 217 732T341 770H408Q431 770 448 753T465 713T448 674T407 657Q354 656 340 640T326 562V462Q326
394 301 356T217 294Q215 294 215 292Q215 291 217 291Q276 268 301 230T326 123V23Q326 -39 340 -55T407 -72Q430 -72 447 -88T465 -128T448 -168T408 -185H341Q255 -185 218 -147T180 -20V118Q180 175 163 201T108 231Z" />
<glyph unicode="|" glyph-name="bar" horiz-adv-x="398" d="M182 -220Q159 -220 143 -203T126 -163V753Q126 776 142 793T182 810H216Q239 810 255 793T272 753V-163Q272 -186 256 -203T216 -220H182Z" />
<glyph unicode="}" glyph-name="braceright" horiz-adv-x="546" d="M329 291Q331 291 331 292Q331 294 329 294Q270 317 245 355T220 462V562Q220 624 206 640T139 657Q116 657 99 673T81 713T98 753T138 770H205Q291 770 328 732T366 605V467Q366 410 383 384T438
354Q462 352 478 336T495 297V288Q495 265 479 249T438 231Q400 227 383 201T366 118V-20Q366 -109 329 -147T205 -185H138Q115 -185 98 -168T81 -128T98 -89T139 -72Q192 -71 206 -55T220 23V123Q220 191 245 229T329 291Z" />
<glyph unicode="~" glyph-name="asciitilde" horiz-adv-x="694" d="M76 246L68 254Q49 272 46 296T59 341Q127 427 225 427Q309 427 383 355Q429 310 469 310Q507 310 543 349Q558 366 580 367T618 354L626 346Q644 328 647 304T635 259Q567 173 469 173Q384 173
311 245Q264 290 225 290Q187 290 151 251Q136 234 114 233T76 246Z" />
<glyph unicode="&#xa0;" glyph-name="uni00A0" horiz-adv-x="291" />
<glyph unicode="&#xa1;" glyph-name="exclamdown" horiz-adv-x="410" d="M160 -220Q137 -220 121 -203T106 -163L126 233Q128 257 144 273T185 290H225Q249 290 266 274T284 233L304 -163Q306 -186 290 -203T250 -220H160ZM175 370Q152 370 135 387T118 427V463Q118
486 135 503T175 520H235Q258 520 275 503T292 463V427Q292 404 275 387T235 370H175Z" />
<glyph unicode="&#xa2;" glyph-name="cent" horiz-adv-x="543" d="M263 396Q201 368 201 260Q201 154 263 126Q271 122 271 131V391Q271 400 263 396ZM264 -7Q31 18 31 260Q31 504 264 528Q271 528 271 537V633Q271 656 288 673T328 690H334Q357 690 374 673T391
633V534Q391 526 399 524L423 521Q448 517 463 499T479 455V445Q479 424 462 411T424 402Q420 403 416 403T407 404T399 405Q391 407 391 398V121Q391 114 399 114Q408 115 433 119Q454 124 470 111T487 77V67Q487 42 472 23T432 -1Q424 -3 400 -5Q391 -7 391 -14V-123Q391
-146 374 -163T334 -180H328Q305 -180 288 -163T271 -123V-16Q271 -7 264 -7Z" />
<glyph unicode="&#xa3;" glyph-name="sterling" horiz-adv-x="628" d="M122 0Q99 0 83 17T66 57V92Q66 124 107 151Q159 186 159 283V308Q159 317 151 317H138Q115 317 98 333T81 373T98 413T138 430H151Q159 430 159 439V525Q159 628 223 684T412 740Q457 740
493 733Q517 729 532 709T547 663V638Q547 618 531 606T494 599Q466 606 433 606Q373 606 350 585T326 511V439Q326 430 334 430H441Q464 430 481 413T498 373T481 334T441 317H334Q326 317 326 308V283Q326 229 309 192T261 140Q259 140 259 138Q259 137 260 137H506Q529
137 545 120T562 80V57Q562 34 546 17T506 0H122Z" />
<glyph unicode="&#xa4;" glyph-name="currency" horiz-adv-x="645" d="M370 480T323 480T242 446T208 365T241 284T322 250T404 284T438 365T404 446ZM68 191L108 231Q113 237 110 244Q78 302 78 365T110 486Q114 494 108 500L68 539Q51 556 51 580T67 620T108
636T148 620L188 580Q194 574 202 578Q259 610 322 610T444 578Q451 574 456 580L496 620Q513 636 537 636T577 620T594 580T578 539L538 500Q532 494 536 486Q568 428 568 365T536 244Q532 237 538 231L578 191Q594 174 594 150T578 110T537 94T496 110L456 150Q451
156 444 152Q386 120 323 120T202 152Q194 156 188 150L148 110Q132 94 108 94T68 110T51 150T68 191Z" />
<glyph unicode="&#xa5;" glyph-name="yen" horiz-adv-x="658" d="M185 388L30 680Q21 697 31 713T61 730H142Q168 730 189 716T220 678L330 418Q330 417 331 417T332 418L442 678Q452 702 473 716T520 730H597Q616 730 626 714T628 680L473 388Q471 386 473 383T478
380H552Q572 380 586 366T601 332T587 298T552 283H420Q418 283 417 282T416 278V225Q416 217 425 217H552Q572 217 586 203T601 168T587 134T552 120H425Q416 120 416 111V57Q416 34 400 17T360 0H298Q275 0 258 17T241 57V111Q241 120 233 120H106Q86 120 72
134T57 168T71 202T106 217H233Q241 217 241 225V278V282Q240 283 238 283H106Q86 283 72 297T57 332T71 366T106 380H180Q183 380 184 383T185 388Z" />
<glyph unicode="&#xa6;" glyph-name="brokenbar" horiz-adv-x="398" d="M182 -140Q159 -140 143 -123T126 -83V163Q126 186 142 203T182 220H216Q239 220 255 203T272 163V-83Q272 -106 256 -123T216 -140H182ZM182 370Q159 370 143 387T126 427V673Q126 696 142
713T182 730H216Q239 730 255 713T272 673V427Q272 404 256 387T216 370H182Z" />
<glyph unicode="&#xa7;" glyph-name="section" horiz-adv-x="572" d="M223 373Q189 349 189 308Q189 272 212 254T299 222Q323 218 335 215Q344 213 349 217Q383 241 383 282Q383 318 360 336T273 368Q249 372 237 375Q228 377 223 373ZM112 425Q51 468 51 556Q51
638 113 689T286 740Q361 740 436 722Q460 716 475 695T491 648V623Q491 603 474 593T438 588Q369 611 303 611Q256 611 232 596T208 556Q208 509 291 495Q412 475 465 429T518 305Q518 221 460 175Q454 169 460 165Q521 122 521 34Q521 -48 459 -99T286 -150Q211
-150 136 -132Q112 -126 97 -105T81 -58V-33Q81 -13 98 -3T134 2Q203 -21 269 -21Q316 -21 340 -6T364 34Q364 81 281 95Q160 115 107 161T54 285Q54 369 112 415Q118 421 112 425Z" />
<glyph unicode="&#xa8;" glyph-name="dieresis" horiz-adv-x="518" d="M352 603Q329 603 313 620T296 660V697Q296 720 312 736T352 753H386Q409 753 425 737T442 697V660Q442 637 426 620T386 603H352ZM132 603Q109 603 93 620T76 660V697Q76 720 92 736T132
753H166Q189 753 205 737T222 697V660Q222 637 206 620T166 603H132Z" />
<glyph unicode="&#xa9;" glyph-name="copyright" horiz-adv-x="808" d="M429 148Q326 148 267 204T208 365Q208 468 265 525T424 582Q459 582 499 577Q519 574 531 559T544 523Q544 506 531 496T500 490Q474 496 438 496Q385 496 356 463T326 365Q326 302 358
267T443 232Q475 232 507 239Q524 243 537 233T550 207Q550 187 538 172T507 153Q477 148 429 148ZM526 658T404 658T197 572T111 365T196 158T404 72T611 158T697 365T612 572ZM558 -8T404 -8T141 101T31 365T140 629T404 738T667 629T777 365T668 101Z" />
<glyph unicode="&#xaa;" glyph-name="ordfeminine" horiz-adv-x="642" d="M126 168Q107 168 94 181T81 213T94 245T126 259H516Q535 259 548 246T561 213T548 181T516 168H126ZM375 489V498Q375 506 366 506H339Q241 506 241 447Q241 425 254 413T288 400Q326
400 350 424T375 489ZM366 581Q375 581 375 590V592Q375 623 360 636T307 649Q264 649 192 634Q175 630 161 641T147 670Q147 691 159 707T192 727Q259 740 312 740Q416 740 460 703T504 577V373Q504 350 487 333T447 316H432Q412 316 398 330T382 364V370L381
371Q380 371 380 370Q332 308 249 308Q194 308 159 343T123 436Q123 581 339 581H366Z" />
<glyph unicode="&#xab;" glyph-name="guillemotleft" horiz-adv-x="732" d="M414 207Q370 237 370 290T414 373L599 498Q614 508 630 500T646 473V448Q646 391 598 361L489 292Q488 292 488 290T489 288L598 219Q646 189 646 132V107Q646 89 630 81T599 82L414
207ZM285 361L175 292V290V288L285 219Q333 189 333 132V107Q333 89 317 81T286 82L101 207Q56 238 56 290T101 373L286 498Q301 508 317 500T333 473V448Q333 391 285 361Z" />
<glyph unicode="&#xac;" glyph-name="logicalnot" horiz-adv-x="678" d="M107 352Q84 352 68 368T51 408V423Q51 446 67 463T107 480H541Q564 480 580 463T597 423V183Q597 160 581 144T541 127H509Q486 127 469 143T452 183V343Q452 352 444 352H107Z" />
<glyph unicode="&#xad;" glyph-name="uni00AD" horiz-adv-x="488" d="M127 222Q104 222 88 238T71 278V302Q71 325 87 341T127 358H361Q384 358 400 342T417 302V278Q417 255 401 239T361 222H127Z" />
<glyph unicode="&#xae;" glyph-name="registered" horiz-adv-x="808" d="M355 490V392Q355 384 363 384H390Q427 384 447 400T468 444Q468 501 392 501Q372 501 363 500Q355 498 355 490ZM322 153T299 153T260 169T243 209V517Q243 541 259 559T299 579Q363 583
398 583Q583 583 583 454Q583 417 559 386T497 341Q495 341 495 340L497 339Q529 322 549 271L575 206Q583 187 571 170T539 153H534Q509 153 488 168T458 207L437 266Q429 288 417 297T384 306H363Q355 306 355 297V209Q355 186 339 170ZM526 658T404 658T197
572T111 365T196 158T404 72T611 158T697 365T612 572ZM558 -8T404 -8T141 101T31 365T140 629T404 738T667 629T777 365T668 101Z" />
<glyph unicode="&#xaf;" glyph-name="overscore" horiz-adv-x="488" d="M107 610Q84 610 68 627T51 667T67 706T107 723H381Q404 723 420 707T437 667T421 627T381 610H107Z" />
<glyph unicode="&#xb0;" glyph-name="degree" horiz-adv-x="406" d="M229 637T203 637T159 618T140 573T158 529T203 510T247 528T266 573T248 618ZM272 407T203 407T85 455T36 573T85 691T203 740T321 691T370 573T321 456Z" />
<glyph unicode="&#xb1;" glyph-name="plusminus" horiz-adv-x="756" d="M138 -40Q115 -40 98 -23T81 17V32Q81 55 98 71T138 88H618Q641 88 658 72T675 32V17Q675 -6 658 -23T618 -40H138ZM138 329Q115 329 98 346T81 386V401Q81 424 98 441T138 458H301Q310 458
310 466V593Q310 616 326 633T366 650H390Q413 650 429 633T446 593V466Q446 458 455 458H618Q641 458 658 441T675 401V386Q675 363 658 346T618 329H455Q446 329 446 321V193Q446 170 430 154T390 137H366Q343 137 327 153T310 193V321Q310 329 301 329H138Z"
/>
<glyph unicode="&#xb2;" glyph-name="uni00B2" horiz-adv-x="395" d="M90 292Q72 292 60 304T47 335Q47 379 82 406Q179 483 209 520T239 595Q239 647 181 647Q153 647 102 631Q85 626 71 635T56 662Q56 684 68 702T102 724Q157 736 197 736Q270 736 309 702T349
606Q349 555 316 508T188 380L187 379L188 378H309Q327 378 339 366T352 335T340 305T309 292H90Z" />
<glyph unicode="&#xb3;" glyph-name="uni00B3" horiz-adv-x="395" d="M88 644Q70 644 58 656T45 687T57 717T88 730H298Q316 730 328 718T341 687Q341 645 307 617L224 551V550H231Q283 550 315 517T347 429Q347 359 305 323T181 286Q142 286 92 296Q72 300 60
316T48 354Q48 370 61 379T92 384Q134 371 171 371Q242 371 242 427Q242 455 222 466T140 479Q125 479 115 489T105 514Q105 551 132 573L214 642V643L213 644H88Z" />
<glyph unicode="&#xb4;" glyph-name="acute" horiz-adv-x="278" d="M64 590Q45 590 36 606T36 639L82 718Q95 741 118 754T167 767H247Q263 767 270 752T266 724L185 632Q147 590 91 590H64Z" />
<glyph unicode="&#xb5;" glyph-name="mu" horiz-adv-x="613" d="M122 -220Q99 -220 83 -203T66 -163V463Q66 486 82 503T122 520H164Q187 520 203 503T220 463V220Q220 158 235 137T289 115Q327 115 357 154T387 247V463Q387 486 404 503T444 520H491Q514 520
530 503T547 463V57Q547 34 531 17T491 0H456Q432 0 415 16T396 57V71Q396 72 395 72Q393 72 393 70Q369 33 333 12T260 -10Q241 -10 229 -6Q220 -4 220 -11V-163Q220 -186 204 -203T164 -220H122Z" />
<glyph unicode="&#xb6;" glyph-name="paragraph" horiz-adv-x="702" d="M247 270Q155 274 91 340T26 500Q26 595 93 662T256 730H570Q593 730 609 713T626 673V-83Q626 -106 610 -123T570 -140H545Q522 -140 505 -123T488 -83V600Q488 608 479 608H403Q395 608
395 600V-83Q395 -106 378 -123T338 -140H313Q290 -140 273 -123T256 -83V262Q256 270 247 270Z" />
<glyph unicode="&#xb7;" glyph-name="middot" horiz-adv-x="362" d="M143 195Q120 195 103 212T86 252V328Q86 351 103 368T143 385H219Q242 385 259 368T276 328V252Q276 229 259 212T219 195H143Z" />
<glyph unicode="&#xb8;" glyph-name="cedilla" horiz-adv-x="407" d="M94 -216Q70 -212 56 -193T41 -148Q41 -128 57 -117T94 -111Q120 -117 144 -117Q211 -117 211 -61Q211 -46 205 -32Q200 -21 205 -11T221 0H243Q272 0 296 -12T331 -48T341 -97Q341 -155 293
-187T151 -220Q119 -220 94 -216Z" />
<glyph unicode="&#xb9;" glyph-name="uni00B9" horiz-adv-x="395" d="M92 562Q78 551 62 559T46 586V592Q46 648 92 681L115 697Q162 730 217 730Q240 730 257 714T274 674V348Q274 325 257 309T217 292T178 308T161 348V611H160L92 562Z" />
<glyph unicode="&#xba;" glyph-name="ordmasculine" horiz-adv-x="642" d="M126 168Q107 168 94 181T81 213T94 245T126 259H516Q535 259 548 246T561 213T548 181T516 168H126ZM281 399T321 399T380 428T400 524T381 620T321 649T262 620T242 524T261 428ZM222
740T321 740T475 683T530 524T475 365T321 308T167 365T112 524T167 683Z" />
<glyph unicode="&#xbb;" glyph-name="guillemotright" horiz-adv-x="732" d="M318 373Q362 343 362 290T318 207L133 82Q118 72 102 80T86 107V132Q86 189 133 219L243 288Q244 288 244 290T243 292L133 361Q86 391 86 448V473Q86 491 102 499T133 498L318 373ZM446
82Q431 72 415 80T399 107V132Q399 189 447 219L556 288Q557 288 557 290T556 292L447 361Q399 391 399 448V473Q399 491 415 499T446 498L631 373Q676 342 676 290T631 207L446 82Z" />
<glyph unicode="&#xbc;" glyph-name="onequarter" horiz-adv-x="850" d="M642 166Q650 166 650 174V312V313L649 312L547 168V166H642ZM722 0T701 0T665 15T650 51V73Q650 82 642 82H496Q479 82 467 94T454 124Q454 166 479 200L620 396Q651 438 701 438Q722 438
737 423T752 387V174Q752 166 760 166H773Q790 166 802 154T815 124T803 95T773 82H760Q752 82 752 74V51Q752 30 737 15ZM695 730Q713 730 721 714T720 683L285 47Q253 0 197 0H192Q174 0 166 16T167 47L601 683Q633 730 690 730H695ZM81 562Q67 551 51 559T35
586V592Q35 647 82 681L105 697Q152 730 207 730Q230 730 246 714T263 674V348Q263 325 247 309T207 292T168 308T151 348V611H150L81 562Z" />
<glyph unicode="&#xbd;" glyph-name="onehalf" horiz-adv-x="850" d="M807 314Q807 263 774 216T646 88Q645 88 645 87L646 86H767Q785 86 797 74T810 43T798 13T767 0H548Q530 0 518 12T505 43Q505 88 539 114Q636 191 666 229T697 303Q697 355 639 355Q610 355
559 339Q542 334 528 343T514 370Q514 392 526 410T560 432Q615 444 655 444Q728 444 767 410T807 314ZM648 730Q666 730 674 714T673 683L239 47Q207 0 150 0H145Q127 0 119 16T120 47L555 683Q587 730 643 730H648ZM81 562Q67 551 51 559T35 586V592Q35 647 82
681L105 697Q152 730 207 730Q230 730 246 714T263 674V348Q263 325 247 309T207 292T168 308T151 348V611H150L81 562Z" />
<glyph unicode="&#xbe;" glyph-name="threequarters" horiz-adv-x="850" d="M642 166Q650 166 650 174V312V313L649 312L547 168V166H642ZM722 0T701 0T665 15T650 51V73Q650 82 642 82H496Q479 82 467 94T454 124Q454 166 479 200L620 396Q651 438 701 438Q722
438 737 423T752 387V174Q752 166 760 166H773Q790 166 802 154T815 124T803 95T773 82H760Q752 82 752 74V51Q752 30 737 15ZM708 730Q726 730 734 714T733 683L299 47Q267 0 210 0H205Q187 0 179 16T180 47L615 683Q647 730 703 730H708ZM95 644Q77 644 65 656T52
687T64 717T95 730H305Q323 730 335 718T348 687Q348 645 314 617L231 551V550H232H239Q291 550 322 517T354 429Q354 359 312 323T188 286Q149 286 99 296Q79 300 67 316T55 354Q55 370 69 379T100 384Q142 371 178 371Q249 371 249 427Q249 455 229 466T147 479Q132
479 122 489T112 514Q112 551 139 573L221 642V643V644H95Z" />
<glyph unicode="&#xbf;" glyph-name="questiondown" horiz-adv-x="625" d="M336 520H396Q419 520 435 503T452 463V427Q452 404 436 387T396 370H336Q313 370 296 387T279 427V463Q279 486 296 503T336 520ZM317 -230Q194 -230 125 -181T56 -53Q56 -16 65 13T97
68T134 105T181 142Q206 160 218 170T247 198T273 234Q299 288 344 288H387Q411 288 427 271T437 231Q428 196 405 164T364 115T312 72Q284 50 272 39T247 8T234 -30Q234 -96 342 -96Q420 -96 515 -72Q535 -67 552 -79T569 -113V-143Q569 -168 554 -187T514 -211Q411
-230 317 -230Z" />
<glyph unicode="&#xc0;" glyph-name="Agrave" horiz-adv-x="664" d="M256 295Q255 292 257 290T263 287H397Q400 287 402 289T404 295L331 582Q331 583 330 583T329 582L256 295ZM62 0Q41 0 29 17T23 54L225 676Q233 700 253 715T299 730H365Q391 730 412 715T440
676L641 54Q648 34 636 17T602 0H535Q510 0 490 15T464 55L440 150Q439 158 430 158H230Q222 158 220 150L196 55Q190 31 170 16T125 0H62ZM279 967Q305 967 328 954T364 918L410 839Q420 822 411 806T382 790H355Q299 790 261 832L180 924Q169 936 176 951T199
967H279Z" />
<glyph unicode="&#xc1;" glyph-name="Aacute" horiz-adv-x="664" d="M256 295Q255 292 257 290T263 287H397Q400 287 402 289T404 295L331 582Q331 583 330 583T329 582L256 295ZM62 0Q41 0 29 17T23 54L225 676Q233 700 253 715T299 730H365Q391 730 412 715T440
676L641 54Q648 34 636 17T602 0H535Q510 0 490 15T464 55L440 150Q439 158 430 158H230Q222 158 220 150L196 55Q190 31 170 16T125 0H62ZM465 967Q482 967 488 952T484 924L403 832Q366 790 309 790H282Q263 790 254 806T254 839L300 918Q314 941 336 954T385
967H465Z" />
<glyph unicode="&#xc2;" glyph-name="Acircumflex" horiz-adv-x="664" d="M256 295Q255 292 257 290T263 287H397Q400 287 402 289T404 295L331 582Q331 583 330 583T329 582L256 295ZM62 0Q41 0 29 17T23 54L225 676Q233 700 253 715T299 730H365Q391 730 412
715T440 676L641 54Q648 34 636 17T602 0H535Q510 0 490 15T464 55L440 150Q439 158 430 158H230Q222 158 220 150L196 55Q190 31 170 16T125 0H62ZM380 967Q406 967 430 955T469 920L528 836Q539 821 531 806T504 790H456Q430 790 408 803T372 839L333 907Q333
908 332 908Q330 908 330 907L292 839Q279 816 257 803T208 790H160Q142 790 134 805T136 836L195 920Q210 942 234 954T284 967H380Z" />
<glyph unicode="&#xc3;" glyph-name="Atilde" horiz-adv-x="664" d="M256 295Q255 292 257 290T263 287H397Q400 287 402 289T404 295L331 582Q331 583 330 583T329 582L256 295ZM62 0Q41 0 29 17T23 54L225 676Q233 700 253 715T299 730H365Q391 730 412 715T440
676L641 54Q648 34 636 17T602 0H535Q510 0 490 15T464 55L440 150Q439 158 430 158H230Q222 158 220 150L196 55Q190 31 170 16T125 0H62ZM480 960H487Q511 960 527 943T541 903Q527 785 440 785Q386 785 314 830Q276 854 258 854Q246 854 241 841Q233 817 217
801T179 785H177Q154 785 138 802T123 842Q137 970 224 970Q279 970 350 925Q389 901 406 901Q417 901 422 909Q432 925 438 933T455 951T480 960Z" />
<glyph unicode="&#xc4;" glyph-name="Adieresis" horiz-adv-x="664" d="M256 295Q255 292 257 290T263 287H397Q400 287 402 289T404 295L331 582Q331 583 330 583T329 582L256 295ZM62 0Q41 0 29 17T23 54L225 676Q233 700 253 715T299 730H365Q391 730 412 715T440
676L641 54Q648 34 636 17T602 0H535Q510 0 490 15T464 55L440 150Q439 158 430 158H230Q222 158 220 150L196 55Q190 31 170 16T125 0H62ZM459 953Q482 953 498 937T515 897V860Q515 837 499 820T459 803H425Q402 803 386 820T369 860V897Q369 920 385 936T425
953H459ZM205 953H239Q262 953 278 937T295 897V860Q295 837 279 820T239 803H205Q182 803 166 820T149 860V897Q149 920 165 936T205 953Z" />
<glyph unicode="&#xc5;" glyph-name="Aring" horiz-adv-x="664" d="M256 295Q255 292 257 290T263 287H397Q400 287 402 289T404 295L331 582Q331 583 330 583T329 582L256 295ZM62 0Q41 0 29 17T23 54L225 676Q233 700 253 715T299 730H365Q391 730 412 715T440
676L641 54Q648 34 636 17T602 0H535Q510 0 490 15T464 55L440 150Q439 158 430 158H230Q222 158 220 150L196 55Q190 31 170 16T125 0H62ZM303 835T332 835T381 855T402 905T382 954T332 975T283 955T262 905T282 856ZM273 1048T332 1048T433 1006T475 905T433
804T332 762T231 804T189 905T231 1006Z" />
<glyph unicode="&#xc6;" glyph-name="AE" horiz-adv-x="839" d="M255 295Q255 292 256 290T261 287H351Q359 287 359 295V585Q359 593 351 593H347Q338 593 336 585L255 295ZM61 0Q40 0 28 17T23 54L233 676Q242 700 262 715T308 730H716Q740 730 756 713T773
673V650Q773 627 757 610T716 593H530Q521 593 521 585V453Q521 444 530 444H696Q720 444 736 427T753 387V372Q753 349 737 332T696 315H530Q521 315 521 307V145Q521 137 530 137H716Q740 137 756 120T773 80V57Q773 34 757 17T716 0H416Q393 0 376 17T359 57V149Q359
158 351 158H225Q217 158 215 150L188 55Q182 31 162 16T116 0H61Z" />
<glyph unicode="&#xc7;" glyph-name="Ccedilla" horiz-adv-x="646" d="M311 -5Q179 16 105 110T31 365Q31 543 122 641T376 740Q454 740 512 729Q536 725 551 705T566 660V628Q566 607 549 595T512 588Q455 603 396 603Q306 603 256 542T205 365Q205 251 259 188T403
125Q463 125 520 140Q540 145 557 133T575 100V70Q575 45 560 25T520 1Q486 -5 448 -8Q440 -8 445 -16Q474 -55 474 -97Q474 -155 426 -187T284 -220Q252 -220 227 -216Q203 -212 189 -193T174 -148Q174 -128 190 -117T227 -111Q252 -117 277 -117Q344 -117 344
-61Q344 -32 325 -12Q320 -7 311 -5Z" />
<glyph unicode="&#xc8;" glyph-name="Egrave" horiz-adv-x="608" d="M286 967Q342 967 371 918L417 839Q427 822 418 806T389 790H362Q305 790 268 832L187 924Q176 936 182 951T206 967H286ZM132 0Q109 0 93 17T76 57V673Q76 696 92 713T132 730H486Q509 730
525 713T542 673V650Q542 627 526 610T486 593H254Q246 593 246 585V453Q246 444 254 444H466Q489 444 505 427T522 387V372Q522 349 506 332T466 315H254Q246 315 246 307V145Q246 137 254 137H486Q509 137 525 120T542 80V57Q542 34 526 17T486 0H132Z" />
<glyph unicode="&#xc9;" glyph-name="Eacute" horiz-adv-x="608" d="M332 967H412Q429 967 435 952T431 924L350 832Q313 790 256 790H229Q210 790 201 806T201 839L247 918Q276 967 332 967ZM132 0Q109 0 93 17T76 57V673Q76 696 92 713T132 730H486Q509 730
525 713T542 673V650Q542 627 526 610T486 593H254Q246 593 246 585V453Q246 444 254 444H466Q489 444 505 427T522 387V372Q522 349 506 332T466 315H254Q246 315 246 307V145Q246 137 254 137H486Q509 137 525 120T542 80V57Q542 34 526 17T486 0H132Z" />
<glyph unicode="&#xca;" glyph-name="Ecircumflex" horiz-adv-x="608" d="M357 967Q414 967 446 920L505 836Q515 821 507 806T481 790H433Q377 790 349 839L310 907Q310 908 309 908Q307 908 307 907L269 839Q241 790 185 790H137Q119 790 111 805T113 836L172
920Q204 967 261 967H357ZM132 0Q109 0 93 17T76 57V673Q76 696 92 713T132 730H486Q509 730 525 713T542 673V650Q542 627 526 610T486 593H254Q246 593 246 585V453Q246 444 254 444H466Q489 444 505 427T522 387V372Q522 349 506 332T466 315H254Q246 315 246
307V145Q246 137 254 137H486Q509 137 525 120T542 80V57Q542 34 526 17T486 0H132Z" />
<glyph unicode="&#xcb;" glyph-name="Edieresis" horiz-adv-x="608" d="M436 953Q459 953 475 937T492 897V860Q492 837 476 820T436 803H402Q379 803 363 820T346 860V897Q346 920 362 936T402 953H436ZM182 953H216Q239 953 255 937T272 897V860Q272 837 256
820T216 803H182Q159 803 143 820T126 860V897Q126 920 142 936T182 953ZM132 0Q109 0 93 17T76 57V673Q76 696 92 713T132 730H486Q509 730 525 713T542 673V650Q542 627 526 610T486 593H254Q246 593 246 585V453Q246 444 254 444H466Q489 444 505 427T522 387V372Q522
349 506 332T466 315H254Q246 315 246 307V145Q246 137 254 137H486Q509 137 525 120T542 80V57Q542 34 526 17T486 0H132Z" />
<glyph unicode="&#xcc;" glyph-name="Igrave" horiz-adv-x="338" d="M70 832L-12 924Q-24 936 -17 951T7 967H87Q113 967 136 954T173 918L219 839Q228 822 219 806T191 790H164Q107 790 70 832ZM117 730H191Q214 730 230 713T247 673V57Q247 34 231 17T191 0H117Q94
0 78 17T61 57V673Q61 696 77 713T117 730Z" />
<glyph unicode="&#xcd;" glyph-name="Iacute" horiz-adv-x="338" d="M331 967Q348 967 354 952T350 924L268 832Q231 790 174 790H147Q128 790 119 806T119 839L165 918Q194 967 251 967H331ZM147 0Q124 0 108 17T91 57V673Q91 696 107 713T147 730H221Q244 730
260 713T277 673V57Q277 34 261 17T221 0H147Z" />
<glyph unicode="&#xce;" glyph-name="Icircumflex" horiz-adv-x="315" d="M-14 790Q-32 790 -40 805T-38 836L21 920Q36 942 59 954T110 967H206Q232 967 256 955T295 920L354 836Q364 821 356 806T330 790H282Q255 790 233 803T198 839L159 907Q159 908 158 908T157
907L118 839Q105 816 83 803T34 790H-14ZM121 730H195Q218 730 234 713T251 673V57Q251 34 235 17T195 0H121Q97 0 81 17T65 57V673Q65 696 81 713T121 730Z" />
<glyph unicode="&#xcf;" glyph-name="Idieresis" horiz-adv-x="368" d="M277 953H311Q334 953 350 937T367 897V860Q367 837 351 820T311 803H277Q254 803 238 820T221 860V897Q221 920 237 936T277 953ZM57 803Q34 803 18 820T1 860V897Q1 920 17 936T57 953H91Q114
953 130 937T147 897V860Q147 837 131 820T91 803H57ZM91 673Q91 696 107 713T147 730H221Q244 730 260 713T277 673V57Q277 34 261 17T221 0H147Q124 0 108 17T91 57V673Z" />
<glyph unicode="&#xd0;" glyph-name="Eth" horiz-adv-x="744" d="M297 300V138Q297 129 305 127Q325 123 353 123Q454 123 503 182T552 375Q552 495 503 551T353 607Q325 607 305 603Q297 601 297 592V446Q297 437 305 437H379Q402 437 419 421T436 381V365Q436
342 419 326T379 309H305Q297 309 297 300ZM83 309Q60 309 43 325T26 365V381Q26 404 43 420T83 437H122Q130 437 130 446V668Q130 693 146 711T187 732Q265 740 340 740Q519 740 616 645T713 375Q713 185 616 88T340 -10Q265 -10 187 -2Q163 0 147 18T130 62V300Q130
309 122 309H83Z" />
<glyph unicode="&#xd1;" glyph-name="Ntilde" horiz-adv-x="716" d="M133 0Q110 0 93 17T76 57V673Q76 696 93 713T133 730H182Q239 730 265 680L475 283Q475 282 476 282T477 283V673Q477 696 494 713T534 730H583Q606 730 623 713T640 673V57Q640 34 623 17T583
0H534Q477 0 451 50L241 447Q241 448 240 448T239 447V57Q239 34 222 17T182 0H133ZM506 960H513Q537 960 553 943T567 903Q553 785 466 785Q412 785 340 830Q301 854 284 854Q272 854 267 841Q248 785 205 785H203Q180 785 164 802T149 842Q163 970 250 970Q305
970 376 925Q415 901 432 901Q443 901 448 909Q457 925 463 933T481 951T506 960Z" />
<glyph unicode="&#xd2;" glyph-name="Ograve" horiz-adv-x="746" d="M541 600T373 600T205 365T373 130T541 365ZM531 -10T373 -10T123 89T31 365T123 640T373 740T623 641T715 365T623 90ZM320 967Q376 967 405 918L451 839Q461 822 452 806T423 790H396Q339
790 302 832L221 924Q210 936 216 951T240 967H320Z" />
<glyph unicode="&#xd3;" glyph-name="Oacute" horiz-adv-x="746" d="M541 600T373 600T205 365T373 130T541 365ZM531 -10T373 -10T123 89T31 365T123 640T373 740T623 641T715 365T623 90ZM426 967H506Q523 967 529 952T525 924L444 832Q407 790 350 790H323Q304
790 295 806T295 839L341 918Q370 967 426 967Z" />
<glyph unicode="&#xd4;" glyph-name="Ocircumflex" horiz-adv-x="746" d="M541 600T373 600T205 365T373 130T541 365ZM531 -10T373 -10T123 89T31 365T123 640T373 740T623 641T715 365T623 90ZM421 967Q478 967 510 920L569 836Q579 821 571 806T545 790H497Q441
790 413 839L374 907Q374 908 373 908T372 907L333 839Q305 790 249 790H201Q183 790 175 805T177 836L236 920Q268 967 325 967H421Z" />
<glyph unicode="&#xd5;" glyph-name="Otilde" horiz-adv-x="746" d="M541 600T373 600T205 365T373 130T541 365ZM531 -10T373 -10T123 89T31 365T123 640T373 740T623 641T715 365T623 90ZM521 960H528Q552 960 568 943T582 903Q568 785 481 785Q427 785 355
830Q316 854 299 854Q287 854 282 841Q261 785 220 785H218Q195 785 179 802T164 842Q178 970 265 970Q320 970 391 925Q430 901 447 901Q458 901 463 909Q472 925 478 933T496 951T521 960Z" />
<glyph unicode="&#xd6;" glyph-name="Odieresis" horiz-adv-x="746" d="M541 600T373 600T205 365T373 130T541 365ZM531 -10T373 -10T123 89T31 365T123 640T373 740T623 641T715 365T623 90ZM466 953H500Q523 953 539 937T556 897V860Q556 837 540 820T500 803H466Q443
803 427 820T410 860V897Q410 920 426 936T466 953ZM246 953H280Q303 953 319 937T336 897V860Q336 837 320 820T280 803H246Q223 803 207 820T190 860V897Q190 920 206 936T246 953Z" />
<glyph unicode="&#xd7;" glyph-name="multiply" horiz-adv-x="595" d="M52 148L188 284Q194 290 188 296L52 432Q36 448 36 472T52 512L76 535Q92 552 115 552T156 535L292 399Q298 393 304 399L440 535Q456 552 479 552T520 535L542 512Q559 496 559 472T542
432L406 296Q400 290 406 284L542 148Q559 132 559 108T542 68L520 45Q503 28 480 28T440 45L304 181Q298 187 292 181L156 45Q139 28 116 28T76 45L52 68Q36 84 36 108T52 148Z" />
<glyph unicode="&#xd8;" glyph-name="Oslash" horiz-adv-x="756" d="M378 600Q210 600 210 365Q210 310 219 270Q222 262 226 268L437 582Q442 590 434 592Q407 600 378 600ZM530 462L319 148Q314 140 322 138Q349 130 378 130Q546 130 546 365Q546 420 537 460Q534
468 530 462ZM111 97Q116 104 111 110Q36 208 36 365Q36 541 128 640T378 740Q454 740 516 716Q524 713 529 720L538 733Q551 752 574 757T617 749L643 731Q662 718 666 695T658 652L645 633Q640 626 645 620Q720 522 720 365Q720 189 628 90T378 -10Q302 -10 240
14Q232 17 227 10L218 -3Q205 -22 182 -27T139 -19L113 -1Q94 12 90 35T98 78L111 97Z" />
<glyph unicode="&#xd9;" glyph-name="Ugrave" horiz-adv-x="692" d="M626 -10T346 -10T66 265V673Q66 696 83 713T123 730H181Q204 730 221 713T238 673V253Q238 185 264 156T348 127T432 156T458 253V673Q458 696 475 713T515 730H569Q592 730 609 713T626 673V265Q626
-10 346 -10ZM323 967Q379 967 408 918L454 839Q464 822 455 806T426 790H399Q342 790 305 832L224 924Q213 936 219 951T243 967H323Z" />
<glyph unicode="&#xda;" glyph-name="Uacute" horiz-adv-x="692" d="M626 -10T346 -10T66 265V673Q66 696 83 713T123 730H181Q204 730 221 713T238 673V253Q238 185 264 156T348 127T432 156T458 253V673Q458 696 475 713T515 730H569Q592 730 609 713T626 673V265Q626
-10 346 -10ZM369 967H449Q466 967 472 952T468 924L387 832Q350 790 293 790H266Q247 790 238 806T238 839L284 918Q313 967 369 967Z" />
<glyph unicode="&#xdb;" glyph-name="Ucircumflex" horiz-adv-x="692" d="M626 -10T346 -10T66 265V673Q66 696 83 713T123 730H181Q204 730 221 713T238 673V253Q238 185 264 156T348 127T432 156T458 253V673Q458 696 475 713T515 730H569Q592 730 609 713T626
673V265Q626 -10 346 -10ZM483 920L542 836Q552 821 544 806T518 790H470Q414 790 386 839L347 907Q347 908 346 908T345 907L306 839Q278 790 222 790H174Q156 790 148 805T150 836L209 920Q241 967 298 967H394Q451 967 483 920Z" />
<glyph unicode="&#xdc;" glyph-name="Udieresis" horiz-adv-x="692" d="M626 -10T346 -10T66 265V673Q66 696 83 713T123 730H181Q204 730 221 713T238 673V253Q238 185 264 156T348 127T432 156T458 253V673Q458 696 475 713T515 730H569Q592 730 609 713T626
673V265Q626 -10 346 -10ZM439 953H473Q496 953 512 937T529 897V860Q529 837 513 820T473 803H439Q416 803 400 820T383 860V897Q383 920 399 936T439 953ZM219 953H253Q276 953 292 937T309 897V860Q309 837 293 820T253 803H219Q196 803 180 820T163 860V897Q163
920 179 936T219 953Z" />
<glyph unicode="&#xdd;" glyph-name="Yacute" horiz-adv-x="648" d="M233 288L25 680Q16 697 26 713T56 730H137Q163 730 184 716T215 678L325 418Q325 417 326 417T327 418L437 678Q447 702 468 716T515 730H592Q611 730 621 714T623 680L415 288Q412 283 412
271V57Q412 34 395 17T355 0H293Q270 0 253 17T236 57V271Q236 283 233 288ZM347 967H427Q443 967 450 952T446 924L365 832Q328 790 271 790H244Q225 790 216 806T216 839L262 918Q276 941 298 954T347 967Z" />
<glyph unicode="&#xde;" glyph-name="Thorn" horiz-adv-x="652" d="M243 491V274Q243 266 252 264Q286 260 306 260Q378 260 417 293T457 387Q457 506 306 506Q281 506 251 501Q243 499 243 491ZM133 0Q110 0 93 17T76 57V673Q76 696 93 713T133 730H186Q209 730
226 713T243 673V642Q243 634 251 634Q266 635 296 635Q616 635 616 397Q616 268 542 202T323 135Q285 135 252 138Q243 138 243 130V57Q243 34 226 17T186 0H133Z" />
<glyph unicode="&#xdf;" glyph-name="germandbls" horiz-adv-x="626" d="M128 0Q105 0 88 17T71 57V526Q71 647 130 703T321 760Q439 760 504 716T570 598Q570 561 545 515T494 431T468 382T488 344T531 289T575 221T595 148Q595 -10 397 -10Q381 -10 339 -6Q314
-3 299 15T283 59V78Q283 99 300 112T339 123Q351 121 372 121Q430 121 430 177Q430 208 370 279T310 382Q310 410 363 483T416 582Q416 631 330 631Q277 631 258 610T238 530V57Q238 34 221 17T181 0H128Z" />
<glyph unicode="&#xe0;" glyph-name="agrave" horiz-adv-x="579" d="M311 238Q189 238 189 163Q189 136 205 121T248 105Q296 105 326 135T356 217V229Q356 238 347 238H311ZM199 -10Q130 -10 86 34T41 150Q41 332 311 332H347Q356 332 356 340V345Q356 383 337
400T271 417Q210 417 125 398Q104 394 88 407T71 441V443Q71 468 86 488T126 513Q214 530 278 530Q409 530 463 483T518 327V57Q518 34 501 17T461 0H424Q400 0 383 16T365 57V68Q365 69 364 69Q362 69 362 68Q299 -10 199 -10ZM238 767Q294 767 323 718L369 639Q379
622 370 606T341 590H314Q257 590 220 632L139 724Q128 736 134 751T158 767H238Z" />
<glyph unicode="&#xe1;" glyph-name="aacute" horiz-adv-x="579" d="M311 238Q189 238 189 163Q189 136 205 121T248 105Q296 105 326 135T356 217V229Q356 238 347 238H311ZM199 -10Q130 -10 86 34T41 150Q41 332 311 332H347Q356 332 356 340V345Q356 383 337
400T271 417Q210 417 125 398Q104 394 88 407T71 441V443Q71 468 86 488T126 513Q214 530 278 530Q409 530 463 483T518 327V57Q518 34 501 17T461 0H424Q400 0 383 16T365 57V68Q365 69 364 69Q362 69 362 68Q299 -10 199 -10ZM424 767Q441 767 447 752T443 724L362
632Q325 590 268 590H241Q222 590 213 606T213 639L259 718Q288 767 344 767H424Z" />
<glyph unicode="&#xe2;" glyph-name="acircumflex" horiz-adv-x="579" d="M311 238Q189 238 189 163Q189 136 205 121T248 105Q296 105 326 135T356 217V229Q356 238 347 238H311ZM199 -10Q130 -10 86 34T41 150Q41 332 311 332H347Q356 332 356 340V345Q356 383
337 400T271 417Q210 417 125 398Q104 394 88 407T71 441V443Q71 468 86 488T126 513Q214 530 278 530Q409 530 463 483T518 327V57Q518 34 501 17T461 0H424Q400 0 383 16T365 57V68Q365 69 364 69Q362 69 362 68Q299 -10 199 -10ZM339 767Q396 767 428 720L487
636Q497 621 489 606T463 590H415Q359 590 331 639L292 707Q292 708 291 708Q289 708 289 707L251 639Q223 590 167 590H119Q101 590 93 605T95 636L154 720Q186 767 243 767H339Z" />
<glyph unicode="&#xe3;" glyph-name="atilde" horiz-adv-x="579" d="M311 238Q189 238 189 163Q189 136 205 121T248 105Q296 105 326 135T356 217V229Q356 238 347 238H311ZM199 -10Q130 -10 86 34T41 150Q41 332 311 332H347Q356 332 356 340V345Q356 383 337
400T271 417Q210 417 125 398Q104 394 88 407T71 441V443Q71 468 86 488T126 513Q214 530 278 530Q409 530 463 483T518 327V57Q518 34 501 17T461 0H424Q400 0 383 16T365 57V68Q365 69 364 69T362 68Q299 -10 199 -10ZM446 750Q470 750 486 733T500 693Q486 575
399 575Q345 575 273 620Q234 644 217 644Q205 644 200 631Q181 575 138 575H136Q113 575 97 592T82 632Q96 760 183 760Q238 760 309 715Q348 691 365 691Q376 691 381 699Q390 715 396 723T414 741T439 750H446Z" />
<glyph unicode="&#xe4;" glyph-name="adieresis" horiz-adv-x="579" d="M311 238Q189 238 189 163Q189 136 205 121T248 105Q296 105 326 135T356 217V229Q356 238 347 238H311ZM199 -10Q130 -10 86 34T41 150Q41 332 311 332H347Q356 332 356 340V345Q356 383
337 400T271 417Q210 417 125 398Q104 394 88 407T71 441V443Q71 468 86 488T126 513Q214 530 278 530Q409 530 463 483T518 327V57Q518 34 501 17T461 0H424Q400 0 383 16T365 57V68Q365 69 364 69T362 68Q299 -10 199 -10ZM384 753H418Q441 753 457 737T474 697V660Q474
637 458 620T418 603H384Q361 603 345 620T328 660V697Q328 720 344 736T384 753ZM164 753H198Q221 753 237 737T254 697V660Q254 637 238 620T198 603H164Q141 603 125 620T108 660V697Q108 720 124 736T164 753Z" />
<glyph unicode="&#xe5;" glyph-name="aring" horiz-adv-x="579" d="M311 238Q189 238 189 163Q189 136 205 121T248 105Q296 105 326 135T356 217V229Q356 238 347 238H311ZM199 -10Q130 -10 86 34T41 150Q41 332 311 332H347Q356 332 356 340V345Q356 383 337
400T271 417Q210 417 125 398Q104 394 88 407T71 441V443Q71 468 86 488T126 513Q214 530 278 530Q409 530 463 483T518 327V57Q518 34 501 17T461 0H424Q400 0 383 16T365 57V68Q365 69 364 69T362 68Q299 -10 199 -10ZM262 625T291 625T340 645T361 695T341 744T291
765T242 745T221 695T241 646ZM232 838T291 838T392 796T434 695T392 594T291 552T190 594T148 695T190 796Z" />
<glyph unicode="&#xe6;" glyph-name="ae" horiz-adv-x="889" d="M311 238Q189 238 189 163Q189 136 206 121T255 105Q299 105 327 136T356 217V229Q356 238 348 238H311ZM615 421Q570 421 547 397T517 317Q517 309 525 309H693Q702 309 702 318Q698 421 615 421ZM229
-10Q141 -10 91 33T41 150Q41 332 311 332H348Q356 332 356 340V345Q356 383 337 400T271 417Q212 417 126 398Q105 393 88 406T71 441V443Q71 468 86 488T126 513Q214 530 278 530Q391 530 447 493Q454 488 462 493Q522 530 611 530Q849 530 853 270Q853 246 835
230T793 213H525Q516 213 518 204Q526 149 560 126T663 102Q708 102 760 115Q781 120 797 107T814 73V71Q814 46 799 26T759 1Q701 -10 639 -10Q504 -10 431 58Q425 64 419 58Q346 -10 229 -10Z" />
<glyph unicode="&#xe7;" glyph-name="ccedilla" horiz-adv-x="522" d="M240 -6Q138 8 85 75T31 260Q31 391 97 460T288 530Q329 530 397 521Q422 517 437 499T453 455V445Q453 424 436 411T398 402Q357 409 313 409Q256 409 229 374T201 260Q201 180 230 146T323
111Q370 111 407 119Q428 124 444 111T461 77V67Q461 42 446 23T406 -1Q397 -3 375 -5Q372 -5 371 -7T370 -12Q402 -54 402 -97Q402 -155 354 -187T212 -220Q180 -220 155 -216Q131 -212 117 -193T102 -148Q102 -128 118 -117T155 -111Q180 -117 205 -117Q272 -117
272 -61Q272 -34 254 -13Q250 -8 240 -6Z" />
<glyph unicode="&#xe8;" glyph-name="egrave" horiz-adv-x="564" d="M289 421Q244 421 221 398T192 317Q192 309 199 309H368Q377 309 377 318Q373 421 289 421ZM314 -10Q178 -10 105 59T31 260Q31 391 96 460T286 530Q524 530 528 270Q528 246 510 230T467 213H200Q190
213 192 204Q200 149 234 126T338 102Q383 102 435 115Q456 120 472 107T489 73V71Q489 46 474 26T434 1Q376 -10 314 -10ZM263 767Q319 767 348 718L394 639Q404 622 395 606T366 590H339Q282 590 245 632L164 724Q153 736 159 751T183 767H263Z" />
<glyph unicode="&#xe9;" glyph-name="eacute" horiz-adv-x="564" d="M289 421Q244 421 221 398T192 317Q192 309 199 309H368Q377 309 377 318Q373 421 289 421ZM314 -10Q178 -10 105 59T31 260Q31 391 96 460T286 530Q524 530 528 270Q528 246 510 230T467 213H200Q190
213 192 204Q200 149 234 126T338 102Q383 102 435 115Q456 120 472 107T489 73V71Q489 46 474 26T434 1Q376 -10 314 -10ZM309 767H389Q406 767 412 752T408 724L327 632Q290 590 233 590H206Q187 590 178 606T178 639L224 718Q253 767 309 767Z" />
<glyph unicode="&#xea;" glyph-name="ecircumflex" horiz-adv-x="564" d="M289 421Q244 421 221 398T192 317Q192 309 199 309H368Q377 309 377 318Q373 421 289 421ZM314 -10Q178 -10 105 59T31 260Q31 391 96 460T286 530Q524 530 528 270Q528 246 510 230T467
213H200Q190 213 192 204Q200 149 234 126T338 102Q383 102 435 115Q456 120 472 107T489 73V71Q489 46 474 26T434 1Q376 -10 314 -10ZM334 767Q391 767 423 720L482 636Q492 621 484 606T458 590H410Q354 590 326 639L287 707Q287 708 286 708Q284 708 284 707L246
639Q218 590 162 590H114Q96 590 88 605T90 636L149 720Q181 767 238 767H334Z" />
<glyph unicode="&#xeb;" glyph-name="edieresis" horiz-adv-x="564" d="M289 421Q244 421 221 398T192 317Q192 309 199 309H368Q377 309 377 318Q373 421 289 421ZM314 -10Q178 -10 105 59T31 260Q31 391 96 460T286 530Q524 530 528 270Q528 246 510 230T467
213H200Q190 213 192 204Q200 149 234 126T338 102Q383 102 435 115Q456 120 472 107T489 73V71Q489 46 474 26T434 1Q376 -10 314 -10ZM413 753Q436 753 452 737T469 697V660Q469 637 453 620T413 603H379Q356 603 340 620T323 660V697Q323 720 339 736T379 753H413ZM159
753H193Q216 753 232 737T249 697V660Q249 637 233 620T193 603H159Q136 603 120 620T103 660V697Q103 720 119 736T159 753Z" />
<glyph unicode="&#xec;" glyph-name="igrave" horiz-adv-x="323" d="M54 632L-28 724Q-40 736 -33 751T-9 767H71Q97 767 120 754T157 718L203 639Q212 622 203 606T175 590H148Q91 590 54 632ZM175 520Q198 520 215 503T232 463V57Q232 34 215 17T175 0H119Q95
0 79 17T62 57V463Q62 486 78 503T119 520H175Z" />
<glyph unicode="&#xed;" glyph-name="iacute" horiz-adv-x="323" d="M332 767Q349 767 355 752T351 724L269 632Q232 590 175 590H148Q129 590 120 606T120 639L166 718Q195 767 252 767H332ZM148 0Q125 0 108 17T91 57V463Q91 486 108 503T148 520H204Q227 520
244 503T261 463V57Q261 34 244 17T204 0H148Z" />
<glyph unicode="&#xee;" glyph-name="icircumflex" horiz-adv-x="297" d="M-23 590Q-41 590 -49 605T-47 636L12 720Q27 742 50 754T101 767H197Q223 767 247 755T286 720L345 636Q355 621 347 606T321 590H273Q246 590 224 603T189 639L150 707Q150 708 149 708T148
707L109 639Q96 616 74 603T25 590H-23ZM121 520H177Q200 520 217 503T234 463V57Q234 34 217 17T177 0H121Q97 0 81 17T64 57V463Q64 486 80 503T121 520Z" />
<glyph unicode="&#xef;" glyph-name="idieresis" horiz-adv-x="350" d="M268 753H302Q325 753 341 737T358 697V660Q358 637 342 620T302 603H268Q245 603 229 620T212 660V697Q212 720 228 736T268 753ZM48 603Q25 603 9 620T-8 660V697Q-8 720 8 736T48 753H82Q105
753 121 737T138 697V660Q138 637 122 620T82 603H48ZM90 463Q90 486 107 503T147 520H203Q226 520 243 503T260 463V57Q260 34 243 17T203 0H147Q124 0 107 17T90 57V463Z" />
<glyph unicode="&#xf0;" glyph-name="eth" horiz-adv-x="593" d="M297 411Q194 411 194 260Q194 107 297 107Q399 107 399 260Q399 411 297 411ZM418 -10T297 -10T106 62T36 260Q36 374 106 443T297 513Q326 513 350 501H352Q353 502 353 503Q336 535 310 560Q303
565 296 562L158 506Q141 499 124 506T100 531T100 565T125 590L191 616Q193 617 193 619T190 622Q175 625 150 629Q128 632 113 648T97 687T112 724T149 738Q259 729 341 685Q348 681 357 684L463 727Q480 734 497 727T521 702T521 668T496 643L441 621Q438 620
438 617T439 612Q557 486 557 260Q557 135 488 63Z" />
<glyph unicode="&#xf1;" glyph-name="ntilde" horiz-adv-x="613" d="M122 0Q99 0 83 17T66 57V463Q66 486 82 503T122 520H163Q187 520 203 504T221 463L222 455Q222 454 223 454L225 456Q290 530 381 530T512 479T552 303V57Q552 34 536 17T496 0H452Q429 0 412
17T395 57V298Q395 358 379 380T321 403Q286 403 257 375T227 313V57Q227 34 211 17T171 0H122ZM452 750H459Q483 750 499 733T513 693Q499 575 412 575Q358 575 286 620Q247 644 230 644Q218 644 213 631Q194 575 151 575H149Q126 575 110 592T95 632Q109 760
196 760Q251 760 322 715Q361 691 378 691Q389 691 394 699Q403 715 409 723T427 741T452 750Z" />
<glyph unicode="&#xf2;" glyph-name="ograve" horiz-adv-x="586" d="M343 417T293 417T219 380T194 260T218 140T293 103T367 140T392 260T368 380ZM417 -10T293 -10T100 61T31 260T100 459T293 530T486 459T555 260T486 61ZM240 767Q296 767 325 718L371 639Q381
622 372 606T343 590H316Q259 590 222 632L141 724Q130 736 136 751T160 767H240Z" />
<glyph unicode="&#xf3;" glyph-name="oacute" horiz-adv-x="586" d="M343 417T293 417T219 380T194 260T218 140T293 103T367 140T392 260T368 380ZM417 -10T293 -10T100 61T31 260T100 459T293 530T486 459T555 260T486 61ZM346 767H426Q443 767 449 752T445
724L364 632Q327 590 270 590H243Q224 590 215 606T215 639L261 718Q290 767 346 767Z" />
<glyph unicode="&#xf4;" glyph-name="ocircumflex" horiz-adv-x="586" d="M343 417T293 417T219 380T194 260T218 140T293 103T367 140T392 260T368 380ZM417 -10T293 -10T100 61T31 260T100 459T293 530T486 459T555 260T486 61ZM341 767Q398 767 430 720L489
636Q499 621 491 606T465 590H417Q361 590 333 639L294 707Q294 708 293 708T292 707L253 639Q225 590 169 590H121Q103 590 95 605T97 636L156 720Q188 767 245 767H341Z" />
<glyph unicode="&#xf5;" glyph-name="otilde" horiz-adv-x="586" d="M343 417T293 417T219 380T194 260T218 140T293 103T367 140T392 260T368 380ZM417 -10T293 -10T100 61T31 260T100 459T293 530T486 459T555 260T486 61ZM441 750H448Q472 750 488 733T502
693Q488 575 401 575Q347 575 275 620Q236 644 219 644Q207 644 202 631Q181 575 140 575H138Q115 575 99 592T84 632Q98 760 185 760Q240 760 311 715Q350 691 367 691Q378 691 383 699Q392 715 398 723T416 741T441 750Z" />
<glyph unicode="&#xf6;" glyph-name="odieresis" horiz-adv-x="586" d="M343 417T293 417T219 380T194 260T218 140T293 103T367 140T392 260T368 380ZM417 -10T293 -10T100 61T31 260T100 459T293 530T486 459T555 260T486 61ZM386 753H420Q443 753 459 737T476
697V660Q476 637 460 620T420 603H386Q363 603 347 620T330 660V697Q330 720 346 736T386 753ZM166 753H200Q223 753 239 737T256 697V660Q256 637 240 620T200 603H166Q143 603 127 620T110 660V697Q110 720 126 736T166 753Z" />
<glyph unicode="&#xf7;" glyph-name="divide" horiz-adv-x="736" d="M338 0Q315 0 298 17T281 57V107Q281 130 298 146T338 163H398Q421 163 438 147T455 107V57Q455 34 438 17T398 0H338ZM281 473V523Q281 546 298 563T338 580H398Q421 580 438 563T455 523V473Q455
450 438 434T398 417H338Q315 417 298 433T281 473ZM128 226Q105 226 88 243T71 283V297Q71 320 88 337T128 354H608Q631 354 648 337T665 297V283Q665 260 648 243T608 226H128Z" />
<glyph unicode="&#xf8;" glyph-name="oslash" horiz-adv-x="596" d="M298 417Q248 417 224 380T199 260Q199 228 201 214Q201 212 203 211T207 211L342 398Q347 405 339 409Q320 417 298 417ZM395 306Q395 308 393 309T389 309L254 122Q249 115 257 111Q276 103
298 103Q348 103 372 140T397 260Q397 292 395 306ZM97 59Q101 65 96 72Q36 143 36 260Q36 388 105 459T298 530Q362 530 414 510Q420 507 425 513L430 520Q441 535 459 538T493 530T511 501T503 467L499 461Q495 455 500 448Q560 377 560 260Q560 132 491 61T298
-10Q234 -10 182 10Q176 13 171 7L166 0Q155 -15 137 -18T103 -10T85 19T93 53L97 59Z" />
<glyph unicode="&#xf9;" glyph-name="ugrave" horiz-adv-x="609" d="M228 -10Q140 -10 101 39T61 207V463Q61 486 78 503T118 520H162Q185 520 201 503T218 463V218Q218 160 234 139T288 117Q323 117 352 145T381 207V463Q381 486 398 503T438 520H486Q509 520
526 503T543 463V57Q543 34 526 17T486 0H445Q421 0 405 16T387 57V65Q387 66 386 66L384 64Q319 -10 228 -10ZM283 767Q339 767 368 718L414 639Q424 622 415 606T386 590H359Q302 590 265 632L184 724Q173 736 179 751T203 767H283Z" />
<glyph unicode="&#xfa;" glyph-name="uacute" horiz-adv-x="609" d="M228 -10Q140 -10 101 39T61 207V463Q61 486 78 503T118 520H162Q185 520 201 503T218 463V218Q218 160 234 139T288 117Q323 117 352 145T381 207V463Q381 486 398 503T438 520H486Q509 520
526 503T543 463V57Q543 34 526 17T486 0H445Q421 0 405 16T387 57V65Q387 66 386 66L384 64Q319 -10 228 -10ZM329 767H409Q426 767 432 752T428 724L347 632Q310 590 253 590H226Q207 590 198 606T198 639L244 718Q273 767 329 767Z" />
<glyph unicode="&#xfb;" glyph-name="ucircumflex" horiz-adv-x="609" d="M228 -10Q140 -10 101 39T61 207V463Q61 486 78 503T118 520H162Q185 520 202 503T219 463V218Q219 160 234 139T288 117Q323 117 352 145T381 207V463Q381 486 398 503T438 520H486Q509
520 526 503T543 463V57Q543 34 526 17T486 0H445Q421 0 405 16T387 57V65Q387 66 386 66L384 64Q319 -10 228 -10ZM354 767Q411 767 443 720L502 636Q512 621 504 606T478 590H430Q374 590 346 639L307 707Q307 708 306 708T305 707L266 639Q238 590 182 590H134Q116
590 108 605T110 636L169 720Q201 767 258 767H354Z" />
<glyph unicode="&#xfc;" glyph-name="udieresis" horiz-adv-x="609" d="M228 -10Q140 -10 101 39T61 207V463Q61 486 78 503T118 520H162Q185 520 202 503T219 463V218Q219 160 234 139T288 117Q323 117 352 145T381 207V463Q381 486 398 503T438 520H486Q509
520 526 503T543 463V57Q543 34 526 17T486 0H445Q421 0 405 16T387 57V65Q387 66 386 66L384 64Q319 -10 228 -10ZM399 753H433Q456 753 472 737T489 697V660Q489 637 473 620T433 603H399Q376 603 360 620T343 660V697Q343 720 359 736T399 753ZM179 753H213Q236
753 252 737T269 697V660Q269 637 253 620T213 603H179Q156 603 140 620T123 660V697Q123 720 139 736T179 753Z" />
<glyph unicode="&#xfd;" glyph-name="yacute" horiz-adv-x="561" d="M198 8L29 467Q21 486 33 503T66 520H129Q153 520 173 505T199 465L275 154Q275 153 276 153T277 154L368 466Q374 490 394 505T441 520H496Q516 520 528 503T533 467L297 -167Q288 -191 267
-205T221 -220H166Q145 -220 134 -204T131 -168L198 -8Q199 -4 199 0T198 8ZM304 767H384Q400 767 407 752T403 724L322 632Q284 590 228 590H201Q182 590 173 606T173 639L219 718Q232 741 255 754T304 767Z" />
<glyph unicode="&#xfe;" glyph-name="thorn" horiz-adv-x="619" d="M224 322V198Q224 164 254 137T324 110Q370 110 397 147T424 260Q424 410 324 410Q284 410 254 383T224 322ZM123 -220Q100 -220 83 -203T66 -163V693Q66 716 83 733T123 750H171Q194 750 211
733T228 693V469Q228 468 229 468T231 469Q298 530 379 530Q472 530 527 460T583 260Q583 134 526 62T379 -10Q287 -10 220 51Q219 52 218 52T217 51V-163Q217 -186 200 -203T160 -220H123Z" />
<glyph unicode="&#xff;" glyph-name="ydieresis" horiz-adv-x="561" d="M198 8L29 467Q21 486 33 503T66 520H129Q153 520 173 505T199 465L275 154Q275 153 276 153T277 154L368 466Q374 490 394 505T441 520H496Q516 520 528 503T533 467L297 -167Q288 -191
267 -205T221 -220H166Q145 -220 134 -204T131 -168L198 -8Q199 -4 199 0T198 8ZM374 753H408Q431 753 447 737T464 697V660Q464 637 448 620T408 603H374Q351 603 335 620T318 660V697Q318 720 334 736T374 753ZM154 753H188Q211 753 227 737T244 697V660Q244
637 228 620T188 603H154Q131 603 115 620T98 660V697Q98 720 114 736T154 753Z" />
<glyph unicode="&#x2013;" glyph-name="endash" horiz-adv-x="472" d="M422 342Q444 342 459 327T474 290T459 253T422 238H50Q28 238 13 253T-2 290T13 327T50 342H422Z" />
<glyph unicode="&#x2014;" glyph-name="emdash" horiz-adv-x="946" d="M896 342Q918 342 933 327T948 290T933 253T896 238H50Q28 238 13 253T-2 290T13 327T50 342H896Z" />
<glyph unicode="&#x2018;" glyph-name="quoteleft" horiz-adv-x="325" d="M75 470Q54 470 43 487T39 523L114 717Q123 741 144 755T192 770H218Q240 770 253 754T263 715L223 525Q217 501 198 486T155 470H75Z" />
<glyph unicode="&#x2019;" glyph-name="quoteright" horiz-adv-x="325" d="M107 470Q85 470 72 486T62 525L102 715Q107 739 126 754T170 770H250Q270 770 281 753T286 717L211 523Q202 499 181 485T134 470H107Z" />
<glyph unicode="&#x201a;" glyph-name="quotesinglbase" horiz-adv-x="341" d="M97 -110Q75 -110 62 -94T52 -55L92 135Q97 159 116 174T161 190H241Q261 190 272 173T277 137L201 -57Q192 -81 171 -95T124 -110H97Z" />
<glyph unicode="&#x201c;" glyph-name="quotedblleft" horiz-adv-x="532" d="M303 470Q282 470 271 487T267 523L342 717Q351 741 372 755T420 770H430Q452 770 465 754T475 715L435 525Q429 501 410 486T366 470H303ZM70 470Q49 470 38 487T34 523L109 717Q118
741 139 755T186 770H196Q218 770 231 754T241 715L201 525Q195 501 176 486T133 470H70Z" />
<glyph unicode="&#x201d;" glyph-name="quotedblright" horiz-adv-x="532" d="M399 770H462Q482 770 493 753T498 717L423 523Q414 499 393 485T346 470H336Q314 470 301 486T291 525L331 715Q336 739 355 754T399 770ZM102 470Q80 470 67 486T57 525L97 715Q102
739 121 754T166 770H229Q249 770 260 753T265 717L190 523Q181 499 160 485T112 470H102Z" />
<glyph unicode="&#x201e;" glyph-name="quotedblbase" horiz-adv-x="547" d="M389 190H452Q472 190 483 173T488 137L413 -57Q404 -81 383 -95T336 -110H326Q304 -110 291 -94T281 -55L321 135Q326 159 345 174T389 190ZM92 -110Q70 -110 57 -94T47 -55L87 135Q92
159 111 174T156 190H219Q239 190 250 173T255 137L180 -57Q171 -81 150 -95T102 -110H92Z" />
<glyph unicode="&#x2022;" glyph-name="bullet" horiz-adv-x="526" d="M116 365Q116 426 159 469T263 512T367 469T410 365T367 261T263 218T159 261T116 365V365Z" />
<glyph unicode="&#x2039;" glyph-name="guilsinglleft" horiz-adv-x="403" d="M166 103L70 243Q56 264 56 290T70 337L166 477Q181 499 205 511T255 523H297Q315 523 323 508T321 477L195 297Q190 290 195 283L321 103Q332 88 324 73T297 57H255Q229 57 205 69T166 103Z" />
<glyph unicode="&#x203a;" glyph-name="guilsinglright" horiz-adv-x="403" d="M82 103L208 283Q213 290 208 297L82 477Q71 492 79 507T106 523H148Q174 523 198 511T237 477L333 337Q347 316 347 290T333 243L237 103Q222 81 198 69T148 57H106Q88 57 80 72T82 103Z" />
</font>
</defs>
</svg>
