<?xml version="1.0" standalone="no"?>
<!DOCTYPE svg PUBLIC "-//W3C//DTD SVG 1.1//EN" "http://www.w3.org/Graphics/SVG/1.1/DTD/svg11.dtd">
<svg xmlns="http://www.w3.org/2000/svg">
<defs >
<font id="MPLUSRounded1c" horiz-adv-x="901" ><font-face
    font-family="Rounded Mplus 1c"
    units-per-em="1000"
    panose-1="2 11 5 2 2 2 3 2 2 7"
    ascent="1075"
    descent="-320"
    alphabetic="0" />
<glyph unicode=" " glyph-name="space" horiz-adv-x="270" />
<glyph unicode="!" glyph-name="exclam" horiz-adv-x="322" d="M176 203T161 203T135 214T124 240L115 683Q115 703 128 716T161 730T193 717T207 683L198 240Q198 225 187 214ZM143 123T161 123T191 111T204 80V43Q204 25 192 13T161 0T131 12T118 43V80Q118
98 130 110Z" />
<glyph unicode="&quot;" glyph-name="quotedbl" horiz-adv-x="396" d="M121 523T108 523T87 531T77 553L70 730Q69 747 80 758T108 770T136 759T146 730L139 553Q138 540 130 532ZM301 523T288 523T267 531T257 553L250 730Q249 747 260 758T288 770T316 759T326
730L319 553Q318 540 310 532Z" />
<glyph unicode="#" glyph-name="numbersign" horiz-adv-x="678" d="M287 486L247 264Q245 256 254 256H384Q392 256 394 264L433 486Q435 494 426 494H297Q289 494 287 486ZM82 192Q68 192 59 201T50 224T59 247T82 256H164Q172 256 174 264L213 486Q215 494 206
494H133Q120 494 111 503T101 526T110 549T133 558H218Q226 558 228 567L250 694Q253 710 265 720T293 730Q307 730 316 719T324 694L301 567Q300 564 302 561T308 558H438Q446 558 448 567L470 694Q473 710 485 720T513 730Q527 730 536 719T544 694L521 567Q520
564 522 561T528 558H596Q610 558 619 549T628 526T619 503T596 494H517Q509 494 507 486L467 264Q465 256 474 256H545Q558 256 567 247T577 224T568 201T545 192H463Q455 192 453 183L427 36Q424 20 412 10T384 0Q370 0 361 11T354 36L380 183Q381 186 379 189T373
192H243Q235 192 233 183L207 36Q204 20 192 10T164 0Q150 0 141 11T134 36L160 183Q161 186 159 189T153 192H82Z" />
<glyph unicode="$" glyph-name="dollar" horiz-adv-x="565" d="M239 647Q130 634 130 543Q130 456 241 421Q244 420 246 422T248 428V640Q248 649 239 647ZM433 200Q433 249 407 279T320 330Q312 332 312 324V91Q312 82 321 84Q433 102 433 200ZM240 351Q55 405
55 543Q55 615 102 660T239 713Q248 713 248 722V783Q248 796 257 805T280 815T302 806T312 783V723Q312 714 321 714Q391 709 452 695Q467 691 477 679T487 650Q487 637 476 629T452 625Q387 644 321 648Q312 648 312 640V412Q312 403 321 401Q426 372 468 323T510
200Q510 122 461 75T321 18Q312 16 312 8V-53Q312 -66 303 -75T280 -85T258 -76T248 -53V7Q248 16 240 16Q164 21 100 42Q84 47 75 61T65 92Q65 105 76 112T99 114Q170 86 240 82Q248 82 248 90V340Q248 349 240 351Z" />
<glyph unicode="%" glyph-name="percent" horiz-adv-x="820" d="M610 730Q624 730 631 718T631 694L270 36Q250 0 210 0Q196 0 189 12T189 36L550 694Q570 730 610 730ZM612 50Q703 50 703 182Q703 313 612 313Q520 313 520 182Q520 50 612 50ZM532 373T612 373T736
323T780 182T736 41T612 -10T488 40T443 182T487 323ZM208 680Q117 680 117 548Q117 417 208 417Q300 417 300 548Q300 680 208 680ZM288 357T208 357T84 407T40 548T84 689T208 740T332 690T377 548T333 407Z" />
<glyph unicode="&amp;" glyph-name="ampersand" horiz-adv-x="689" d="M276 344Q199 293 167 253T135 173Q135 116 175 85T292 54Q352 54 397 68T492 119Q499 124 493 130L289 343Q283 349 276 344ZM204 593Q204 561 220 533T293 444Q300 437 307 443Q383 495
407 525T431 593Q431 633 402 655T317 677Q264 677 234 654T204 593ZM289 -10Q174 -10 115 36T55 170Q55 225 95 277T231 394Q238 397 231 404L225 411Q170 468 148 510T125 593Q125 659 176 699T317 740Q408 740 456 702T505 597Q505 543 472 498T352 394Q345
389 351 383L518 206Q520 204 522 205T524 208V380Q524 396 534 407T561 418T588 407T599 380V129Q599 119 604 114L679 35Q688 26 683 13T664 0Q616 0 583 35L555 65Q550 72 542 66Q421 -10 289 -10Z" />
<glyph unicode="&apos;" glyph-name="quotesingle" horiz-adv-x="234" d="M131 523T117 523T93 533T82 557L75 727Q74 745 86 757T117 770T147 758T159 727L152 557Q151 543 141 533Z" />
<glyph unicode="(" glyph-name="parenleft" horiz-adv-x="363" d="M302 -140Q262 -140 237 -113Q70 62 70 315T237 743Q262 770 302 770Q312 770 316 760T313 742Q147 567 147 315T313 -112Q320 -120 316 -130T302 -140Z" />
<glyph unicode=")" glyph-name="parenright" horiz-adv-x="363" d="M61 -140Q50 -140 46 -130T50 -112Q216 63 216 315T50 742Q43 750 47 760T61 770Q100 770 126 743Q207 658 250 549T293 315T250 82T126 -113Q100 -140 61 -140Z" />
<glyph unicode="*" glyph-name="asterisk" horiz-adv-x="511" d="M72 562Q60 566 54 577T51 602T67 621T92 622L217 580Q220 579 222 581T225 586L223 718Q223 732 232 741T255 750T278 741T287 718L285 586Q285 583 287 581T293 580L418 622Q431 627 443 621T459
602T457 578T438 562L311 523Q309 522 308 519T308 513L388 407Q396 396 394 384T382 363T358 357T336 370L260 478Q259 480 256 480T250 478L174 370Q167 360 154 358T130 363T117 383T122 407L202 513Q204 515 203 518T199 523L72 562Z" />
<glyph unicode="+" glyph-name="plus" horiz-adv-x="734" d="M112 258Q99 258 90 267T80 290T89 312T112 322H325Q334 322 334 330V547Q334 560 344 570T367 580T390 570T400 547V330Q400 322 409 322H622Q635 322 644 313T654 290T645 268T622 258H409Q400 258
400 250V33Q400 20 390 10T367 0T344 10T334 33V250Q334 258 325 258H112Z" />
<glyph unicode="," glyph-name="comma" horiz-adv-x="278" d="M87 -110Q74 -110 66 -99T61 -75L109 89Q115 110 133 123T174 137Q192 137 202 122T205 90L138 -76Q132 -92 118 -101T87 -110Z" />
<glyph unicode="-" glyph-name="hyphen" horiz-adv-x="466" d="M111 255Q98 255 89 264T80 287T89 309T111 318H355Q368 318 377 309T386 287T377 265T355 255H111Z" />
<glyph unicode="." glyph-name="period" horiz-adv-x="284" d="M162 0T142 0T109 14T95 47V90Q95 110 108 123T142 137T175 124T189 90V47Q189 28 176 14Z" />
<glyph unicode="/" glyph-name="slash" horiz-adv-x="479" d="M60 -40Q46 -40 39 -29T37 -5L350 695Q358 711 372 720T404 730Q418 730 425 719T427 695L114 -5Q106 -21 92 -30T60 -40Z" />
<glyph unicode="0" glyph-name="zero" horiz-adv-x="620" d="M402 675T310 675T173 602T127 365T172 129T310 55T447 128T493 365T448 601ZM435 -10T310 -10T116 77T47 365T116 653T310 740T504 653T573 365T504 77Z" />
<glyph unicode="1" glyph-name="one" horiz-adv-x="620" d="M144 503Q134 495 122 500T110 519Q110 563 144 591L286 705Q317 730 357 730Q374 730 385 718T397 690V40Q397 24 386 12T357 0T329 12T317 40V640Q317 641 316 641L314 640L144 503Z" />
<glyph unicode="2" glyph-name="two" horiz-adv-x="620" d="M530 631T530 533T459 335T194 69Q193 69 193 68T194 67H500Q513 67 523 57T533 33Q533 20 524 10T500 0H117Q103 0 93 10T83 33Q83 67 109 88Q306 253 377 347T448 527Q448 598 409 635T295 672Q219
672 133 632Q121 627 110 633T98 653Q98 693 134 708Q215 740 305 740Q412 740 471 686Z" />
<glyph unicode="3" glyph-name="three" horiz-adv-x="620" d="M118 663Q105 663 95 673T85 697Q85 710 94 720T118 730H490Q504 730 513 720T523 697Q523 663 500 640L284 429V427Q284 426 285 426H314Q420 426 476 375T533 227Q533 113 466 52T273 -10Q196 -10
128 14Q92 27 92 66Q92 79 103 86T126 88Q199 57 273 57Q361 57 407 100T453 227Q453 298 406 332T254 367H212Q199 367 190 376T181 398Q181 429 203 451L420 661V662Q420 663 419 663H118Z" />
<glyph unicode="4" glyph-name="four" horiz-adv-x="620" d="M97 238V236Q97 235 98 235H356Q365 235 365 244V612Q365 613 364 613Q362 613 362 612L97 238ZM48 170Q34 170 25 180T15 203Q15 235 34 262L342 698Q364 730 404 730Q421 730 432 719T444 691V244Q444
235 452 235H536Q550 235 559 226T568 203Q568 189 559 180T536 170H452Q444 170 444 161V39Q444 23 433 12T404 0Q388 0 377 11T365 39V161Q365 170 356 170H48Z" />
<glyph unicode="5" glyph-name="five" horiz-adv-x="620" d="M130 14Q95 27 95 66Q95 79 106 86T129 89Q209 57 273 57Q366 57 414 103T462 240Q462 317 421 357T303 398Q248 398 201 372Q165 352 137 352Q123 352 113 362T104 387L120 673Q122 697 139 713T180
730H478Q492 730 502 720T512 697T502 674T478 663H205Q196 663 196 655L182 428Q182 427 183 427H185Q243 462 317 462Q424 462 483 404T542 240Q542 118 474 54T273 -10Q198 -10 130 14Z" />
<glyph unicode="6" glyph-name="six" horiz-adv-x="620" d="M320 425Q241 425 191 377T140 253T184 118T317 57Q400 57 446 106T493 247Q493 328 446 376T320 425ZM317 -10Q57 -10 57 320Q57 531 134 635T355 740Q411 740 469 726Q484 722 493 710T502 681Q502
668 492 661T469 657Q417 673 355 673Q263 673 206 604T141 403Q141 402 142 402Q144 402 144 403Q205 487 337 487Q445 487 509 422T573 247Q573 127 504 59T317 -10Z" />
<glyph unicode="7" glyph-name="seven" horiz-adv-x="620" d="M112 730H515Q528 730 538 720T548 697Q548 664 531 635Q378 377 271 39Q266 22 251 11T217 0Q201 0 192 12T188 40Q301 383 470 660V661L471 662Q471 663 470 663H112Q98 663 88 673T78 697T88 720T112 730Z" />
<glyph unicode="8" glyph-name="eight" horiz-adv-x="620" d="M298 355Q212 336 168 296T123 200Q123 132 173 93T310 54T446 93T495 200Q495 319 316 355Q307 356 298 355ZM150 558Q150 510 189 474T302 422Q310 421 318 422Q391 438 431 474T472 558Q472 613
430 644T310 676Q234 676 192 645T150 558ZM433 -10T310 -10T117 46T47 197Q47 261 89 310T212 385Q213 385 213 387Q213 388 212 388Q146 413 110 459T73 565Q73 644 136 692T310 740T483 692T547 565Q547 445 408 395Q407 395 407 393Q407 392 408 392Q573 341
573 197Q573 102 503 46Z" />
<glyph unicode="9" glyph-name="nine" horiz-adv-x="620" d="M305 673Q224 673 176 626T128 493Q128 406 175 356T302 305Q382 305 431 355T481 487Q481 517 472 547T443 607T388 654T305 673ZM285 243Q176 243 112 310T48 493Q48 606 119 673T305 740Q565 740
565 420Q565 197 489 94T267 -10Q206 -10 145 4Q129 8 120 20T110 49Q110 62 121 69T145 73Q207 57 267 57Q364 57 421 125T480 328Q480 330 479 330Q477 330 477 329Q415 243 285 243Z" />
<glyph unicode=":" glyph-name="colon" horiz-adv-x="364" d="M202 390T182 390T149 404T135 437V480Q135 500 148 513T182 527T215 514T229 480V437Q229 418 216 404ZM202 0T182 0T149 14T135 47V90Q135 110 148 123T182 137T215 124T229 90V47Q229 28 216 14Z" />
<glyph unicode=";" glyph-name="semicolon" horiz-adv-x="362" d="M107 -110Q94 -110 86 -99T81 -75L129 89Q135 110 153 123T194 137Q212 137 222 122T225 90L158 -76Q152 -92 138 -101T107 -110ZM166 527T185 527T218 514T232 480V437Q232 418 219 404T186 390T152
404T138 437V480Q138 500 152 513Z" />
<glyph unicode="&lt;" glyph-name="less" horiz-adv-x="667" d="M103 232Q65 249 65 290T103 348L540 549Q551 554 561 548T572 528Q572 492 540 478L116 291Q115 291 115 290T116 289L540 102Q572 88 572 52Q572 39 562 33T540 31L103 232Z" />
<glyph unicode="=" glyph-name="equal" horiz-adv-x="754" d="M122 373Q109 373 100 382T90 405T99 427T122 437H632Q645 437 654 428T664 405T655 383T632 373H122ZM122 143Q109 143 100 152T90 175T99 197T122 207H632Q645 207 654 198T664 175T655 153T632 143H122Z" />
<glyph unicode="&gt;" glyph-name="greater" horiz-adv-x="667" d="M127 102L551 289Q552 289 552 290T551 291L127 478Q95 492 95 528Q95 541 105 547T127 549L564 348Q602 331 602 290T564 232L127 31Q116 26 106 32T95 52Q95 88 127 102Z" />
<glyph unicode="?" glyph-name="question" horiz-adv-x="623" d="M121 646Q107 642 96 650T85 671Q85 688 94 700T120 717Q218 740 315 740Q432 740 495 697T558 577Q558 541 549 513T518 462T480 426T434 393Q398 369 379 354T340 310T312 246Q309 229 297 218T268
207Q251 207 240 219T231 247Q236 281 249 308T285 358T323 393T369 426Q406 451 423 465T458 508T475 570Q475 672 305 672Q213 672 121 646ZM225 80Q225 98 237 110T268 123T299 111T312 80V43Q312 25 299 13T268 0T238 12T225 43V80Z" />
<glyph unicode="@" glyph-name="at" horiz-adv-x="824" d="M505 251V269Q505 335 476 371T397 408Q346 408 318 370T289 260T318 151T397 112Q447 112 476 148T505 251ZM412 -112Q252 -112 146 -8T40 260Q40 423 145 527T412 632Q576 632 680 529T784 260Q784
179 754 106Q744 82 721 69T671 55H560Q539 55 525 69T509 105L508 112L507 113Q506 113 506 112Q457 47 375 47Q301 47 256 103T210 260Q210 362 254 417T375 473Q457 473 506 410Q506 409 508 409H509V426Q509 442 520 453T548 465T575 454T587 426V124Q587 115
595 115H683Q692 115 695 123Q724 187 724 260Q724 400 638 486T412 572Q274 572 187 485T100 260T187 35T412 -52Q501 -52 572 -12Q582 -6 595 -8T615 -20T620 -42T607 -61Q523 -112 412 -112Z" />
<glyph unicode="A" glyph-name="A" horiz-adv-x="639" d="M317 657L195 285Q194 282 196 280T201 277H436Q439 277 440 279T442 285L320 657Q320 658 319 658Q317 658 317 657ZM60 0Q45 0 36 12T32 39L260 688Q267 707 283 718T320 730T356 719T380 688L607 40Q612
25 603 13T579 0Q559 0 544 11T522 41L469 205Q466 213 457 213H180Q172 213 169 205L114 39Q108 21 94 11T60 0Z" />
<glyph unicode="B" glyph-name="B" horiz-adv-x="598" d="M165 352V73Q165 64 172 63Q222 55 271 55Q479 55 479 217Q479 361 231 361H173Q165 361 165 352ZM165 657V433Q165 425 173 425H231Q449 425 449 553Q449 615 404 645T261 675Q218 675 173 667Q165 665
165 657ZM141 -3Q117 0 101 18T85 62V668Q85 693 100 711T140 733Q195 740 261 740Q525 740 525 563Q525 502 485 458T375 398Q374 398 374 397T376 396Q462 382 510 332T558 210Q558 -10 271 -10Q200 -10 141 -3Z" />
<glyph unicode="C" glyph-name="C" horiz-adv-x="613" d="M358 -10Q214 -10 127 88T40 365Q40 542 123 641T355 740Q433 740 494 725Q509 721 518 708T528 679Q528 666 518 659T494 655Q435 673 362 673Q249 673 185 592T121 365Q121 220 187 139T365 57Q439 57
499 75Q512 79 522 72T533 51Q533 35 524 23T499 6Q432 -10 358 -10Z" />
<glyph unicode="D" glyph-name="D" horiz-adv-x="658" d="M165 656V74Q165 66 174 64Q213 57 262 57Q407 57 474 132T542 375Q542 528 474 600T262 673Q213 673 174 666Q165 664 165 656ZM141 -3Q117 0 101 18T85 62V668Q85 693 100 711T141 733Q196 740 262 740Q618
740 618 375Q618 -10 262 -10Q196 -10 141 -3Z" />
<glyph unicode="E" glyph-name="E" horiz-adv-x="587" d="M142 0Q119 0 102 17T85 57V673Q85 696 102 713T142 730H478Q492 730 502 720T512 697T502 674T478 663H174Q165 663 165 655V433Q165 425 174 425H460Q474 425 483 416T492 393T483 371T460 361H174Q165
361 165 352V75Q165 67 174 67H478Q492 67 502 57T512 33T502 10T478 0H142Z" />
<glyph unicode="F" glyph-name="F" horiz-adv-x="572" d="M142 0T125 0T97 12T85 40V673Q85 696 102 713T142 730H468Q482 730 492 720T502 697T492 674T468 663H174Q165 663 165 655V423Q165 415 174 415H450Q464 415 473 406T482 383T473 361T450 351H174Q165
351 165 342V40Q165 24 154 12Z" />
<glyph unicode="G" glyph-name="G" horiz-adv-x="687" d="M380 -10Q230 -10 135 91T40 365Q40 539 136 639T397 740Q476 740 540 725Q555 722 564 710T574 682Q574 669 563 661T539 657Q474 675 404 675Q271 675 197 594T122 365Q122 222 194 139T387 55Q460 55
522 76Q530 79 530 88V352Q530 361 522 361H326Q312 361 303 370T294 393T303 415T326 425H550Q573 425 590 408T607 368V91Q607 65 593 44T554 14Q478 -10 380 -10Z" />
<glyph unicode="H" glyph-name="H" horiz-adv-x="676" d="M142 0T125 0T97 12T85 40V690Q85 706 96 718T125 730T153 718T165 690V433Q165 425 173 425H503Q511 425 511 433V690Q511 706 522 718T551 730T579 718T591 690V40Q591 24 580 12T551 0T523 12T511 40V352Q511
361 503 361H173Q165 361 165 352V40Q165 24 154 12Z" />
<glyph unicode="I" glyph-name="I" horiz-adv-x="316" d="M176 0T158 0T128 12T115 43V687Q115 705 127 717T158 730T188 718T201 687V43Q201 25 189 13Z" />
<glyph unicode="J" glyph-name="J" horiz-adv-x="529" d="M76 9Q60 14 50 27T40 57Q40 70 51 78T75 81Q144 57 217 57Q296 57 333 104T370 260V688Q370 705 382 717T412 730T441 718T454 688V240Q454 110 396 50T217 -10Q146 -10 76 9Z" />
<glyph unicode="K" glyph-name="K" horiz-adv-x="586" d="M142 0T125 0T97 12T85 40V690Q85 706 96 718T125 730T153 718T165 690V406Q165 405 166 405H168L439 695Q472 730 520 730Q534 730 539 718T535 695L243 386Q237 380 242 374L546 36Q555 26 549 13T530
0Q481 0 450 36L168 355Q167 356 166 356T165 354V40Q165 24 154 12Z" />
<glyph unicode="L" glyph-name="L" horiz-adv-x="582" d="M142 0Q119 0 102 17T85 57V688Q85 705 97 717T127 730T156 718T169 688V77Q169 68 177 68H488Q502 68 512 58T522 34T512 10T488 0H142Z" />
<glyph unicode="M" glyph-name="M" horiz-adv-x="816" d="M139 0T123 0T96 11T85 39V689Q85 706 96 718T125 730Q166 730 186 694L405 291Q405 290 407 290Q408 290 408 291L627 693Q646 730 689 730Q706 730 718 718T731 688V40Q731 24 720 12T691 0T663 12T651
40V595Q651 596 650 596T649 595L462 250Q444 217 407 217T352 250L164 595Q164 596 163 596T162 595V39Q162 23 151 12Z" />
<glyph unicode="N" glyph-name="N" horiz-adv-x="686" d="M140 0T124 0T97 11T85 39V689Q85 706 97 718T126 730Q167 730 188 694L520 131Q520 130 522 130Q523 130 523 131V691Q523 708 534 719T562 730T589 719T601 691V41Q601 24 589 12T560 0Q519 0 498 36L166
599Q166 600 164 600Q163 600 163 599V39Q163 22 152 11Z" />
<glyph unicode="O" glyph-name="O" horiz-adv-x="714" d="M471 673T357 673T183 595T122 365T182 135T357 57T531 135T592 365T532 595ZM505 -10T357 -10T125 88T40 365T124 641T357 740T589 642T674 365T590 89Z" />
<glyph unicode="P" glyph-name="P" horiz-adv-x="600" d="M165 657V363Q165 355 174 353Q222 346 282 346Q381 346 433 389T486 512T435 633T282 675Q228 675 174 667Q165 665 165 657ZM142 0T125 0T97 12T85 40V668Q85 692 101 710T141 732Q218 740 288 740Q424
740 494 683T565 518Q565 402 494 342T288 282Q234 282 174 287Q165 287 165 280V40Q165 24 154 12Z" />
<glyph unicode="Q" glyph-name="Q" horiz-adv-x="722" d="M470 673T356 673T182 595T121 365T181 135T356 57T531 135T592 365T531 595ZM356 -10Q209 -10 125 88T40 365T124 641T356 740Q504 740 588 642T673 365Q673 242 629 156T503 29Q502 29 502 28Q502 26
503 26Q636 -6 722 -112Q731 -123 724 -136T702 -150Q657 -150 626 -112Q578 -56 517 -33T356 -10Z" />
<glyph unicode="R" glyph-name="R" horiz-adv-x="606" d="M165 657V391Q165 382 174 382H245Q364 382 420 420T476 535Q476 675 265 675Q220 675 174 667Q165 665 165 657ZM142 0T125 0T97 12T85 40V668Q85 693 101 711T141 733Q200 740 272 740Q412 740 483 689T555
542Q555 466 515 416T399 346Q398 346 398 344Q398 343 399 343Q442 318 487 213L559 38Q565 25 557 13T533 0Q514 0 499 11T476 39L406 211Q376 283 350 300T245 318H174Q165 318 165 310V40Q165 24 154 12Z" />
<glyph unicode="S" glyph-name="S" horiz-adv-x="553" d="M267 343Q60 413 60 562Q60 646 114 693T265 740Q355 740 432 713Q448 707 458 693T468 660Q468 647 457 641T434 639Q353 675 271 675Q211 675 175 647T138 562Q138 464 269 420Q393 379 443 326T493
190Q493 92 434 41T261 -10Q175 -10 106 21Q71 37 71 77Q71 90 82 96T104 96Q172 57 255 57Q413 57 413 190Q413 244 379 280T267 343Z" />
<glyph unicode="T" glyph-name="T" horiz-adv-x="634" d="M94 662Q80 662 70 672T60 696T70 720T94 730H540Q554 730 564 720T574 696T564 672T540 662H366Q357 662 357 653V40Q357 24 346 12T317 0T289 12T277 40V653Q277 662 268 662H94Z" />
<glyph unicode="U" glyph-name="U" horiz-adv-x="656" d="M451 -10T328 -10T140 55T75 250V689Q75 706 87 718T115 730Q132 730 144 718T156 689V247Q156 150 198 104T329 58T460 104T503 247V691Q503 708 514 719T542 730T569 719T581 691V250Q581 121 516 56Z" />
<glyph unicode="V" glyph-name="V" horiz-adv-x="639" d="M259 42L32 690Q27 705 35 717T60 730Q79 730 95 719T117 689L319 80Q319 79 320 79Q322 79 322 80L524 691Q530 709 545 719T579 730Q594 730 603 718T607 691L379 42Q372 23 356 12T319 0T283 11T259 42Z" />
<glyph unicode="W" glyph-name="W" horiz-adv-x="864" d="M186 49L46 690Q43 706 52 718T78 730Q96 730 109 719T127 690L246 87Q246 86 247 86T248 87L371 679Q375 701 392 715T432 730T473 716T496 679L619 87Q619 86 620 86T621 87L740 691Q743 708 756 719T787
730Q802 730 812 718T819 691L678 49Q673 27 656 14T617 0T578 13T556 49L433 643Q433 644 432 644T431 643L308 49Q303 27 286 14T247 0T208 13T186 49Z" />
<glyph unicode="X" glyph-name="X" horiz-adv-x="610" d="M81 0Q66 0 59 13T58 39L250 362Q256 370 250 377L64 690Q57 704 64 717T86 730Q108 730 127 720T156 690L305 426H306H308L458 691Q481 730 525 730Q540 730 547 717T547 691L360 377Q355 370 360 362L551
40Q560 26 552 13T528 0Q507 0 488 11T458 41L305 313Q305 314 304 314Q302 314 302 313L149 40Q127 0 81 0Z" />
<glyph unicode="Y" glyph-name="Y" horiz-adv-x="610" d="M259 316L34 690Q26 704 33 717T57 730Q104 730 127 689L305 377Q305 376 306 376Q308 376 308 377L486 690Q508 730 554 730Q569 730 576 717T576 691L351 316Q347 309 347 300V42Q347 25 335 13T305
0T276 12T263 42V300Q263 309 259 316Z" />
<glyph unicode="Z" glyph-name="Z" horiz-adv-x="616" d="M92 95L447 660L448 661V662Q448 663 447 663H108Q95 663 85 673T75 697Q75 710 84 720T108 730H508Q522 730 531 720T541 697Q541 660 524 635L169 70L168 69V68Q168 67 169 67H508Q521 67 531 57T541
33Q541 20 532 10T508 0H108Q94 0 85 10T75 33Q75 70 92 95Z" />
<glyph unicode="[" glyph-name="bracketleft" horiz-adv-x="470" d="M172 -140Q149 -140 132 -123T115 -83V713Q115 736 132 753T172 770H355Q368 770 376 762T385 740T377 719T355 710H196Q189 710 189 702V-71Q189 -80 197 -80H355Q368 -80 376 -88T385 -110T377
-131T355 -140H172Z" />
<glyph unicode="\" glyph-name="backslash" horiz-adv-x="479" d="M365 -5L52 695Q47 708 54 719T75 730Q92 730 106 721T129 695L442 -5Q447 -18 440 -29T419 -40Q402 -40 388 -31T365 -5Z" />
<glyph unicode="]" glyph-name="bracketright" horiz-adv-x="470" d="M273 -80Q281 -80 281 -72V701Q281 710 274 710H114Q102 710 94 719T85 740Q85 753 93 761T115 770H298Q321 770 338 753T355 713V-83Q355 -106 338 -123T298 -140H115Q102 -140 94 -132T85
-110T93 -89T115 -80H273Z" />
<glyph unicode="^" glyph-name="asciicircum" horiz-adv-x="602" d="M65 280Q51 280 44 292T43 317L231 687Q241 707 260 718T301 730T342 719T371 687L559 317Q566 304 559 292T537 280Q518 280 502 290T477 317L301 678V679V678L125 317Q117 300 101 290T65 280Z" />
<glyph unicode="_" glyph-name="underscore" horiz-adv-x="562" d="M28 -140Q15 -140 7 -132T-2 -110T6 -89T28 -80H534Q547 -80 555 -88T564 -110T556 -131T534 -140H28Z" />
<glyph unicode="`" glyph-name="grave" horiz-adv-x="238" d="M125 586L19 766Q11 780 19 795T43 810Q66 810 85 798T115 764L196 587Q201 577 195 567T176 557Q143 557 125 586Z" />
<glyph unicode="a" glyph-name="a" horiz-adv-x="534" d="M327 275Q228 275 178 243T127 153Q127 108 152 81T220 53Q292 53 339 101T387 228V266Q387 275 378 275H327ZM204 -10Q136 -10 93 33T50 147Q50 230 116 280T327 330H378Q387 330 387 338V357Q387 418
359 442T260 467Q191 467 111 441Q99 437 89 444T79 464Q79 499 112 509Q186 530 260 530Q375 530 419 488T464 337V36Q464 21 454 11T428 0T402 10T391 36L390 88Q390 89 389 89Q387 89 387 87Q328 -10 204 -10Z" />
<glyph unicode="b" glyph-name="b" horiz-adv-x="578" d="M157 337V183Q157 131 203 91T307 50Q378 50 417 103T457 260Q457 470 307 470Q248 470 203 429T157 337ZM131 0T116 0T91 10T80 36V712Q80 728 91 739T118 750T145 739T157 712V453Q157 452 158 452T160
453Q225 530 323 530Q420 530 476 460T533 260Q533 135 475 63T323 -10Q223 -10 156 73Q155 74 154 74T153 73V36Q153 21 142 11Z" />
<glyph unicode="c" glyph-name="c" horiz-adv-x="493" d="M285 -10Q167 -10 104 58T40 260Q40 392 101 461T275 530Q327 530 385 519Q399 516 408 505T418 478Q418 466 408 459T385 455Q334 468 280 468Q120 468 120 260Q120 152 162 102T290 52Q346 52 392 67Q403
71 413 64T423 45Q423 30 414 18T390 2Q343 -10 285 -10Z" />
<glyph unicode="d" glyph-name="d" horiz-adv-x="578" d="M271 470Q121 470 121 260Q121 156 160 103T271 50Q329 50 375 90T421 183V337Q421 388 376 429T271 470ZM255 -10Q162 -10 104 62T45 260Q45 389 101 459T255 530Q353 530 418 453Q419 452 420 452T421
453V712Q421 728 432 739T460 750T487 739T498 712V36Q498 21 488 11T462 0T436 10T425 36V73Q425 74 424 74T422 73Q355 -10 255 -10Z" />
<glyph unicode="e" glyph-name="e" horiz-adv-x="524" d="M270 472Q131 472 118 307Q118 299 127 299H396Q404 299 404 307Q398 472 270 472ZM291 -10Q168 -10 104 57T40 260Q40 399 101 464T270 530Q467 530 479 297Q480 273 463 257T421 240H125Q117 240 117
231Q126 48 298 48Q355 48 415 69Q426 73 436 67T446 48Q446 14 415 6Q351 -10 291 -10Z" />
<glyph unicode="f" glyph-name="f" horiz-adv-x="508" d="M85 440Q72 440 64 448T55 470T63 491T85 500H169Q178 500 178 509V557Q178 653 218 696T348 740Q381 740 409 733Q422 730 430 720T438 695Q438 684 429 678T410 674Q386 680 361 680Q303 680 281 655T258
560V509Q258 500 267 500H398Q411 500 419 492T428 470T420 449T398 440H267Q258 440 258 431V40Q258 24 246 12T218 0T190 12T178 40V431Q178 440 169 440H85Z" />
<glyph unicode="g" glyph-name="g" horiz-adv-x="563" d="M267 470Q122 470 122 267Q122 166 160 113T267 60Q325 60 368 103T412 206V322Q412 382 369 426T267 470ZM247 0Q156 0 101 70T45 267Q45 400 100 465T247 530Q348 530 412 447Q413 446 414 446T415 447L416
484Q416 499 426 509T452 520T477 510T488 484V30Q488 -105 430 -167T248 -230Q186 -230 134 -217Q102 -209 102 -175Q102 -163 111 -156T132 -152Q188 -170 248 -170Q335 -170 373 -124T412 27V76Q412 77 411 77T409 76Q348 0 247 0Z" />
<glyph unicode="h" glyph-name="h" horiz-adv-x="570" d="M135 0T119 0T92 11T80 38V712Q80 728 91 739T119 750T146 739T157 712V442Q157 441 158 441T160 442Q232 530 327 530Q418 530 459 480T500 310V38Q500 22 490 11T463 0T436 11T425 38V297Q425 398 399
432T307 467Q255 467 206 418T157 316V38Q157 22 146 11Z" />
<glyph unicode="i" glyph-name="i" horiz-adv-x="310" d="M172 0T155 0T127 12T115 40V480Q115 496 126 508T155 520T183 508T195 480V40Q195 24 184 12ZM172 643T155 643T127 654T115 683V710Q115 726 126 738T155 750T183 738T195 710V683Q195 666 184 655Z" />
<glyph unicode="j" glyph-name="j" horiz-adv-x="355" d="M22 -220Q8 -220 -1 -211T-10 -188Q-10 -175 -1 -166T22 -155Q109 -152 134 -123T160 -3V480Q160 496 172 508T200 520T228 508T240 480V-3Q240 -127 197 -171T22 -220ZM160 710Q160 726 172 738T200 750T228
738T240 710V683Q240 666 228 655T200 643T172 654T160 683V710Z" />
<glyph unicode="k" glyph-name="k" horiz-adv-x="523" d="M134 0T118 0T91 11T80 38V712Q80 728 91 739T118 750T145 739T156 712V289Q156 288 157 288L159 289L375 488Q409 520 457 520Q470 520 474 508T470 488L238 276Q232 270 237 264L473 33Q481 25 476 13T459
0Q412 0 379 33L159 251Q158 252 157 252T156 251V38Q156 22 145 11Z" />
<glyph unicode="l" glyph-name="l" horiz-adv-x="310" d="M172 0T155 0T127 12T115 40V710Q115 726 126 738T155 750T183 738T195 710V40Q195 24 184 12Z" />
<glyph unicode="m" glyph-name="m" horiz-adv-x="785" d="M130 0T114 0T87 11T75 38V483Q75 498 86 509T112 520T138 509T149 483L150 450Q150 449 151 449Q153 449 153 451Q210 530 289 530Q337 530 366 509T415 439Q415 437 416 437Q418 437 418 439Q474 530
564 530Q644 530 679 484T715 330V38Q715 22 705 11T678 0T651 11T640 38V310Q640 403 619 436T543 470Q506 470 470 431T434 349V38Q434 22 423 11T396 0T369 11T358 38V310Q358 403 337 436T262 470Q225 470 189 431T152 349V38Q152 22 141 11Z" />
<glyph unicode="n" glyph-name="n" horiz-adv-x="565" d="M129 0T113 0T86 11T75 38V484Q75 499 85 509T111 520T137 510T148 484V443Q148 442 149 442T151 443Q223 530 322 530Q413 530 454 479T495 310V38Q495 22 485 11T458 0T431 11T420 38V300Q420 399 393
434T302 470Q250 470 201 422T152 322V38Q152 22 141 11Z" />
<glyph unicode="o" glyph-name="o" horiz-adv-x="556" d="M438 470T278 470T118 260T278 50T438 260ZM390 -10T278 -10T103 61T40 260T103 459T278 530T453 459T516 260T453 61Z" />
<glyph unicode="p" glyph-name="p" horiz-adv-x="574" d="M152 331V189Q152 132 197 91T302 50Q373 50 412 103T452 260Q452 470 302 470Q241 470 197 429T152 331ZM130 -220T114 -220T87 -209T75 -182V484Q75 499 85 509T111 520T137 510T148 484L149 446Q149
445 150 445L152 447Q218 530 319 530Q416 530 472 460T529 260Q529 135 471 63T319 -10Q217 -10 155 67Q154 68 153 68T152 67V-182Q152 -198 141 -209Z" />
<glyph unicode="q" glyph-name="q" horiz-adv-x="574" d="M272 470Q122 470 122 260Q122 157 161 104T272 50Q332 50 377 91T422 189V331Q422 387 378 428T272 470ZM255 -10Q162 -10 104 62T45 260Q45 389 101 459T255 530Q356 530 422 447L424 445Q425 445 425
446L426 484Q426 499 437 509T463 520T488 510T499 484V-182Q499 -198 488 -209T460 -220T433 -209T422 -182V67Q422 68 421 68T419 67Q357 -10 255 -10Z" />
<glyph unicode="r" glyph-name="r" horiz-adv-x="450" d="M132 0T115 0T87 12T75 40V482Q75 498 86 509T113 520T140 509T151 482V405Q151 404 152 404Q154 404 154 406Q184 456 238 486T361 520Q375 521 385 511T395 487Q395 474 386 464T362 453Q263 449 209
396T155 246V40Q155 24 144 12Z" />
<glyph unicode="s" glyph-name="s" horiz-adv-x="497" d="M240 233Q143 256 102 292T60 387Q60 453 109 491T251 530Q320 530 388 512Q419 504 419 471Q419 459 410 453T389 450Q323 470 257 470Q137 470 137 393Q137 359 161 337T248 300Q356 276 396 239T437
133Q437 66 386 28T240 -10Q167 -10 101 12Q70 22 70 55Q70 66 80 72T101 75Q166 50 234 50Q360 50 360 133Q360 169 335 193T240 233Z" />
<glyph unicode="t" glyph-name="t" horiz-adv-x="502" d="M80 440Q67 440 59 448T50 470T58 491T80 500H153Q162 500 162 509V652Q162 668 173 679T200 690T227 679T238 652V509Q238 500 247 500H397Q410 500 418 492T427 470T419 449T397 440H247Q238 440 238
431V167Q238 95 257 73T330 50Q362 50 383 55Q394 57 403 51T413 33Q413 19 405 8T383 -5Q357 -10 317 -10Q229 -10 196 26T162 160V431Q162 440 153 440H80Z" />
<glyph unicode="u" glyph-name="u" horiz-adv-x="560" d="M238 -10Q151 -10 111 38T70 197V482Q70 498 80 509T107 520T134 509T145 482V207Q145 117 172 84T258 50Q312 50 360 96T408 198V482Q408 498 419 509T447 520T474 509T485 482V36Q485 21 475 11T449
0T423 10T412 36V77Q412 78 411 78T409 77Q340 -10 238 -10Z" />
<glyph unicode="v" glyph-name="v" horiz-adv-x="523" d="M192 49L37 481Q32 495 40 507T64 520Q83 520 98 509T119 480L261 46Q261 45 262 45Q264 45 264 46L406 482Q411 499 426 509T459 520Q474 520 482 508T486 482L330 49Q322 27 303 14T261 0T219 13T192 49Z" />
<glyph unicode="w" glyph-name="w" horiz-adv-x="770" d="M165 48L46 480Q42 495 51 507T77 520Q95 520 109 509T128 480L227 67Q227 66 228 66T229 67L323 470Q329 492 346 506T386 520T427 506T450 470L543 67Q543 66 545 66Q546 66 546 67L645 481Q650 498
663 509T695 520Q710 520 719 508T724 481L605 48Q599 27 582 14T543 0T504 14T480 49L386 446Q386 447 385 447T384 446L290 49Q285 28 268 14T229 0T189 13T165 48Z" />
<glyph unicode="x" glyph-name="x" horiz-adv-x="504" d="M72 0Q59 0 53 12T54 35L203 257Q209 264 203 272L59 484Q51 495 57 507T78 520Q123 520 145 484L252 314Q252 313 253 313Q255 313 255 314L363 485Q385 520 427 520Q440 520 446 508T445 485L301 272Q295
264 301 257L450 36Q457 25 451 13T431 0Q386 0 364 36L252 215H251H249L136 35Q114 0 72 0Z" />
<glyph unicode="y" glyph-name="y" horiz-adv-x="522" d="M212 12L37 482Q32 496 40 508T64 520Q82 520 96 510T117 482L254 93Q254 92 255 92Q257 92 257 93L408 484Q414 500 428 510T461 520Q475 520 482 509T485 484L210 -184Q203 -200 189 -210T156 -220Q142
-220 135 -209T133 -184L212 -4Q215 4 212 12Z" />
<glyph unicode="z" glyph-name="z" horiz-adv-x="536" d="M93 84L369 457V459Q369 460 368 460H105Q92 460 84 468T75 490T83 511T105 520H431Q444 520 452 512T461 490Q461 460 443 436L167 63V61Q167 60 168 60H431Q444 60 452 52T461 30T453 9T431 0H105Q92
0 84 8T75 30Q75 60 93 84Z" />
<glyph unicode="{" glyph-name="braceleft" horiz-adv-x="514" d="M92 283Q79 283 70 292T60 315T69 337T92 347H104Q187 347 187 470V620Q187 700 219 735T324 770H394Q407 770 415 762T424 740T416 719T394 710H357Q303 710 282 689T260 600V467Q260 355 178
317Q177 317 177 315T178 313Q260 275 260 163V30Q260 -38 281 -59T357 -80H394Q407 -80 415 -88T424 -110T416 -131T394 -140H324Q252 -140 220 -105T187 10V160Q187 283 104 283H92Z" />
<glyph unicode="|" glyph-name="bar" horiz-adv-x="344" d="M187 -220T172 -220T146 -209T135 -183V773Q135 788 146 799T172 810T198 799T209 773V-183Q209 -198 198 -209Z" />
<glyph unicode="}" glyph-name="braceright" horiz-adv-x="514" d="M336 313Q337 313 337 315T336 317Q254 355 254 467V600Q254 668 233 689T157 710H120Q107 710 99 718T90 740T98 761T120 770H190Q262 770 294 735T327 620V470Q327 347 410 347H422Q435 347
444 338T454 315T445 293T422 283H410Q327 283 327 160V10Q327 -70 295 -105T190 -140H120Q107 -140 99 -132T90 -110T98 -89T120 -80H157Q211 -80 232 -59T254 30V163Q254 275 336 313Z" />
<glyph unicode="~" glyph-name="asciitilde" horiz-adv-x="674" d="M67 268Q57 276 56 288T61 311Q122 390 215 390Q290 390 355 325Q406 274 459 274Q521 274 566 327Q574 336 585 337T607 332Q617 324 618 312T613 289Q552 210 459 210Q384 210 319 275Q268
326 215 326Q153 326 108 273Q100 264 89 263T67 268Z" />
<glyph unicode="&#xa0;" glyph-name="uni00A0" horiz-adv-x="270" />
<glyph unicode="&#xa1;" glyph-name="exclamdown" horiz-adv-x="322" d="M180 -220T161 -220T129 -207T115 -173L124 280Q124 295 135 306T161 317T187 306T198 280L207 -173Q207 -193 194 -206ZM179 397T161 397T131 409T118 440V477Q118 495 130 507T161 520T191
508T204 477V440Q204 422 192 410Z" />
<glyph unicode="&#xa2;" glyph-name="cent" horiz-adv-x="505" d="M248 464Q183 452 152 402T120 260T151 120T248 57Q256 55 256 64V457Q256 466 248 464ZM248 -6Q40 21 40 260Q40 381 93 449T248 528Q256 530 256 537V660Q256 673 264 681T286 690T307 682T316
660V538Q316 529 324 529Q355 528 401 519Q416 516 425 505T435 478Q435 466 425 459T403 454Q364 464 324 467Q316 467 316 459V60Q316 52 325 52Q366 53 408 67Q419 71 429 64T440 45Q440 30 431 18T407 2Q370 -7 324 -9Q316 -9 316 -18V-150Q316 -163 308 -171T286
-180T265 -172T256 -150V-16Q256 -8 248 -6Z" />
<glyph unicode="&#xa3;" glyph-name="sterling" horiz-adv-x="614" d="M109 0Q95 0 85 10T75 33Q75 59 108 76T161 134T182 233V330Q182 338 173 338H124Q111 338 103 346T94 368T102 389T124 398H173Q182 398 182 407V540Q182 635 239 687T404 740Q447 740 491
729Q506 725 515 713T524 684Q524 671 513 664T490 661Q451 672 412 672Q262 672 262 532V407Q262 398 271 398H447Q460 398 468 390T477 368T469 347T447 338H271Q262 338 262 330V233Q262 176 242 133T189 69Q188 69 188 68T189 67H505Q518 67 528 57T539 33T529
10T505 0H109Z" />
<glyph unicode="&#xa4;" glyph-name="currency" horiz-adv-x="648" d="M392 528T324 528T209 480T161 365T208 250T324 202T439 250T487 365T440 480ZM69 153L136 219Q142 225 136 232Q94 290 94 365T136 498Q142 505 136 511L69 577Q60 586 60 598T69 620T90
629T112 620L178 553Q184 547 191 553Q249 595 324 595T457 553Q464 547 470 553L536 620Q545 629 557 629T579 620T588 599T579 577L512 511Q506 505 512 498Q554 440 554 365T512 232Q506 225 512 219L579 153Q588 144 588 132T579 110T558 101T536 110L470 177Q464
183 457 177Q399 135 324 135T191 177Q184 183 178 177L112 110Q103 101 91 101T69 110T60 131T69 153Z" />
<glyph unicode="&#xa5;" glyph-name="yen" horiz-adv-x="620" d="M237 361L39 690Q31 704 38 717T62 730Q109 730 132 689L310 377Q310 376 311 376Q313 376 313 377L491 690Q513 730 559 730Q574 730 581 717T581 691L383 361Q381 359 382 356T387 353H530Q541
353 549 346T557 327T549 308T530 300H360Q352 300 352 291V214Q352 205 360 205H530Q541 205 549 197T557 178T549 160T530 152H360Q352 152 352 143V42Q352 25 340 13T310 0T281 12T268 42V143Q268 152 260 152H90Q79 152 71 159T63 178T71 197T90 205H260Q268
205 268 214V291Q268 300 260 300H90Q79 300 71 308T63 327T71 345T90 353H233Q236 353 237 356T237 361Z" />
<glyph unicode="&#xa6;" glyph-name="brokenbar" horiz-adv-x="344" d="M187 -140T172 -140T146 -129T135 -103V183Q135 198 146 209T172 220T198 209T209 183V-103Q209 -118 198 -129ZM187 370T172 370T146 381T135 407V693Q135 708 146 719T172 730T198 719T209
693V407Q209 392 198 381Z" />
<glyph unicode="&#xa7;" glyph-name="section" horiz-adv-x="520" d="M190 410Q125 381 125 312Q125 264 157 236T266 191Q294 184 313 179Q320 176 330 180Q395 209 395 278Q395 326 363 354T254 399Q226 406 207 411Q200 414 190 410ZM60 301Q60 388 133 435Q135
436 135 439T133 444Q65 489 65 575Q65 647 119 693T260 740Q337 740 404 717Q437 705 437 669Q437 656 426 650T404 648Q334 675 267 675Q207 675 173 648T138 575Q138 533 165 507T263 467Q368 446 414 403T460 289Q460 202 387 155Q385 154 385 151T387 146Q455
101 455 15Q455 -57 401 -103T260 -150Q183 -150 116 -127Q83 -115 83 -79Q83 -66 94 -60T116 -58Q186 -85 253 -85Q313 -85 347 -58T382 15Q382 57 355 83T257 123Q152 144 106 187T60 301Z" />
<glyph unicode="&#xa8;" glyph-name="dieresis" horiz-adv-x="444" d="M337 610T322 610T296 621T285 647V700Q285 715 296 726T322 737T348 726T359 700V647Q359 632 348 621ZM137 610T122 610T96 621T85 647V700Q85 715 96 726T122 737T148 726T159 700V647Q159
632 148 621Z" />
<glyph unicode="&#xa9;" glyph-name="copyright" horiz-adv-x="816" d="M426 148Q333 148 279 204T224 365Q224 468 276 525T422 582Q472 582 508 574Q536 567 536 538Q536 527 527 521T507 518Q468 528 430 528Q367 528 332 486T296 365Q296 288 333 245T434
202Q478 202 513 212Q523 215 531 209T540 192Q540 163 512 156Q476 148 426 148ZM538 680T408 680T186 588T93 365T185 142T408 50T630 142T723 365T631 588ZM560 -3T408 -3T148 105T40 365T148 625T408 733T668 625T776 365T668 105Z" />
<glyph unicode="&#xaa;" glyph-name="ordfeminine" horiz-adv-x="630" d="M115 203Q104 203 97 210T90 227Q90 238 97 245T115 252H515Q526 252 533 245T540 227Q540 217 533 210T515 203H115ZM408 496V527Q408 535 399 535H361Q291 535 247 512T202 439Q202 403
222 382T276 360Q335 360 371 397T408 496ZM399 581Q408 581 408 589V604Q408 652 387 671T308 691Q254 691 188 670Q179 667 171 672T162 688Q162 716 187 723Q249 740 308 740Q400 740 435 706T470 585V345Q470 333 462 325T441 316T420 324T411 345L410 378L409
379Q408 379 408 378Q360 308 262 308Q208 308 174 342T140 433Q140 502 195 541T361 581H399Z" />
<glyph unicode="&#xab;" glyph-name="guillemotleft" horiz-adv-x="720" d="M382 241Q359 259 359 290T382 339L597 508Q605 515 615 510T625 494Q625 458 597 436L409 292Q408 291 408 290L409 288L597 144Q625 122 625 86Q625 75 615 70T597 72L382 241ZM303
436L115 292V290V288L303 144Q332 121 332 86Q332 75 322 70T304 72L89 241Q65 260 65 290T89 339L304 508Q312 515 322 510T332 494Q332 459 303 436Z" />
<glyph unicode="&#xac;" glyph-name="logicalnot" horiz-adv-x="656" d="M91 373Q78 373 69 382T60 405T69 427T91 437H510Q533 437 549 420T566 380V188Q566 174 556 164T531 153T507 163T496 188V365Q496 373 488 373H91Z" />
<glyph unicode="&#xad;" glyph-name="uni00AD" horiz-adv-x="466" d="M113 257Q100 257 90 266T80 290T90 313T113 323H353Q366 323 376 314T386 290T376 267T353 257H113Z" />
<glyph unicode="&#xae;" glyph-name="registered" horiz-adv-x="816" d="M329 517V388Q329 379 338 379H378Q504 379 504 457Q504 530 387 530Q362 530 338 527Q329 525 329 517ZM308 153T294 153T270 163T259 188V517Q259 541 275 560T315 580Q340 582 391 582Q574
582 574 463Q574 421 548 391T476 350Q475 350 475 349L476 348Q506 334 533 274L572 187Q577 175 570 164T550 153Q514 153 499 187L464 269Q446 308 431 318T376 328H338Q329 328 329 319V188Q329 174 319 164ZM538 680T408 680T186 588T93 365T185 142T408 50T630
142T723 365T631 588ZM560 -3T408 -3T148 105T40 365T148 625T408 733T668 625T776 365T668 105Z" />
<glyph unicode="&#xaf;" glyph-name="overscore" horiz-adv-x="466" d="M90 643Q77 643 69 651T60 673T68 694T90 703H376Q389 703 397 695T406 673T398 652T376 643H90Z" />
<glyph unicode="&#xb0;" glyph-name="degree" horiz-adv-x="396" d="M237 680T198 680T132 653T105 587T132 521T198 493T264 520T291 587T264 653ZM262 433T198 433T90 478T45 587T89 695T198 740T306 696T351 587T307 478Z" />
<glyph unicode="&#xb1;" glyph-name="plusminus" horiz-adv-x="754" d="M122 -40Q108 -40 99 -31T90 -8Q90 5 99 14T122 23H632Q646 23 655 14T664 -8T655 -30T632 -40H122ZM122 342Q108 342 99 351T90 373T99 395T122 405H335Q344 405 344 414V617Q344 630 354
640T377 650T400 640T410 617V414Q410 405 419 405H632Q645 405 654 396T664 373T655 351T632 342H419Q410 342 410 333V130Q410 116 400 107T377 97T354 106T344 130V333Q344 342 335 342H122Z" />
<glyph unicode="&#xb2;" glyph-name="uni00B2" horiz-adv-x="380" d="M75 292Q64 292 57 300T49 318Q49 343 70 361Q186 459 224 509T263 606Q263 683 181 683Q138 683 85 661Q76 657 67 662T58 678Q58 708 85 718Q139 736 188 736Q254 736 289 703T325 611Q325
556 285 500T133 346Q132 345 132 344H304Q314 344 322 336T330 318T322 300T304 292H75Z" />
<glyph unicode="&#xb3;" glyph-name="uni00B3" horiz-adv-x="380" d="M76 678Q66 678 58 686T50 704T58 722T76 730H295Q306 730 313 722T321 704Q321 678 302 661L182 550L181 549H182H194Q258 549 292 517T327 426Q327 286 170 286Q125 286 81 300Q55 308 55
338Q55 348 63 353T81 354Q126 337 165 337Q267 337 267 425Q267 463 243 484T147 505H131Q122 505 116 511T109 527Q109 548 125 564L245 677V678H76Z" />
<glyph unicode="&#xb4;" glyph-name="acute" horiz-adv-x="225" d="M60 590Q48 590 43 600T44 621L108 715Q137 757 187 757Q202 757 208 743T205 718L122 619Q97 590 60 590Z" />
<glyph unicode="&#xb5;" glyph-name="mu" horiz-adv-x="565" d="M126 -220T111 -220T86 -210T75 -184V484Q75 499 85 509T111 520T136 510T147 484V197Q147 117 173 85T263 53Q323 53 370 107T417 237V483Q417 498 427 509T453 520T479 509T490 483V35Q490 21
480 11T455 0T431 10T420 35L419 92Q419 93 418 93Q416 93 416 91Q389 44 345 17T251 -10Q185 -10 152 24Q150 26 149 25T147 22V-184Q147 -199 137 -209Z" />
<glyph unicode="&#xb6;" glyph-name="paragraph" horiz-adv-x="630" d="M256 270Q164 274 100 340T35 500Q35 595 102 662T265 730H489Q512 730 528 713T545 673V-105Q545 -119 535 -129T510 -140T486 -130T475 -105V658Q475 667 467 667H344Q335 667 335 658V-105Q335
-119 325 -129T300 -140T276 -130T265 -105V262Q265 270 256 270Z" />
<glyph unicode="&#xb7;" glyph-name="middot" horiz-adv-x="284" d="M162 220T142 220T109 234T95 267V313Q95 332 108 346T142 360T175 346T189 313V267Q189 248 176 234Z" />
<glyph unicode="&#xb8;" glyph-name="cedilla" horiz-adv-x="410" d="M81 -209Q67 -205 59 -194T50 -167Q50 -156 59 -150T80 -148Q116 -160 153 -160Q263 -160 263 -84Q263 -54 245 -27Q240 -19 244 -10T258 0Q297 0 315 -30Q335 -64 335 -102Q335 -154 293 -187T160
-220Q122 -220 81 -209Z" />
<glyph unicode="&#xb9;" glyph-name="uni00B9" horiz-adv-x="380" d="M81 586Q73 579 63 583T53 599Q53 633 81 656L148 710Q173 730 205 730Q218 730 227 721T237 698V324Q237 310 228 301T205 292T183 301T173 324V659V660L172 659L81 586Z" />
<glyph unicode="&#xba;" glyph-name="ordmasculine" horiz-adv-x="630" d="M115 203Q104 203 97 210T90 227Q90 238 97 245T115 252H515Q526 252 533 245T540 227Q540 217 533 210T515 203H115ZM442 357T442 524T315 691T188 524T315 357ZM124 421T124 524T174
683T315 740T455 684T506 524T456 365T315 308T175 364Z" />
<glyph unicode="&#xbb;" glyph-name="guillemotright" horiz-adv-x="720" d="M338 339Q361 321 361 290T338 241L123 72Q115 65 105 70T95 86Q95 122 123 144L311 288Q312 288 312 290L311 292L123 436Q95 458 95 494Q95 505 105 510T123 508L338 339ZM417 144L605
288V290V292L417 436Q388 459 388 494Q388 505 398 510T416 508L631 339Q655 320 655 290T631 241L416 72Q408 65 398 70T388 86Q388 121 417 144Z" />
<glyph unicode="&#xbc;" glyph-name="onequarter" horiz-adv-x="820" d="M655 156V359V360L654 359L502 149V148L503 147H647Q655 147 655 156ZM723 147H761Q772 147 779 140T786 122T779 105T761 97H723Q714 97 714 88V30Q714 18 706 9T685 0T664 9T655 30V88Q655
97 647 97H470Q460 97 453 104T445 122Q445 150 459 168L638 414Q656 438 685 438Q697 438 705 429T714 408V156Q714 147 723 147ZM676 730Q687 730 693 720T692 700L236 30Q214 0 180 0Q169 0 163 10T164 30L620 700Q642 730 676 730ZM65 586Q57 579 48 583T38
599Q38 634 65 656L132 710Q157 730 190 730Q204 730 213 721T222 698V324Q222 310 213 301T190 292T167 301T157 324V659V660L156 659L65 586Z" />
<glyph unicode="&#xbd;" glyph-name="onehalf" horiz-adv-x="820" d="M776 319Q776 264 736 208T583 54Q582 53 582 52H583H754Q764 52 772 44T780 26T772 8T754 0H525Q514 0 507 8T499 26Q499 51 520 69Q636 167 674 217T713 314Q713 391 631 391Q588 391 535
369Q526 365 517 370T508 386Q508 416 535 426Q589 444 638 444Q704 444 740 411T776 319ZM639 730Q650 730 656 720T655 700L199 30Q177 0 143 0Q132 0 126 10T127 30L583 700Q605 730 639 730ZM65 586Q57 579 48 583T38 599Q38 634 65 656L132 710Q157 730 190
730Q204 730 213 721T222 698V324Q222 310 213 301T190 292T167 301T157 324V659V660L156 659L65 586Z" />
<glyph unicode="&#xbe;" glyph-name="threequarters" horiz-adv-x="820" d="M655 156V359V360L654 359L502 149V148L503 147H647Q655 147 655 156ZM723 147H761Q772 147 779 140T786 122T779 105T761 97H723Q714 97 714 88V30Q714 18 706 9T685 0T664 9T655 30V88Q655
97 647 97H470Q460 97 453 104T445 122Q445 150 459 168L638 414Q656 438 685 438Q697 438 705 429T714 408V156Q714 147 723 147ZM684 730Q695 730 701 720T700 700L244 30Q222 0 188 0Q177 0 171 10T172 30L628 700Q650 730 684 730ZM74 678Q64 678 56 686T48
704T56 722T74 730H294Q304 730 312 722T320 704Q320 679 300 661L180 550L179 549H180H193Q257 549 291 517T326 426Q326 357 286 322T168 286Q124 286 80 300Q68 304 61 314T53 338Q53 348 61 353T79 354Q124 337 163 337Q265 337 265 425Q265 463 241 484T145
505H129Q120 505 114 511T107 527Q107 548 123 564L243 677L244 678H243H74Z" />
<glyph unicode="&#xbf;" glyph-name="questiondown" horiz-adv-x="603" d="M311 477Q311 495 324 507T355 520T385 508T398 477V440Q398 422 386 410T355 397T324 409T311 440V477ZM308 -230Q191 -230 128 -187T65 -67Q65 -31 74 -3T105 48T142 85T189 120Q224
144 243 160T283 207T311 273Q314 290 326 301T355 313Q372 313 383 301T392 273Q385 228 361 190T315 133T254 87Q218 61 200 47T165 3T148 -60Q148 -162 318 -162Q410 -162 502 -136Q516 -132 527 -140T538 -161Q538 -178 529 -190T503 -207Q405 -230 308 -230Z"
/>
<glyph unicode="&#xc0;" glyph-name="Agrave" horiz-adv-x="639" d="M195 285Q194 282 196 280T201 277H436Q439 277 440 279T442 285L320 657Q320 658 319 658Q317 658 317 657L195 285ZM60 0Q45 0 36 12T32 39L260 688Q267 707 283 718T320 730T356 719T380
688L607 40Q612 25 603 13T579 0Q559 0 544 11T522 41L469 205Q466 213 457 213H180Q172 213 169 205L114 40Q108 22 93 11T60 0ZM217 957Q267 957 296 915L360 821Q367 811 362 801T344 790Q306 790 282 819L199 918Q189 929 195 943T217 957Z" />
<glyph unicode="&#xc1;" glyph-name="Aacute" horiz-adv-x="639" d="M195 285Q194 282 196 280T201 277H436Q439 277 440 279T442 285L320 657Q320 658 319 658Q317 658 317 657L195 285ZM60 0Q45 0 36 12T32 39L260 688Q267 707 283 718T320 730T356 719T380
688L607 40Q612 25 603 13T579 0Q559 0 544 11T522 41L469 205Q466 213 457 213H180Q172 213 169 205L114 40Q108 22 93 11T60 0ZM344 915Q373 957 423 957Q438 957 444 943T441 918L358 819Q334 790 296 790Q284 790 279 800T280 821L344 915Z" />
<glyph unicode="&#xc2;" glyph-name="Acircumflex" horiz-adv-x="639" d="M195 285Q194 282 196 280T201 277H436Q439 277 440 279T442 285L320 657Q320 658 319 658Q317 658 317 657L195 285ZM60 0Q45 0 36 12T32 39L260 688Q267 707 283 718T320 730T356 719T380
688L607 40Q612 25 603 13T579 0Q559 0 544 11T522 41L469 205Q466 213 457 213H180Q172 213 169 205L114 40Q108 22 93 11T60 0ZM265 957T320 957T410 914L483 825Q491 814 485 802T466 790Q420 790 394 826L322 921Q322 922 320 922L318 921L247 826Q220 790
174 790Q160 790 154 802T157 825L230 914Q265 957 320 957Z" />
<glyph unicode="&#xc3;" glyph-name="Atilde" horiz-adv-x="639" d="M195 285Q194 282 196 280T201 277H436Q439 277 440 279T442 285L320 657Q320 658 319 658Q317 658 317 657L195 285ZM60 0Q45 0 36 12T32 39L260 688Q267 707 283 718T320 730T356 719T380
688L607 40Q612 25 603 13T579 0Q559 0 544 11T522 41L469 205Q466 213 457 213H180Q172 213 169 205L114 40Q108 22 93 11T60 0ZM440 899Q441 912 450 921T473 930Q486 930 495 921T504 898Q494 800 423 800Q378 800 309 846Q255 882 232 882Q204 882 200 832Q198
819 189 810T167 800T145 809T136 831Q144 940 217 940Q262 940 330 895Q385 858 408 858Q434 858 440 899Z" />
<glyph unicode="&#xc4;" glyph-name="Adieresis" horiz-adv-x="639" d="M195 285Q194 282 196 280T201 277H436Q439 277 440 279T442 285L320 657Q320 658 319 658Q317 658 317 657L195 285ZM60 0Q45 0 36 12T32 39L260 688Q267 707 283 718T320 730T356 719T380
688L607 40Q612 25 603 13T579 0Q559 0 544 11T522 41L469 205Q466 213 457 213H180Q172 213 169 205L114 39Q108 21 94 11T60 0ZM383 900Q383 915 394 926T420 937T446 926T457 900V847Q457 832 446 821T420 810T394 821T383 847V900ZM183 900Q183 915 194 926T220
937T246 926T257 900V847Q257 832 246 821T220 810T194 821T183 847V900Z" />
<glyph unicode="&#xc5;" glyph-name="Aring" horiz-adv-x="639" d="M195 285Q194 282 196 280T201 277H436Q439 277 440 279T442 285L320 657Q320 658 319 658Q317 658 317 657L195 285ZM60 0Q45 0 36 12T32 39L260 688Q267 707 283 718T320 730T356 719T380 688L607
40Q612 25 603 13T579 0Q559 0 544 11T522 41L469 205Q466 213 457 213H180Q172 213 169 205L114 39Q108 21 94 11T60 0ZM397 858T397 890T374 944T320 967T266 945T243 890T265 836T319 813T374 835ZM197 839T197 890T233 977T320 1013T407 977T443 890T407 803T320
767T233 803Z" />
<glyph unicode="&#xc6;" glyph-name="AE" horiz-adv-x="796" d="M196 285Q195 282 197 280T202 277H356Q365 277 365 285V655Q365 663 356 663H335Q327 663 324 655L196 285ZM58 0Q43 0 35 12T32 37L265 677Q274 701 294 715T341 730H688Q701 730 711 720T721
697T711 673T688 663H450Q441 663 441 655V433Q441 425 450 425H669Q682 425 691 416T701 393T692 371T669 361H450Q441 361 441 352V75Q441 67 450 67H688Q701 67 711 57T721 34T711 10T688 0H421Q398 0 382 17T365 57V204Q365 213 356 213H180Q171 213 168 205L111
38Q105 21 91 11T58 0Z" />
<glyph unicode="&#xc7;" glyph-name="Ccedilla" horiz-adv-x="613" d="M331 -9Q199 0 120 98T40 365Q40 542 123 641T355 740Q433 740 494 725Q509 721 518 708T528 679Q528 666 518 659T494 655Q435 673 362 673Q249 673 185 592T121 365Q121 220 187 139T365
57Q439 57 499 75Q512 79 522 72T533 51Q533 35 524 23T499 6Q453 -5 417 -8Q409 -8 414 -16Q443 -57 443 -102Q443 -154 401 -187T268 -220Q230 -220 189 -209Q175 -205 167 -194T158 -167Q158 -156 167 -150T188 -148Q224 -160 261 -160Q371 -160 371 -84Q371
-48 345 -16Q340 -9 331 -9Z" />
<glyph unicode="&#xc8;" glyph-name="Egrave" horiz-adv-x="587" d="M227 957Q277 957 306 915L370 821Q377 811 372 801T354 790Q316 790 292 819L209 918Q199 929 205 943T227 957ZM142 0Q119 0 102 17T85 57V673Q85 696 102 713T142 730H478Q492 730 502 720T512
697T502 674T478 663H174Q165 663 165 655V433Q165 425 174 425H460Q474 425 483 416T492 393T483 371T460 361H174Q165 361 165 352V75Q165 67 174 67H478Q492 67 502 57T512 33T502 10T478 0H142Z" />
<glyph unicode="&#xc9;" glyph-name="Eacute" horiz-adv-x="587" d="M294 915Q323 957 373 957Q388 957 394 943T391 918L308 819Q284 790 246 790Q234 790 229 800T230 821L294 915ZM142 0Q119 0 102 17T85 57V673Q85 696 102 713T142 730H478Q492 730 502 720T512
697T502 674T478 663H174Q165 663 165 655V433Q165 425 174 425H460Q474 425 483 416T492 393T483 371T460 361H174Q165 361 165 352V75Q165 67 174 67H478Q492 67 502 57T512 33T502 10T478 0H142Z" />
<glyph unicode="&#xca;" glyph-name="Ecircumflex" horiz-adv-x="587" d="M245 957T300 957T390 914L463 825Q471 814 465 802T446 790Q401 790 374 826L302 921Q302 922 300 922L298 921L227 826Q200 790 154 790Q140 790 134 802T137 825L210 914Q245 957 300
957ZM142 0Q119 0 102 17T85 57V673Q85 696 102 713T142 730H478Q492 730 502 720T512 697T502 674T478 663H174Q165 663 165 655V433Q165 425 174 425H460Q474 425 483 416T492 393T483 371T460 361H174Q165 361 165 352V75Q165 67 174 67H478Q492 67 502 57T512
33T502 10T478 0H142Z" />
<glyph unicode="&#xcb;" glyph-name="Edieresis" horiz-adv-x="587" d="M363 900Q363 915 374 926T400 937T426 926T437 900V847Q437 832 426 821T400 810T374 821T363 847V900ZM163 900Q163 915 174 926T200 937T226 926T237 900V847Q237 832 226 821T200 810T174
821T163 847V900ZM142 0Q119 0 102 17T85 57V673Q85 696 102 713T142 730H478Q492 730 502 720T512 697T502 674T478 663H174Q165 663 165 655V433Q165 425 174 425H460Q474 425 483 416T492 393T483 371T460 361H174Q165 361 165 352V75Q165 67 174 67H478Q492
67 502 57T512 33T502 10T478 0H142Z" />
<glyph unicode="&#xcc;" glyph-name="Igrave" horiz-adv-x="290" d="M76 819L-7 918Q-17 929 -11 943T11 957Q62 957 91 915L154 821Q160 811 155 801T138 790Q100 790 76 819ZM89 687Q89 705 101 717T132 730T162 718T175 687V43Q175 25 163 13T132 0T102 12T89 43V687Z" />
<glyph unicode="&#xcd;" glyph-name="Iacute" horiz-adv-x="290" d="M199 915Q228 957 279 957Q294 957 300 943T297 918L214 819Q190 790 152 790Q140 790 135 800T136 821L199 915ZM176 0T158 0T128 12T115 43V687Q115 705 127 717T158 730T188 718T201 687V43Q201
25 189 13Z" />
<glyph unicode="&#xce;" glyph-name="Icircumflex" horiz-adv-x="267" d="M-12 790Q-26 790 -32 802T-29 825L44 914Q79 957 134 957T224 914L297 825Q305 814 299 802T280 790Q233 790 207 826L136 921Q135 922 134 922L132 921L60 826Q33 790 -12 790ZM91 687Q91
705 103 717T134 730T164 718T177 687V43Q177 25 165 13T134 0T104 12T91 43V687Z" />
<glyph unicode="&#xcf;" glyph-name="Idieresis" horiz-adv-x="318" d="M274 810T259 810T233 821T222 847V900Q222 915 233 926T259 937T285 926T296 900V847Q296 832 285 821ZM74 810T59 810T33 821T22 847V900Q22 915 33 926T59 937T85 926T96 900V847Q96 832
85 821ZM177 0T159 0T129 12T116 43V687Q116 705 128 717T159 730T189 718T202 687V43Q202 25 190 13Z" />
<glyph unicode="&#xd0;" glyph-name="Eth" horiz-adv-x="725" d="M232 340V74Q232 66 241 64Q280 57 329 57Q474 57 541 132T609 375Q609 528 541 600T329 673Q280 673 241 666Q232 664 232 656V422Q232 413 241 413H383Q396 413 405 404T415 381T406 359T383
349H241Q232 349 232 340ZM67 349Q54 349 45 358T35 381T44 403T67 413H143Q152 413 152 422V668Q152 693 167 711T208 733Q263 740 329 740Q685 740 685 375Q685 -10 329 -10Q263 -10 208 -3Q184 0 168 18T152 62V340Q152 349 143 349H67Z" />
<glyph unicode="&#xd1;" glyph-name="Ntilde" horiz-adv-x="686" d="M140 0T124 0T97 11T85 39V689Q85 706 97 718T126 730Q168 730 189 694L520 131Q520 130 522 130Q523 130 523 132V691Q523 708 534 719T562 730T589 719T601 691V41Q601 24 589 12T560 0Q519
0 498 36L166 599Q166 600 164 600Q163 600 163 599V39Q163 22 152 11ZM483 930T496 930T518 921T527 898Q518 800 446 800Q401 800 332 846Q279 882 255 882Q228 882 223 832Q221 819 212 810T190 800T168 809T159 831Q167 940 240 940Q286 940 353 895Q408 858
431 858Q458 858 463 899Q465 912 474 921Z" />
<glyph unicode="&#xd2;" glyph-name="Ograve" horiz-adv-x="714" d="M471 673T357 673T183 595T122 365T182 135T357 57T531 135T592 365T532 595ZM505 -10T357 -10T125 88T40 365T124 641T357 740T589 642T674 365T590 89ZM254 957Q304 957 333 915L397 821Q404
811 399 801T381 790Q343 790 319 819L236 918Q226 929 232 943T254 957Z" />
<glyph unicode="&#xd3;" glyph-name="Oacute" horiz-adv-x="714" d="M471 673T357 673T183 595T122 365T182 135T357 57T531 135T592 365T532 595ZM505 -10T357 -10T125 88T40 365T124 641T357 740T589 642T674 365T590 89ZM381 915Q410 957 460 957Q475 957 481
943T478 918L395 819Q371 790 333 790Q321 790 316 800T317 821L381 915Z" />
<glyph unicode="&#xd4;" glyph-name="Ocircumflex" horiz-adv-x="714" d="M471 673T357 673T183 595T122 365T182 135T357 57T531 135T592 365T532 595ZM505 -10T357 -10T125 88T40 365T124 641T357 740T589 642T674 365T590 89ZM302 957T357 957T447 914L520
825Q528 814 522 802T503 790Q457 790 430 826L359 921Q359 922 357 922L355 921L284 826Q257 790 211 790Q198 790 192 802T194 825L267 914Q302 957 357 957Z" />
<glyph unicode="&#xd5;" glyph-name="Otilde" horiz-adv-x="714" d="M471 673T357 673T183 595T122 365T182 135T357 57T531 135T592 365T532 595ZM505 -10T357 -10T125 88T40 365T124 641T357 740T589 642T674 365T590 89ZM477 899Q479 912 488 921T510 930T532
921T541 898Q532 800 460 800Q415 800 346 846Q293 882 269 882Q242 882 237 832Q235 819 226 810T204 800T182 809T173 831Q181 940 254 940Q300 940 367 895Q422 858 445 858Q472 858 477 899Z" />
<glyph unicode="&#xd6;" glyph-name="Odieresis" horiz-adv-x="714" d="M471 673T357 673T183 595T122 365T182 135T357 57T531 135T592 365T532 595ZM505 -10T357 -10T125 88T40 365T124 641T357 740T589 642T674 365T590 89ZM420 900Q420 915 431 926T457 937T483
926T494 900V847Q494 832 483 821T457 810T431 821T420 847V900ZM220 900Q220 915 231 926T257 937T283 926T294 900V847Q294 832 283 821T257 810T231 821T220 847V900Z" />
<glyph unicode="&#xd7;" glyph-name="multiply" horiz-adv-x="577" d="M56 106L232 284Q238 290 232 296L56 474Q45 484 45 498T55 523T80 534T104 523L282 346Q288 340 294 346L472 523Q483 534 497 534T521 523T532 498T522 474L344 296Q338 290 344 284L522
106Q532 96 532 82T522 57T497 46T472 57L294 234Q288 240 282 234L104 57Q94 46 80 46T56 57T45 82T56 106Z" />
<glyph unicode="&#xd8;" glyph-name="Oslash" horiz-adv-x="724" d="M362 673Q248 673 188 595T127 365Q127 230 175 153Q176 151 180 151T185 153L489 629Q493 637 487 640Q436 673 362 673ZM539 577L235 101Q231 93 237 90Q288 57 362 57Q476 57 536 135T597
365Q597 500 549 577Q548 579 544 579T539 577ZM133 73Q137 79 132 86Q45 185 45 365Q45 543 129 641T362 740Q455 740 525 699Q533 695 536 702L554 730Q562 742 576 745T602 740T617 718T612 691L591 657Q587 651 592 644Q679 545 679 365Q679 187 595 89T362
-10Q269 -10 199 31Q191 35 188 28L170 0Q162 -12 148 -15T122 -10T107 12T112 39L133 73Z" />
<glyph unicode="&#xd9;" glyph-name="Ugrave" horiz-adv-x="656" d="M451 -10T328 -10T140 55T75 250V689Q75 706 87 718T115 730Q132 730 144 718T156 689V247Q156 150 198 104T329 58T460 104T503 247V691Q503 708 514 719T542 730T569 719T581 691V250Q581
121 516 56ZM255 957Q305 957 334 915L398 821Q405 811 400 801T382 790Q344 790 320 819L237 918Q227 929 233 943T255 957Z" />
<glyph unicode="&#xda;" glyph-name="Uacute" horiz-adv-x="656" d="M451 -10T328 -10T140 55T75 250V689Q75 706 87 718T115 730Q132 730 144 718T156 689V247Q156 150 198 104T329 58T460 104T503 247V691Q503 708 514 719T542 730T569 719T581 691V250Q581
121 516 56ZM322 915Q351 957 401 957Q416 957 422 943T419 918L336 819Q312 790 274 790Q262 790 257 800T258 821L322 915Z" />
<glyph unicode="&#xdb;" glyph-name="Ucircumflex" horiz-adv-x="656" d="M451 -10T328 -10T140 55T75 250V689Q75 706 87 718T115 730Q132 730 144 718T156 689V247Q156 150 198 104T329 58T460 104T503 247V691Q503 708 514 719T542 730T569 719T581 691V250Q581
121 516 56ZM273 957T328 957T418 914L491 825Q499 814 493 802T474 790Q428 790 401 826L330 921Q329 922 328 922L326 921L255 826Q228 790 182 790Q168 790 162 802T165 825L238 914Q273 957 328 957Z" />
<glyph unicode="&#xdc;" glyph-name="Udieresis" horiz-adv-x="656" d="M451 -10T328 -10T140 55T75 250V689Q75 706 87 718T115 730Q132 730 144 718T156 689V247Q156 150 198 104T329 58T460 104T503 247V691Q503 708 514 719T542 730T569 719T581 691V250Q581
121 516 56ZM391 900Q391 915 402 926T428 937T454 926T465 900V847Q465 832 454 821T428 810T402 821T391 847V900ZM191 900Q191 915 202 926T228 937T254 926T265 900V847Q265 832 254 821T228 810T202 821T191 847V900Z" />
<glyph unicode="&#xdd;" glyph-name="Yacute" horiz-adv-x="610" d="M259 316L34 690Q26 704 33 717T57 730Q104 730 127 689L305 377Q305 376 306 376Q308 376 308 377L486 690Q508 730 554 730Q569 730 576 717T576 691L351 316Q347 309 347 300V42Q347 25 335
13T305 0T276 12T263 42V300Q263 309 259 316ZM299 915Q328 957 378 957Q393 957 399 943T396 918L313 819Q289 790 251 790Q239 790 234 800T235 821L299 915Z" />
<glyph unicode="&#xde;" glyph-name="Thorn" horiz-adv-x="610" d="M165 537V243Q165 235 174 233Q222 226 282 226Q381 226 433 269T486 392T435 513T282 555Q228 555 174 547Q165 545 165 537ZM142 0T125 0T97 12T85 40V690Q85 706 96 718T125 730T153 718T165
690V622Q165 614 173 614Q230 620 288 620Q424 620 494 563T565 398Q565 282 494 222T288 162Q234 162 174 167Q165 167 165 160V40Q165 24 154 12Z" />
<glyph unicode="&#xdf;" glyph-name="germandbls" horiz-adv-x="594" d="M136 0T120 0T92 12T80 40V543Q80 659 130 709T300 760Q405 760 459 725T514 623Q514 590 497 553T458 490T419 440T401 405Q401 394 425 368T477 313T530 241T554 155Q554 -10 364 -10Q315
-10 258 2Q242 5 233 17T223 46Q223 59 234 67T258 72Q312 58 354 58Q474 58 474 167Q474 197 450 233T397 298T343 356T319 405Q319 425 349 461T409 540T439 617Q439 695 304 695Q221 695 191 664T160 545V40Q160 24 148 12Z" />
<glyph unicode="&#xe0;" glyph-name="agrave" horiz-adv-x="534" d="M204 -10Q136 -10 93 33T50 147Q50 230 116 280T327 330H359Q370 330 378 322T387 302V357Q387 418 359 442T260 467Q191 467 111 441Q99 437 89 444T79 464Q79 499 112 509Q186 530 260 530Q375
530 419 488T464 337V36Q464 21 454 11T428 0T402 10T391 36L390 88Q390 89 389 89Q387 89 387 87Q328 -10 204 -10ZM164 757Q214 757 243 715L307 621Q314 611 309 601T291 590Q253 590 229 619L146 718Q136 729 142 743T164 757ZM387 302Q387 291 379 283T359
275H327Q228 275 178 243T127 153Q127 108 152 81T220 53Q292 53 339 101T387 228V302Z" />
<glyph unicode="&#xe1;" glyph-name="aacute" horiz-adv-x="534" d="M204 -10Q136 -10 93 33T50 147Q50 230 116 280T327 330H359Q370 330 378 322T387 302V357Q387 418 359 442T260 467Q191 467 111 441Q99 437 89 444T79 464Q79 499 112 509Q186 530 260 530Q375
530 419 488T464 337V36Q464 21 454 11T428 0T402 10T391 36L390 88Q390 89 389 89Q387 89 387 87Q328 -10 204 -10ZM291 715Q320 757 370 757Q385 757 391 743T388 718L305 619Q281 590 243 590Q231 590 226 600T227 621L291 715ZM387 302Q387 291 379 283T359
275H327Q228 275 178 243T127 153Q127 108 152 81T220 53Q292 53 339 101T387 228V302Z" />
<glyph unicode="&#xe2;" glyph-name="acircumflex" horiz-adv-x="534" d="M204 -10Q136 -10 93 33T50 147Q50 230 116 280T327 330H359Q370 330 378 322T387 302V357Q387 418 359 442T260 467Q191 467 111 441Q99 437 89 444T79 464Q79 499 112 509Q186 530 260
530Q375 530 419 488T464 337V36Q464 21 454 11T428 0T402 10T391 36L390 88Q390 89 389 89Q387 89 387 87Q328 -10 204 -10ZM212 757T267 757T357 714L430 625Q438 614 432 602T413 590Q368 590 341 626L269 721Q269 722 267 722L265 721L194 626Q167 590 121
590Q107 590 101 602T104 625L177 714Q212 757 267 757ZM387 302Q387 291 379 283T359 275H327Q228 275 178 243T127 153Q127 108 152 81T220 53Q292 53 339 101T387 228V302Z" />
<glyph unicode="&#xe3;" glyph-name="atilde" horiz-adv-x="534" d="M327 275Q228 275 178 243T127 153Q127 108 152 81T220 53Q292 53 339 101T387 228V266Q387 275 378 275H327ZM204 -10Q136 -10 93 33T50 147Q50 230 116 280T327 330H378Q387 330 387 338V357Q387
418 359 442T260 467Q191 467 111 441Q99 437 89 444T79 464Q79 499 112 509Q186 530 260 530Q375 530 419 488T464 337V36Q464 21 454 11T428 0T402 10T391 36L390 88Q390 89 389 89Q387 89 387 87Q328 -10 204 -10ZM407 720T420 720T442 711T451 688Q442 590
370 590Q325 590 256 636Q203 672 179 672Q152 672 147 622Q145 609 136 600T114 590T92 599T83 621Q91 730 164 730Q210 730 277 685Q332 648 355 648Q382 648 387 689Q389 702 398 711Z" />
<glyph unicode="&#xe4;" glyph-name="adieresis" horiz-adv-x="534" d="M327 275Q228 275 178 243T127 153Q127 108 152 81T220 53Q292 53 339 101T387 228V266Q387 275 378 275H327ZM204 -10Q136 -10 93 33T50 147Q50 230 116 280T327 330H378Q387 330 387 338V357Q387
418 359 442T260 467Q191 467 111 441Q99 437 89 444T79 464Q79 499 112 509Q186 530 260 530Q375 530 419 488T464 337V36Q464 21 454 11T428 0T402 10T391 36L390 88Q390 89 389 89Q387 89 387 87Q328 -10 204 -10ZM352 737T367 737T393 726T404 700V647Q404
632 393 621T367 610T341 621T330 647V700Q330 715 341 726ZM130 700Q130 715 141 726T167 737T193 726T204 700V647Q204 632 193 621T167 610T141 621T130 647V700Z" />
<glyph unicode="&#xe5;" glyph-name="aring" horiz-adv-x="534" d="M327 275Q228 275 178 243T127 153Q127 108 152 81T220 53Q292 53 339 101T387 228V266Q387 275 378 275H327ZM204 -10Q136 -10 93 33T50 147Q50 230 116 280T327 330H378Q387 330 387 338V357Q387
418 359 442T260 467Q191 467 111 441Q99 437 89 444T79 464Q79 499 112 509Q186 530 260 530Q375 530 419 488T464 337V36Q464 21 454 11T428 0T402 10T391 36L390 88Q390 89 389 89Q387 89 387 87Q328 -10 204 -10ZM236 603T267 603T321 625T344 680T321 734T267
757T213 735T190 680T213 626ZM216 803T267 803T354 767T390 680T354 593T267 557T180 593T144 680T180 767Z" />
<glyph unicode="&#xe6;" glyph-name="ae" horiz-adv-x="864" d="M327 275Q228 275 178 243T127 153Q127 106 155 80T233 53Q298 53 342 100T387 223V266Q387 275 378 275H327ZM612 472Q478 472 465 305Q465 297 473 297H736Q745 297 745 305Q739 472 612 472ZM223
-10Q142 -10 96 32T50 147Q50 230 116 280T327 330H378Q387 330 387 339V360Q387 421 359 445T260 470T109 444Q98 440 88 447T78 466Q78 481 86 492T109 508Q188 530 260 530T374 515T438 464Q442 459 447 464Q504 530 612 530Q807 530 819 295Q820 271 803 255T762
238H472Q464 238 464 229Q469 138 514 93T637 48Q694 48 754 69Q765 73 775 67T785 48Q785 33 776 22T753 6Q689 -10 630 -10Q487 -10 427 91Q423 97 419 91Q357 -10 223 -10Z" />
<glyph unicode="&#xe7;" glyph-name="ccedilla" horiz-adv-x="493" d="M261 -9Q155 -2 98 66T40 260Q40 392 101 461T275 530Q327 530 385 519Q399 516 408 505T418 478Q418 466 408 459T385 455Q334 468 280 468Q120 468 120 260Q120 152 162 102T290 52Q346
52 392 67Q403 71 413 64T423 45Q423 30 414 19T391 3Q368 -3 346 -6Q339 -8 343 -14Q373 -55 373 -102Q373 -154 331 -187T198 -220Q160 -220 119 -209Q105 -205 97 -194T88 -167Q88 -156 97 -150T118 -148Q154 -160 191 -160Q301 -160 301 -84Q301 -48 275 -16Q270
-9 261 -9Z" />
<glyph unicode="&#xe8;" glyph-name="egrave" horiz-adv-x="524" d="M270 472Q131 472 118 307Q118 299 127 299H396Q404 299 404 307Q398 472 270 472ZM291 -10Q168 -10 104 57T40 260Q40 399 101 464T270 530Q467 530 479 297Q480 273 463 257T421 240H125Q117
240 117 231Q126 48 298 48Q355 48 415 69Q426 73 436 67T446 48Q446 14 415 6Q351 -10 291 -10ZM195 757Q245 757 274 715L338 621Q345 611 340 601T322 590Q284 590 260 619L177 718Q167 729 173 743T195 757Z" />
<glyph unicode="&#xe9;" glyph-name="eacute" horiz-adv-x="524" d="M270 472Q131 472 118 307Q118 299 127 299H396Q404 299 404 307Q398 472 270 472ZM291 -10Q168 -10 104 57T40 260Q40 399 101 464T270 530Q467 530 479 297Q480 273 463 257T421 240H125Q117
240 117 231Q126 48 298 48Q355 48 415 69Q426 73 436 67T446 48Q446 14 415 6Q351 -10 291 -10ZM262 715Q291 757 341 757Q356 757 362 743T359 718L276 619Q252 590 214 590Q202 590 197 600T198 621L262 715Z" />
<glyph unicode="&#xea;" glyph-name="ecircumflex" horiz-adv-x="524" d="M270 472Q131 472 118 307Q118 299 127 299H396Q404 299 404 307Q398 472 270 472ZM291 -10Q168 -10 104 57T40 260Q40 399 101 464T270 530Q467 530 479 297Q480 273 463 257T421 240H125Q117
240 117 231Q126 48 298 48Q355 48 415 69Q426 73 436 67T446 48Q446 14 415 6Q351 -10 291 -10ZM213 757T268 757T358 714L431 625Q439 614 433 602T414 590Q369 590 342 626L270 721Q270 722 268 722L266 721L195 626Q168 590 122 590Q108 590 102 602T105 625L178
714Q213 757 268 757Z" />
<glyph unicode="&#xeb;" glyph-name="edieresis" horiz-adv-x="524" d="M270 472Q131 472 118 307Q118 299 127 299H396Q404 299 404 307Q398 472 270 472ZM291 -10Q168 -10 104 57T40 260Q40 399 101 464T270 530Q467 530 479 297Q480 273 463 257T421 240H125Q117
240 117 231Q126 48 298 48Q355 48 415 69Q426 73 436 67T446 48Q446 14 415 6Q351 -10 291 -10ZM331 700Q331 715 342 726T368 737T394 726T405 700V647Q405 632 394 621T368 610T342 621T331 647V700ZM131 700Q131 715 142 726T168 737T194 726T205 700V647Q205
632 194 621T168 610T142 621T131 647V700Z" />
<glyph unicode="&#xec;" glyph-name="igrave" horiz-adv-x="293" d="M78 619L-6 718Q-16 729 -10 743T12 757Q63 757 92 715L156 621Q162 611 157 601T139 590Q102 590 78 619ZM98 480Q98 496 109 508T137 520T166 508T178 480V40Q178 24 166 12T138 0T110 12T98 40V480Z" />
<glyph unicode="&#xed;" glyph-name="iacute" horiz-adv-x="293" d="M201 715Q230 757 281 757Q296 757 302 743T299 718L215 619Q191 590 154 590Q142 590 136 600T137 621L201 715ZM172 0T155 0T127 12T115 40V480Q115 496 126 508T155 520T183 508T195 480V40Q195
24 184 12Z" />
<glyph unicode="&#xee;" glyph-name="icircumflex" horiz-adv-x="259" d="M-16 590Q-30 590 -36 602T-33 625L40 714Q75 757 130 757T220 714L293 625Q301 614 295 602T276 590Q229 590 203 626L132 721Q131 722 130 722L128 721L56 626Q29 590 -16 590ZM90 480Q90
496 101 508T129 520T158 508T170 480V40Q170 24 158 12T130 0T102 12T90 40V480Z" />
<glyph unicode="&#xef;" glyph-name="idieresis" horiz-adv-x="308" d="M269 610T254 610T228 621T217 647V700Q217 715 228 726T254 737T280 726T291 700V647Q291 632 280 621ZM69 610T54 610T28 621T17 647V700Q17 715 28 726T54 737T80 726T91 700V647Q91 632
80 621ZM170 0T154 0T126 12T114 40V480Q114 496 126 508T154 520T182 508T194 480V40Q194 24 182 12Z" />
<glyph unicode="&#xf0;" glyph-name="eth" horiz-adv-x="560" d="M280 50Q352 50 396 105T440 260Q440 358 398 412T280 467T163 413T120 260T166 106T280 50ZM390 639Q382 635 388 629Q515 500 515 260Q515 135 451 63T280 -10Q177 -10 111 63T45 260Q45 379
109 451T280 523Q351 523 400 479H401Q402 479 402 480Q376 553 322 601Q315 606 307 603L156 538Q146 533 136 537T121 552Q111 576 136 587L255 639Q257 640 257 642T255 646Q210 668 156 676Q143 678 134 687T125 710Q125 722 134 730T155 738Q254 726 328 678Q334
673 343 677L453 724Q463 729 473 725T488 710Q498 686 474 675L390 639Z" />
<glyph unicode="&#xf1;" glyph-name="ntilde" horiz-adv-x="565" d="M129 0T113 0T86 11T75 38V484Q75 499 85 509T111 520T137 510T148 484V443Q148 442 149 442T151 443Q223 530 322 530Q413 530 454 479T495 310V38Q495 22 485 11T458 0T431 11T420 38V300Q420
399 393 434T302 470Q250 470 201 422T152 322V38Q152 22 141 11ZM420 720T433 720T455 711T464 688Q455 590 383 590Q338 590 269 636Q216 672 192 672Q165 672 160 622Q158 609 149 600T127 590T105 599T96 621Q104 730 177 730Q222 730 290 685Q346 648 368
648Q395 648 400 689Q402 702 411 711Z" />
<glyph unicode="&#xf2;" glyph-name="ograve" horiz-adv-x="556" d="M438 470T278 470T118 260T278 50T438 260ZM390 -10T278 -10T103 61T40 260T103 459T278 530T453 459T516 260T453 61ZM175 757Q225 757 254 715L318 621Q325 611 320 601T302 590Q264 590 240
619L157 718Q147 729 153 743T175 757Z" />
<glyph unicode="&#xf3;" glyph-name="oacute" horiz-adv-x="556" d="M438 470T278 470T118 260T278 50T438 260ZM390 -10T278 -10T103 61T40 260T103 459T278 530T453 459T516 260T453 61ZM302 715Q331 757 381 757Q396 757 402 743T399 718L316 619Q292 590 254
590Q242 590 237 600T238 621L302 715Z" />
<glyph unicode="&#xf4;" glyph-name="ocircumflex" horiz-adv-x="556" d="M438 470T278 470T118 260T278 50T438 260ZM390 -10T278 -10T103 61T40 260T103 459T278 530T453 459T516 260T453 61ZM368 714L441 625Q449 614 443 602T424 590Q378 590 351 626L280
721Q280 722 278 722L276 721L205 626Q178 590 132 590Q118 590 112 602T115 625L188 714Q223 757 278 757T368 714Z" />
<glyph unicode="&#xf5;" glyph-name="otilde" horiz-adv-x="556" d="M438 470T278 470T118 260T278 50T438 260ZM390 -10T278 -10T103 61T40 260T103 459T278 530T453 459T516 260T453 61ZM398 689Q400 702 409 711T431 720T453 711T462 688Q453 590 381 590Q336
590 267 636Q214 672 190 672Q163 672 158 622Q156 609 147 600T125 590T103 599T94 621Q102 730 175 730Q220 730 288 685Q344 648 366 648Q393 648 398 689Z" />
<glyph unicode="&#xf6;" glyph-name="odieresis" horiz-adv-x="556" d="M438 470T278 470T118 260T278 50T438 260ZM390 -10T278 -10T103 61T40 260T103 459T278 530T453 459T516 260T453 61ZM341 700Q341 715 352 726T378 737T404 726T415 700V647Q415 632 404
621T378 610T352 621T341 647V700ZM141 700Q141 715 152 726T178 737T204 726T215 700V647Q215 632 204 621T178 610T152 621T141 647V700Z" />
<glyph unicode="&#xf7;" glyph-name="divide" horiz-adv-x="734" d="M410 43Q410 25 398 13T367 0T337 12T324 43V93Q324 111 336 124T367 137T397 124T410 93V43ZM324 537Q324 555 336 567T367 580T397 568T410 537V487Q410 469 398 456T367 443T337 456T324
487V537ZM112 258Q99 258 90 267T80 290T89 312T112 322H622Q635 322 644 313T654 290T645 268T622 258H112Z" />
<glyph unicode="&#xf8;" glyph-name="oslash" horiz-adv-x="566" d="M283 470Q123 470 123 260Q123 180 147 130Q148 127 151 127T156 129L374 433Q380 440 372 446Q336 470 283 470ZM419 390Q418 393 415 393T410 391L192 87Q186 80 194 74Q230 50 283 50Q443
50 443 260Q443 340 419 390ZM103 54Q107 60 102 67Q45 138 45 260Q45 388 108 459T283 530Q358 530 411 498Q418 494 423 501L439 524Q446 533 456 535T476 530T487 513T482 493L463 466Q459 460 464 453Q521 382 521 260Q521 132 458 61T283 -10Q208 -10 155
22Q148 26 143 19L127 -4Q120 -13 110 -15T90 -10T79 7T84 27L103 54Z" />
<glyph unicode="&#xf9;" glyph-name="ugrave" horiz-adv-x="560" d="M238 -10Q151 -10 111 38T70 197V482Q70 498 81 509T108 520T134 509T145 482V207Q145 117 172 84T258 50Q312 50 360 96T408 198V482Q408 498 419 509T447 520T474 509T485 482V36Q485 21 475
11T449 0T423 10T412 36V77Q412 78 411 78T409 77Q340 -10 238 -10ZM212 757Q262 757 291 715L355 621Q362 611 357 601T339 590Q301 590 277 619L194 718Q184 729 190 743T212 757Z" />
<glyph unicode="&#xfa;" glyph-name="uacute" horiz-adv-x="560" d="M238 -10Q151 -10 111 38T70 197V482Q70 498 81 509T108 520T134 509T145 482V207Q145 117 172 84T258 50Q312 50 360 96T408 198V482Q408 498 419 509T447 520T474 509T485 482V36Q485 21 475
11T449 0T423 10T412 36V77Q412 78 411 78T409 77Q340 -10 238 -10ZM279 715Q308 757 358 757Q373 757 379 743T376 718L293 619Q269 590 231 590Q219 590 214 600T215 621L279 715Z" />
<glyph unicode="&#xfb;" glyph-name="ucircumflex" horiz-adv-x="560" d="M238 -10Q151 -10 111 38T70 197V482Q70 498 80 509T107 520T134 509T145 482V207Q145 117 172 84T258 50Q312 50 360 96T408 198V482Q408 498 419 509T447 520T474 509T485 482V36Q485
21 475 11T449 0T423 10T412 36V77Q412 78 411 78T409 77Q340 -10 238 -10ZM375 714L448 625Q456 614 450 602T431 590Q385 590 358 626L287 721Q286 722 285 722L283 721L212 626Q185 590 139 590Q125 590 119 602T122 625L195 714Q230 757 285 757T375 714Z"
/>
<glyph unicode="&#xfc;" glyph-name="udieresis" horiz-adv-x="560" d="M238 -10Q151 -10 111 38T70 197V482Q70 498 80 509T107 520T134 509T145 482V207Q145 117 172 84T258 50Q312 50 360 96T408 198V482Q408 498 419 509T447 520T474 509T485 482V36Q485 21
475 11T449 0T423 10T412 36V77Q412 78 411 78T409 77Q340 -10 238 -10ZM348 700Q348 715 359 726T385 737T411 726T422 700V647Q422 632 411 621T385 610T359 621T348 647V700ZM148 700Q148 715 159 726T185 737T211 726T222 700V647Q222 632 211 621T185 610T159
621T148 647V700Z" />
<glyph unicode="&#xfd;" glyph-name="yacute" horiz-adv-x="522" d="M212 12L37 482Q32 496 40 508T64 520Q82 520 96 510T117 482L254 93Q254 92 255 92Q257 92 257 93L408 484Q414 500 428 510T461 520Q475 520 482 509T485 484L210 -184Q203 -200 189 -210T156
-220Q142 -220 135 -209T133 -184L212 -4Q215 4 212 12ZM254 715Q283 757 333 757Q348 757 354 743T351 718L268 619Q244 590 206 590Q194 590 189 600T190 621L254 715Z" />
<glyph unicode="&#xfe;" glyph-name="thorn" horiz-adv-x="573" d="M152 337V183Q152 131 198 91T302 50Q373 50 412 103T452 260Q452 470 302 470Q243 470 198 429T152 337ZM126 -220T111 -220T86 -210T75 -184V712Q75 728 86 739T113 750T140 739T152 712V453Q152
452 153 452T155 453Q220 530 318 530Q415 530 471 460T528 260Q528 135 470 63T318 -10Q213 -10 150 67Q149 68 148 68T147 67V-184Q147 -199 137 -209Z" />
<glyph unicode="&#xff;" glyph-name="ydieresis" horiz-adv-x="522" d="M212 12L37 482Q32 496 40 508T64 520Q82 520 96 510T117 482L254 93Q254 92 255 92Q257 92 257 93L408 484Q414 500 428 510T461 520Q475 520 482 509T485 484L210 -184Q203 -200 189 -210T156
-220Q142 -220 135 -209T133 -184L212 -4Q215 4 212 12ZM323 700Q323 715 334 726T360 737T386 726T397 700V647Q397 632 386 621T360 610T334 621T323 647V700ZM145 737T160 737T186 726T197 700V647Q197 632 186 621T160 610T134 621T123 647V700Q123 715 134
726Z" />
<glyph unicode="&#x2013;" glyph-name="endash" horiz-adv-x="472" d="M447 317Q458 317 466 309T474 290T466 271T447 263H25Q14 263 6 271T-2 290T6 309T25 317H447Z" />
<glyph unicode="&#x2014;" glyph-name="emdash" horiz-adv-x="946" d="M921 317Q932 317 940 309T948 290T940 271T921 263H25Q14 263 6 271T-2 290T6 309T25 317H921Z" />
<glyph unicode="&#x2018;" glyph-name="quoteleft" horiz-adv-x="263" d="M79 523Q61 523 51 538T47 570L115 736Q121 752 135 761T165 770Q179 770 187 759T192 735L143 571Q137 550 120 537T79 523Z" />
<glyph unicode="&#x2019;" glyph-name="quoteright" horiz-adv-x="263" d="M97 523Q84 523 76 534T71 559L120 722Q126 743 144 756T184 770Q202 770 212 755T215 723L148 558Q142 542 128 533T97 523Z" />
<glyph unicode="&#x201a;" glyph-name="quotesinglbase" horiz-adv-x="278" d="M87 -110Q74 -110 66 -99T61 -75L109 89Q115 110 133 123T174 137Q192 137 202 122T205 90L138 -76Q132 -92 118 -101T87 -110Z" />
<glyph unicode="&#x201c;" glyph-name="quotedblleft" horiz-adv-x="434" d="M257 523Q241 523 232 537T228 567L298 739Q311 770 344 770Q357 770 364 760T368 738L318 568Q312 548 295 536T257 523ZM71 523Q55 523 46 537T42 567L112 739Q125 770 158 770Q171
770 178 760T182 738L131 568Q125 548 109 536T71 523Z" />
<glyph unicode="&#x201d;" glyph-name="quotedblright" horiz-adv-x="434" d="M276 523Q263 523 256 533T252 555L303 725Q309 745 325 757T363 770Q380 770 389 757T392 727L322 554Q309 523 276 523ZM90 523Q77 523 70 533T66 555L116 725Q122 745 139 757T177
770Q194 770 203 757T206 727L136 554Q123 523 90 523Z" />
<glyph unicode="&#x201e;" glyph-name="quotedblbase" horiz-adv-x="449" d="M266 -110Q253 -110 246 -100T242 -78L293 92Q299 112 315 124T353 137Q370 137 379 123T382 93L312 -79Q299 -110 266 -110ZM80 -110Q67 -110 60 -100T56 -78L106 92Q112 112 129 124T167
137Q184 137 193 123T196 93L126 -79Q113 -110 80 -110Z" />
<glyph unicode="&#x2022;" glyph-name="bullet" horiz-adv-x="456" d="M125 365Q125 408 155 438T228 468T301 438T331 365T301 292T228 262T155 292T125 365V365Z" />
<glyph unicode="&#x2039;" glyph-name="guilsinglleft" horiz-adv-x="351" d="M182 109L80 245Q65 265 65 290T80 335L182 471Q206 503 246 503Q258 503 263 492T262 471L130 297Q125 290 130 283L262 109Q269 99 264 88T246 77Q206 77 182 109Z" />
<glyph unicode="&#x203a;" glyph-name="guilsinglright" horiz-adv-x="351" d="M89 109L221 283Q226 290 221 297L89 471Q82 481 87 492T105 503Q145 503 169 471L271 335Q286 315 286 290T271 245L169 109Q145 77 105 77Q93 77 88 88T89 109Z" />
</font>
</defs>
</svg>
